<svg version="1.1" id="Layer_1" xmlns="http://www.w3.org/2000/svg" xmlns:xlink="http://www.w3.org/1999/xlink" x="0" y="0" viewBox="0 0 180.44 146.67" style="enable-background:new 0 0 180.44 146.67" xml:space="preserve"><style>.st2{fill:#fff}.st3{enable-background:new}.st5{fill:#af70ff}.st7{fill:#9e52ff}.st9{fill:#a159ff}.st15{fill:#ab6aff}.st16{fill:#ac6bff}.st17{fill:#ac6cff}.st18{fill:#ad6eff}.st19{fill:#ae6fff}</style><pattern x="-1711" y="634.94" width="69" height="69" patternUnits="userSpaceOnUse" id="Polka_Dot_Pattern" viewBox="2.13 -70.9 69 69" style="overflow:visible"><path style="fill:none" d="M2.13-70.9h69v69h-69z"/><path style="fill:#f8c05a" d="M2.13-70.9h69v69h-69z"/><path class="st2" d="M61.77-71.65c.02.07.01.13-.03.19-.05.1-.11.06-.17.13-.05.06-.1.28-.08.36-.17.06-.01.23-.02.35 0 .05-.04.11-.04.16-.01.12.02.27.07.37.1.2.27.41.44.54.19.15.36.57.61.63.18.04.38-.1.54-.14.18-.04.4.01.57-.05.22-.08.13-.34.29-.45.1-.07.29-.01.41-.05.2-.07.34-.26.38-.46.02-.08.01-.14.04-.22.04-.1.11-.16.09-.29-.01-.06-.05-.12-.06-.19-.02-.11 0-.22 0-.34 0-.2.02-.38-.08-.55-.38-.69-1.24-.93-1.97-.79-.18.03-.29.13-.44.21-.17.09-.14.17-.32.22-.08.03-.22.12-.21.22 0 .12 0 .05.01.17-.02.01-.02 0-.03-.03M54.11-71.65c.02.07.01.13-.03.19-.05.1-.11.06-.17.13-.05.06-.1.28-.08.36-.17.06-.01.23-.02.35 0 .05-.04.11-.04.16-.01.12.02.27.07.37.1.2.27.41.44.54.19.15.36.57.61.63.18.04.38-.1.54-.14.18-.04.4.01.57-.05.22-.08.13-.34.29-.45.1-.07.29-.01.41-.05.2-.07.34-.26.38-.46.02-.08.01-.14.04-.22.04-.1.11-.16.09-.29-.01-.06-.05-.12-.06-.19-.02-.11 0-.22 0-.34 0-.2.02-.38-.08-.55-.38-.69-1.24-.93-1.97-.79-.18.03-.29.13-.44.21-.17.09-.14.17-.32.22-.08.03-.22.12-.21.22 0 .12 0 .05.01.17-.02.01-.02 0-.03-.03M46.44-71.65c.02.07.01.13-.03.19-.05.1-.11.06-.17.13-.05.06-.1.28-.08.36-.17.06-.01.23-.02.35 0 .05-.04.11-.04.16-.01.12.02.27.07.37.1.2.27.41.44.54.19.15.36.57.61.63.18.04.38-.1.54-.14.18-.04.4.01.57-.05.22-.08.13-.34.29-.45.1-.07.29-.01.41-.05.2-.07.34-.26.38-.46.02-.08.01-.14.04-.22.04-.1.11-.16.09-.29-.01-.06-.05-.12-.06-.19-.02-.11 0-.22 0-.34 0-.2.02-.38-.08-.55-.38-.69-1.24-.93-1.97-.79-.18.03-.29.13-.44.21-.17.09-.14.17-.32.22-.08.03-.22.12-.21.22 0 .12 0 .05.01.17-.02.01-.02 0-.03-.03M38.77-71.65c.02.07.01.13-.03.19-.05.1-.11.06-.17.13-.05.06-.1.28-.08.36-.17.06-.01.23-.02.35 0 .05-.04.11-.04.16-.01.12.02.27.07.37.1.2.27.41.44.54.19.15.36.57.61.63.18.04.38-.1.54-.14.18-.04.4.01.57-.05.22-.08.13-.34.29-.45.1-.07.29-.01.41-.05.2-.07.34-.26.38-.46.02-.08.01-.14.04-.22.04-.1.11-.16.09-.29-.01-.06-.05-.12-.06-.19-.02-.11 0-.22 0-.34 0-.2.02-.38-.08-.55-.38-.69-1.24-.93-1.97-.79-.18.03-.29.13-.44.21-.17.09-.14.17-.32.22-.08.03-.22.12-.21.22 0 .12 0 .05.01.17-.02.01-.02 0-.03-.03M31.11-71.65c.02.07.01.13-.03.19-.05.1-.11.06-.16.13-.05.06-.1.28-.08.36-.17.06-.01.23-.02.35 0 .05-.04.11-.04.16-.01.12.02.27.07.37.1.2.27.41.43.54.19.15.36.57.61.63.18.04.38-.1.54-.14.18-.04.4.01.57-.05.22-.08.13-.34.29-.45.1-.07.29-.01.41-.05.2-.07.34-.26.38-.46.02-.08.01-.14.04-.22.04-.1.11-.16.09-.29-.01-.06-.05-.12-.06-.19-.02-.11 0-.22 0-.34 0-.2.02-.38-.08-.55-.38-.69-1.24-.93-1.97-.79-.18.03-.29.13-.44.21-.17.09-.14.17-.32.22-.08.03-.22.12-.21.22 0 .12 0 .05.01.17-.02.01-.02 0-.03-.03M23.44-71.65c.02.07.01.13-.03.19-.05.1-.11.06-.17.13-.05.06-.1.28-.08.36-.17.06-.01.23-.02.35 0 .05-.04.11-.04.16-.01.12.02.27.07.37.1.2.27.41.43.54.19.15.36.57.61.63.18.04.38-.1.54-.14.18-.04.4.01.57-.05.22-.08.13-.34.29-.45.1-.07.29-.01.41-.05.2-.07.34-.26.38-.46.02-.08.01-.14.04-.22.04-.1.11-.16.09-.29-.01-.06-.05-.12-.06-.19-.02-.11 0-.22 0-.34 0-.2.02-.38-.08-.55-.38-.69-1.24-.93-1.97-.79-.18.03-.29.13-.44.21-.17.09-.14.17-.32.22-.08.03-.22.12-.21.22 0 .12 0 .05.01.17-.02.01-.02 0-.03-.03M15.77-71.65c.02.07.01.13-.03.19-.05.1-.11.06-.17.13-.05.06-.1.28-.08.36-.17.06-.01.23-.02.35 0 .05-.04.11-.04.16-.01.12.02.27.07.37.1.2.27.41.44.54.19.15.36.57.61.63.18.04.38-.1.54-.14.18-.04.4.01.57-.05.22-.08.13-.34.29-.45.1-.07.29-.01.41-.05.2-.07.34-.26.38-.46.02-.08.01-.14.04-.22.04-.1.11-.16.09-.29-.01-.06-.05-.12-.06-.19-.02-.11 0-.22 0-.34 0-.2.02-.38-.08-.55-.38-.69-1.24-.93-1.97-.79-.18.03-.29.13-.44.21-.17.09-.14.17-.32.22-.08.03-.22.12-.21.22 0 .12 0 .05.01.17-.02.01-.02 0-.03-.03M8.11-71.65c.02.07.01.13-.03.19-.05.1-.11.06-.17.13-.05.06-.1.28-.08.36-.17.06-.01.23-.02.35 0 .05-.04.11-.04.16-.01.12.02.27.07.37.1.2.27.41.44.54.19.15.36.57.61.63.18.04.38-.1.54-.14.18-.04.4.01.57-.05.22-.08.13-.34.29-.45.1-.07.29-.01.41-.05.2-.07.34-.26.38-.46.02-.08.01-.14.04-.22.04-.1.11-.16.09-.29-.01-.06-.05-.12-.06-.19-.02-.11 0-.22 0-.34 0-.2.02-.38-.08-.55-.38-.69-1.24-.93-1.97-.79-.18.03-.29.13-.44.21-.17.09-.14.17-.32.22-.08.03-.22.12-.21.22 0 .12 0 .05.01.17-.02.01-.02 0-.03-.03M.44-71.65c.02.07.01.13-.03.19-.05.1-.11.06-.17.13-.05.06-.1.28-.08.36-.16.05 0 .22-.01.35 0 .05-.04.11-.04.16-.01.12.02.27.07.37.1.2.27.41.44.54.19.15.36.57.61.63.18.04.38-.1.54-.14.18-.04.4.01.57-.05.22-.08.13-.34.29-.45.1-.07.29-.01.41-.05.2-.07.34-.26.38-.46.02-.08.01-.14.04-.22.04-.1.11-.16.09-.29-.01-.06-.05-.12-.06-.19-.02-.11 0-.22 0-.34 0-.2.02-.38-.08-.55-.38-.69-1.24-.93-1.97-.79-.18.03-.29.13-.44.21-.17.09-.14.17-.32.22-.08.03-.22.12-.21.22 0 .12 0 .05.01.17-.02.01-.02 0-.03-.03"/><g><path class="st2" d="M69.44-71.65c.02.07.01.13-.03.19-.05.1-.11.06-.17.13-.05.06-.1.28-.08.36-.17.06-.01.23-.02.35 0 .05-.04.11-.04.16-.01.12.02.27.07.37.1.2.27.41.43.54.19.15.36.57.61.63.18.04.38-.1.54-.14.18-.04.4.01.57-.05.22-.08.13-.34.29-.45.1-.07.29-.01.41-.05.2-.07.34-.26.38-.46.02-.08.01-.14.04-.22.04-.1.11-.16.09-.29-.01-.06-.05-.12-.06-.19-.02-.11 0-.22 0-.34 0-.2.02-.38-.08-.55-.38-.69-1.24-.93-1.97-.79-.18.03-.29.13-.44.21-.17.09-.14.17-.32.22-.08.03-.22.12-.21.22 0 .12 0 .05.01.17-.02.01-.02 0-.03-.03"/></g><path class="st2" d="M.5-71.65c.02.07.01.13-.03.19-.05.1-.11.06-.17.13-.05.06-.1.28-.08.36-.17.06-.01.23-.02.35 0 .05-.04.11-.04.16-.01.12.02.27.07.37.1.2.27.41.44.54.19.15.36.57.61.63.18.04.38-.1.54-.14.18-.04.4.01.57-.05.22-.08.13-.34.29-.45.1-.07.29-.01.41-.05.2-.07.34-.26.38-.46.02-.08.01-.14.04-.22.04-.1.11-.16.09-.29-.01-.06-.05-.12-.06-.19-.02-.11 0-.22 0-.34 0-.2.02-.38-.08-.55-.38-.69-1.24-.93-1.97-.79-.18.03-.29.13-.44.21-.17.09-.14.17-.32.22-.08.03-.22.12-.21.22 0 .12 0 .05.01.17-.02.01-.02 0-.03-.03"/><g><path class="st2" d="M69.44-64c.02.07.01.13-.03.19-.05.1-.11.06-.17.13-.05.06-.1.28-.08.36-.17.06-.01.23-.02.35 0 .05-.04.11-.04.16-.01.12.02.27.07.37.1.2.27.41.43.54.19.15.36.57.61.63.18.04.38-.1.54-.14.18-.04.4.01.57-.05.22-.08.13-.34.29-.45.1-.07.29-.01.41-.05.2-.07.34-.26.38-.46.02-.08.01-.14.04-.22.04-.1.11-.16.09-.29-.01-.06-.05-.12-.06-.19-.02-.11 0-.22 0-.34 0-.2.02-.38-.08-.55-.38-.69-1.24-.93-1.97-.79-.18.03-.29.13-.44.21-.17.09-.14.17-.32.22-.08.03-.22.12-.21.22 0 .12 0 .05.01.17-.02.01-.02 0-.03-.03M61.78-64c.02.07.01.13-.03.19-.05.1-.11.06-.17.13-.05.06-.1.28-.08.36-.17.06-.01.23-.02.35 0 .05-.04.11-.04.16-.01.12.02.27.07.37.1.2.27.41.44.54.19.15.36.57.61.63.18.04.38-.1.54-.14.18-.04.4.01.57-.05.22-.08.13-.34.29-.45.1-.07.29-.01.41-.05.2-.07.34-.26.38-.46.02-.08.01-.14.04-.22.04-.1.11-.16.09-.29-.01-.06-.05-.12-.06-.19-.02-.11 0-.22 0-.34 0-.2.02-.38-.08-.55-.38-.69-1.24-.93-1.97-.79-.18.03-.29.13-.44.21-.17.09-.14.17-.32.22-.08.03-.22.12-.21.22 0 .12 0 .05.01.17-.02.01-.02 0-.03-.03M54.12-64c.02.07.01.13-.03.19-.05.1-.11.06-.17.13-.05.06-.1.28-.08.36-.17.06-.01.23-.02.35 0 .05-.04.11-.04.16-.01.12.02.27.07.37.1.2.27.41.44.54.19.15.36.57.61.63.18.04.38-.1.54-.14.18-.04.4.01.57-.05.22-.08.13-.34.29-.45.1-.07.29-.01.41-.05.2-.07.34-.26.38-.46.02-.08.01-.14.04-.22.04-.1.11-.16.09-.29-.01-.06-.05-.12-.06-.19-.02-.11 0-.22 0-.34 0-.2.02-.38-.08-.55-.38-.69-1.24-.93-1.97-.79-.18.03-.29.13-.44.21-.17.09-.14.17-.32.22-.08.03-.22.12-.21.22 0 .12 0 .05.01.17-.02.01-.02 0-.03-.03M46.46-64c.02.07.01.13-.03.19-.05.1-.11.06-.16.13-.05.06-.1.28-.08.36-.17.06-.01.23-.02.35 0 .05-.04.11-.05.16-.01.12.02.27.07.37.1.2.27.41.44.54.19.15.36.57.61.63.18.04.38-.1.54-.14.18-.04.4.01.57-.05.22-.08.13-.34.29-.45.1-.07.29-.01.41-.05.2-.07.34-.26.38-.46.02-.08.01-.14.04-.22.04-.1.11-.16.09-.29-.01-.06-.05-.12-.06-.19-.02-.11 0-.22 0-.34 0-.2.02-.38-.08-.55-.38-.69-1.24-.93-1.97-.79-.18.03-.29.13-.44.21-.17.09-.14.17-.32.22-.08.03-.22.12-.21.22 0 .12 0 .05.01.17-.02.01-.02 0-.03-.03M38.8-64c.02.07.01.13-.03.19-.05.1-.11.06-.17.13-.05.06-.1.28-.08.36-.17.06-.01.23-.02.35 0 .05-.04.11-.04.16-.01.12.02.27.07.37.1.2.27.41.44.54.19.15.36.57.61.63.18.04.38-.1.54-.14.18-.04.4.01.57-.05.22-.08.13-.34.29-.45.1-.07.29-.01.41-.05.2-.07.34-.26.38-.46.02-.08.01-.14.04-.22.04-.1.11-.16.09-.29-.01-.06-.05-.12-.06-.19-.02-.11 0-.22 0-.34 0-.2.02-.38-.08-.55-.38-.69-1.24-.93-1.97-.79-.18.03-.29.13-.44.21-.17.09-.14.17-.32.22-.08.03-.22.12-.21.22 0 .12 0 .05.01.17-.02.01-.02 0-.03-.03M31.14-64c.02.07.01.13-.03.19-.05.1-.11.06-.16.13-.05.06-.1.28-.08.36-.17.06-.01.23-.02.35 0 .05-.04.11-.05.16-.01.12.02.27.07.37.1.2.27.41.44.54.19.15.36.57.61.63.18.04.38-.1.54-.14.18-.04.4.01.57-.05.22-.08.13-.34.29-.45.1-.07.29-.01.41-.05.2-.07.34-.26.38-.46.02-.08.01-.14.04-.22.04-.1.11-.16.09-.29-.01-.06-.05-.12-.06-.19-.02-.11 0-.22 0-.34 0-.2.02-.38-.08-.55-.38-.69-1.24-.93-1.97-.79-.18.03-.29.13-.44.21-.17.09-.14.17-.32.22-.08.03-.22.12-.21.22 0 .12 0 .05.01.17-.02.01-.02 0-.03-.03M23.48-64c.02.07.01.13-.03.19-.05.1-.11.06-.17.13-.05.06-.1.28-.08.36-.17.06-.01.23-.02.35 0 .05-.04.11-.04.16-.01.12.02.27.07.37.1.2.27.41.44.54.19.15.36.57.61.63.18.04.38-.1.54-.14.18-.04.4.01.57-.05.22-.08.13-.34.29-.45.1-.07.29-.01.41-.05.2-.07.34-.26.38-.46.02-.08.01-.14.04-.22.04-.1.11-.16.09-.29-.01-.06-.05-.12-.06-.19-.02-.11 0-.22 0-.34 0-.2.02-.38-.08-.55-.38-.69-1.24-.93-1.97-.79-.18.03-.29.13-.44.21-.17.09-.14.17-.32.22-.08.03-.22.12-.21.22 0 .12 0 .05.01.17-.02.01-.02 0-.03-.03M15.82-64c.02.07.01.13-.03.19-.05.1-.11.06-.16.13-.05.06-.1.28-.08.36-.17.06-.01.23-.02.35 0 .05-.04.11-.05.16-.01.12.02.27.07.37.1.2.27.41.44.54.19.15.36.57.61.63.18.04.38-.1.54-.14.18-.04.4.01.57-.05.22-.08.13-.34.29-.45.1-.07.29-.01.41-.05.2-.07.34-.26.38-.46.02-.08.01-.14.04-.22.04-.1.11-.16.09-.29-.01-.06-.05-.12-.06-.19-.02-.11 0-.22 0-.34 0-.2.02-.38-.08-.55-.38-.69-1.24-.93-1.97-.79-.18.03-.29.13-.44.21-.17.09-.14.17-.32.22-.08.03-.22.12-.21.22 0 .12 0 .05.01.17-.02.01-.02 0-.03-.03M8.16-64c.02.07.01.13-.03.19-.05.1-.11.06-.17.13-.05.06-.1.28-.08.36-.17.06-.01.23-.02.35 0 .05-.04.11-.04.16-.01.12.02.27.07.37.1.2.27.41.44.54.19.15.36.57.61.63.18.04.38-.1.54-.14.18-.04.4.01.57-.05.22-.08.13-.34.29-.45.1-.07.29-.01.41-.05.2-.07.34-.26.38-.46.02-.08.01-.14.04-.22.04-.1.11-.16.09-.29-.01-.06-.05-.12-.06-.19-.02-.11 0-.22 0-.34 0-.2.02-.38-.08-.55-.38-.69-1.24-.93-1.97-.79-.18.03-.29.13-.44.21-.17.09-.14.17-.32.22-.08.03-.22.12-.21.22 0 .12 0 .05.01.17-.02.01-.02 0-.03-.03M.5-64c.02.07.01.13-.03.19-.05.1-.11.06-.17.13-.05.06-.1.28-.08.36-.17.06-.01.23-.02.35 0 .05-.04.11-.04.16-.01.12.02.27.07.37.1.2.27.41.44.54.19.15.36.57.61.63.18.04.38-.1.54-.14.18-.04.4.01.57-.05.22-.08.13-.34.29-.45.1-.07.29-.01.41-.05.2-.07.34-.26.38-.46.02-.08.01-.14.04-.22.04-.1.11-.16.09-.29-.02-.07-.06-.12-.07-.19-.02-.11 0-.22 0-.34 0-.2.02-.38-.08-.55-.38-.69-1.24-.93-1.97-.79-.18.03-.29.13-.44.21-.17.09-.14.17-.32.22-.08.03-.22.12-.21.22 0 .12 0 .05.01.17-.02.01-.02 0-.03-.03"/><g><path class="st2" d="M69.44-56.35c.02.07.01.13-.03.19-.05.1-.11.06-.17.13-.05.06-.1.28-.08.36-.17.06-.01.23-.02.35 0 .05-.04.11-.04.16-.01.12.02.27.07.37.1.2.27.41.43.54.19.15.36.57.61.63.18.04.38-.1.54-.14.18-.04.4.01.57-.05.22-.08.13-.34.29-.45.1-.07.29-.01.41-.05.2-.07.34-.26.38-.46.02-.08.01-.14.04-.22.04-.1.11-.16.09-.29-.01-.06-.05-.12-.06-.19-.02-.11 0-.22 0-.34 0-.2.02-.38-.08-.55-.38-.69-1.24-.93-1.97-.79-.18.03-.29.13-.44.21-.17.09-.14.17-.32.22-.08.03-.22.12-.21.22 0 .12 0 .05.01.17-.02.01-.02 0-.03-.03M61.78-56.35c.02.07.01.13-.03.19-.05.1-.11.06-.17.13-.05.06-.1.28-.08.36-.17.06-.01.23-.02.35 0 .05-.04.11-.04.16-.01.12.02.27.07.37.1.2.27.41.44.54.19.15.36.57.61.63.18.04.38-.1.54-.14.18-.04.4.01.57-.05.22-.08.13-.34.29-.45.1-.07.29-.01.41-.05.2-.07.34-.26.38-.46.02-.08.01-.14.04-.22.04-.1.11-.16.09-.29-.01-.06-.05-.12-.06-.19-.02-.11 0-.22 0-.34 0-.2.02-.38-.08-.55-.38-.69-1.24-.93-1.97-.79-.18.03-.29.13-.44.21-.17.09-.14.17-.32.22-.08.03-.22.12-.21.22 0 .12 0 .05.01.17-.02.01-.02 0-.03-.03M54.12-56.35c.02.07.01.13-.03.19-.05.1-.11.06-.17.13-.05.06-.1.28-.08.36-.17.06-.01.23-.02.35 0 .05-.04.11-.04.16-.01.12.02.27.07.37.1.2.27.41.44.54.19.15.36.57.61.63.18.04.38-.1.54-.14.18-.04.4.01.57-.05.22-.08.13-.34.29-.45.1-.07.29-.01.41-.05.2-.07.34-.26.38-.46.02-.08.01-.14.04-.22.04-.1.11-.16.09-.29-.01-.06-.05-.12-.06-.19-.02-.11 0-.22 0-.34 0-.2.02-.38-.08-.55-.38-.69-1.24-.93-1.97-.79-.18.03-.29.13-.44.21-.17.09-.14.17-.32.22-.08.03-.22.12-.21.22 0 .12 0 .05.01.17-.02.01-.02 0-.03-.03M46.46-56.35c.02.07.01.13-.03.19-.05.1-.11.06-.16.13-.05.06-.1.28-.08.36-.17.06-.01.23-.02.35 0 .05-.04.11-.05.16-.01.12.02.27.07.37.1.2.27.41.44.54.19.15.36.57.61.63.18.04.38-.1.54-.14.18-.04.4.01.57-.05.22-.08.13-.34.29-.45.1-.07.29-.01.41-.05.2-.07.34-.26.38-.46.02-.08.01-.14.04-.22.04-.1.11-.16.09-.29-.01-.06-.05-.12-.06-.19-.02-.11 0-.22 0-.34 0-.2.02-.38-.08-.55-.38-.69-1.24-.93-1.97-.79-.18.03-.29.13-.44.21-.17.09-.14.17-.32.22-.08.03-.22.12-.21.22 0 .12 0 .05.01.17-.02.01-.02 0-.03-.03M38.8-56.35c.02.07.01.13-.03.19-.05.1-.11.06-.17.13-.05.06-.1.28-.08.36-.17.06-.01.23-.02.35 0 .05-.04.11-.04.16-.01.12.02.27.07.37.1.2.27.41.44.54.19.15.36.57.61.63.18.04.38-.1.54-.14.18-.04.4.01.57-.05.22-.08.13-.34.29-.45.1-.07.29-.01.41-.05.2-.07.34-.26.38-.46.02-.08.01-.14.04-.22.04-.1.11-.16.09-.29-.01-.06-.05-.12-.06-.19-.02-.11 0-.22 0-.34 0-.2.02-.38-.08-.55-.38-.69-1.24-.93-1.97-.79-.18.03-.29.13-.44.21-.17.09-.14.17-.32.22-.08.03-.22.12-.21.22 0 .12 0 .05.01.17-.02.01-.02 0-.03-.03M31.14-56.35c.02.07.01.13-.03.19-.05.1-.11.06-.16.13-.05.06-.1.28-.08.36-.17.06-.01.23-.02.35 0 .05-.04.11-.05.16-.01.12.02.27.07.37.1.2.27.41.44.54.19.15.36.57.61.63.18.04.38-.1.54-.14.18-.04.4.01.57-.05.22-.08.13-.34.29-.45.1-.07.29-.01.41-.05.2-.07.34-.26.38-.46.02-.08.01-.14.04-.22.04-.1.11-.16.09-.29-.01-.06-.05-.12-.06-.19-.02-.11 0-.22 0-.34 0-.2.02-.38-.08-.55-.38-.69-1.24-.93-1.97-.79-.18.03-.29.13-.44.21-.17.09-.14.17-.32.22-.08.03-.22.12-.21.22 0 .12 0 .05.01.17-.02.01-.02 0-.03-.03M23.48-56.35c.02.07.01.13-.03.19-.05.1-.11.06-.17.13-.05.06-.1.28-.08.36-.17.06-.01.23-.02.35 0 .05-.04.11-.04.16-.01.12.02.27.07.37.1.2.27.41.44.54.19.15.36.57.61.63.18.04.38-.1.54-.14.18-.04.4.01.57-.05.22-.08.13-.34.29-.45.1-.07.29-.01.41-.05.2-.07.34-.26.38-.46.02-.08.01-.14.04-.22.04-.1.11-.16.09-.29-.01-.06-.05-.12-.06-.19-.02-.11 0-.22 0-.34 0-.2.02-.38-.08-.55-.38-.69-1.24-.93-1.97-.79-.18.03-.29.13-.44.21-.17.09-.14.17-.32.22-.08.03-.22.12-.21.22 0 .12 0 .05.01.17-.02.01-.02 0-.03-.03M15.82-56.35c.02.07.01.13-.03.19-.05.1-.11.06-.16.13-.05.06-.1.28-.08.36-.17.06-.01.23-.02.35 0 .05-.04.11-.05.16-.01.12.02.27.07.37.1.2.27.41.44.54.19.15.36.57.61.63.18.04.38-.1.54-.14.18-.04.4.01.57-.05.22-.08.13-.34.29-.45.1-.07.29-.01.41-.05.2-.07.34-.26.38-.46.02-.08.01-.14.04-.22.04-.1.11-.16.09-.29-.01-.06-.05-.12-.06-.19-.02-.11 0-.22 0-.34 0-.2.02-.38-.08-.55-.38-.69-1.24-.93-1.97-.79-.18.03-.29.13-.44.21-.17.09-.14.17-.32.22-.08.03-.22.12-.21.22 0 .12 0 .05.01.17-.02.01-.02 0-.03-.03M8.16-56.35c.02.07.01.13-.03.19-.05.1-.11.06-.17.13-.05.06-.1.28-.08.36-.17.06-.01.23-.02.35 0 .05-.04.11-.04.16-.01.12.02.27.07.37.1.2.27.41.44.54.19.15.36.57.61.63.18.04.38-.1.54-.14.18-.04.4.01.57-.05.22-.08.13-.34.29-.45.1-.07.29-.01.41-.05.2-.07.34-.26.38-.46.02-.08.01-.14.04-.22.04-.1.11-.16.09-.29-.01-.06-.05-.12-.06-.19-.02-.11 0-.22 0-.34 0-.2.02-.38-.08-.55-.38-.69-1.24-.93-1.97-.79-.18.03-.29.13-.44.21-.17.09-.14.17-.32.22-.08.03-.22.12-.21.22 0 .12 0 .05.01.17-.02.01-.02 0-.03-.03M.5-56.35c.02.07.01.13-.03.19-.05.1-.11.06-.17.13-.05.06-.1.28-.08.36-.17.06-.01.23-.02.35 0 .05-.04.11-.04.16-.01.12.02.27.07.37.1.2.27.41.44.54.19.15.36.57.61.63.18.04.38-.1.54-.14.18-.04.4.01.57-.05.22-.08.13-.34.29-.45.1-.07.29-.01.41-.05.2-.07.34-.26.38-.46.02-.08.01-.14.04-.22.04-.1.11-.16.09-.29-.01-.06-.05-.12-.06-.19-.02-.11 0-.22 0-.34 0-.2.02-.38-.08-.55-.38-.69-1.24-.93-1.97-.79-.18.03-.29.13-.44.21-.17.09-.14.17-.32.22-.08.03-.22.12-.21.22 0 .12 0 .05.01.17-.02.01-.02 0-.03-.03"/></g><g><path class="st2" d="M69.44-48.7c.02.07.01.13-.03.19-.05.1-.11.06-.17.13-.05.06-.1.28-.08.36-.17.06-.01.23-.02.35 0 .05-.04.11-.04.16-.01.12.02.27.07.37.1.2.27.41.43.54.19.15.36.57.61.63.18.04.38-.1.54-.14.18-.04.4.01.57-.05.22-.08.13-.34.29-.45.1-.07.29-.01.41-.05.2-.07.34-.26.38-.46.02-.08.01-.14.04-.22.04-.1.11-.16.09-.29-.01-.06-.05-.12-.06-.19-.02-.11 0-.22 0-.34 0-.2.02-.38-.08-.55-.38-.69-1.24-.93-1.97-.79-.18.03-.29.13-.44.21-.17.09-.14.17-.32.22-.08.03-.22.12-.21.22 0 .12 0 .05.01.17-.02.01-.02 0-.03-.03M61.78-48.7c.02.07.01.13-.03.19-.05.1-.11.06-.17.13-.05.06-.1.28-.08.36-.17.06-.01.23-.02.35 0 .05-.04.11-.04.16-.01.12.02.27.07.37.1.2.27.41.44.54.19.15.36.57.61.63.18.04.38-.1.54-.14.18-.04.4.01.57-.05.22-.08.13-.34.29-.45.1-.07.29-.01.41-.05.2-.07.34-.26.38-.46.02-.08.01-.14.04-.22.04-.1.11-.16.09-.29-.01-.06-.05-.12-.06-.19-.02-.11 0-.22 0-.34 0-.2.02-.38-.08-.55-.38-.69-1.24-.93-1.97-.79-.18.03-.29.13-.44.21-.17.09-.14.17-.32.22-.08.03-.22.12-.21.22 0 .12 0 .05.01.17-.02.01-.02 0-.03-.03M54.12-48.7c.02.07.01.13-.03.19-.05.1-.11.06-.17.13-.05.06-.1.28-.08.36-.17.06-.01.23-.02.35 0 .05-.04.11-.04.16-.01.12.02.27.07.37.1.2.27.41.44.54.19.15.36.57.61.63.18.04.38-.1.54-.14.18-.04.4.01.57-.05.22-.08.13-.34.29-.45.1-.07.29-.01.41-.05.2-.07.34-.26.38-.46.02-.08.01-.14.04-.22.04-.1.11-.16.09-.29-.01-.06-.05-.12-.06-.19-.02-.11 0-.22 0-.34 0-.2.02-.38-.08-.55-.38-.69-1.24-.93-1.97-.79-.18.03-.29.13-.44.21-.17.09-.14.17-.32.22-.08.03-.22.12-.21.22 0 .12 0 .05.01.17-.02.01-.02 0-.03-.03M46.46-48.7c.02.07.01.13-.03.19-.05.1-.11.06-.16.13-.05.06-.1.28-.08.36-.17.06-.01.23-.02.35 0 .05-.04.11-.05.16-.01.12.02.27.07.37.1.2.27.41.44.54.19.15.36.57.61.63.18.04.38-.1.54-.14.18-.04.4.01.57-.05.22-.08.13-.34.29-.45.1-.07.29-.01.41-.05.2-.07.34-.26.38-.46.02-.08.01-.14.04-.22.04-.1.11-.16.09-.29-.01-.06-.05-.12-.06-.19-.02-.11 0-.22 0-.34 0-.2.02-.38-.08-.55-.38-.69-1.24-.93-1.97-.79-.18.03-.29.13-.44.21-.17.09-.14.17-.32.22-.08.03-.22.12-.21.22 0 .12 0 .05.01.17-.02.01-.02 0-.03-.03M38.8-48.7c.02.07.01.13-.03.19-.05.1-.11.06-.17.13-.05.06-.1.28-.08.36-.17.06-.01.23-.02.35 0 .05-.04.11-.04.16-.01.12.02.27.07.37.1.2.27.41.44.54.19.15.36.57.61.63.18.04.38-.1.54-.14.18-.04.4.01.57-.05.22-.08.13-.34.29-.45.1-.07.29-.01.41-.05.2-.07.34-.26.38-.46.02-.08.01-.14.04-.22.04-.1.11-.16.09-.29-.01-.06-.05-.12-.06-.19-.02-.11 0-.22 0-.34 0-.2.02-.38-.08-.55-.38-.69-1.24-.93-1.97-.79-.18.03-.29.13-.44.21-.17.09-.14.17-.32.22-.08.03-.22.12-.21.22 0 .12 0 .05.01.17-.02.01-.02 0-.03-.03M31.14-48.7c.02.07.01.13-.03.19-.05.1-.11.06-.16.13-.05.06-.1.28-.08.36-.17.06-.01.23-.02.35 0 .05-.04.11-.05.16-.01.12.02.27.07.37.1.2.27.41.44.54.19.15.36.57.61.63.18.04.38-.1.54-.14.18-.04.4.01.57-.05.22-.08.13-.34.29-.45.1-.07.29-.01.41-.05.2-.07.34-.26.38-.46.02-.08.01-.14.04-.22.04-.1.11-.16.09-.29-.01-.06-.05-.12-.06-.19-.02-.11 0-.22 0-.34 0-.2.02-.38-.08-.55-.38-.69-1.24-.93-1.97-.79-.18.03-.29.13-.44.21-.17.09-.14.17-.32.22-.08.03-.22.12-.21.22 0 .12 0 .05.01.17-.02.01-.02 0-.03-.03M23.48-48.7c.02.07.01.13-.03.19-.05.1-.11.06-.17.13-.05.06-.1.28-.08.36-.17.06-.01.23-.02.35 0 .05-.04.11-.04.16-.01.12.02.27.07.37.1.2.27.41.44.54.19.15.36.57.61.63.18.04.38-.1.54-.14.18-.04.4.01.57-.05.22-.08.13-.34.29-.45.1-.07.29-.01.41-.05.2-.07.34-.26.38-.46.02-.08.01-.14.04-.22.04-.1.11-.16.09-.29-.01-.06-.05-.12-.06-.19-.02-.11 0-.22 0-.34 0-.2.02-.38-.08-.55-.38-.69-1.24-.93-1.97-.79-.18.03-.29.13-.44.21-.17.09-.14.17-.32.22-.08.03-.22.12-.21.22 0 .12 0 .05.01.17-.02.01-.02 0-.03-.03M15.82-48.7c.02.07.01.13-.03.19-.05.1-.11.06-.16.13-.05.06-.1.28-.08.36-.17.06-.01.23-.02.35 0 .05-.04.11-.05.16-.01.12.02.27.07.37.1.2.27.41.44.54.19.15.36.57.61.63.18.04.38-.1.54-.14.18-.04.4.01.57-.05.22-.08.13-.34.29-.45.1-.07.29-.01.41-.05.2-.07.34-.26.38-.46.02-.08.01-.14.04-.22.04-.1.11-.16.09-.29-.01-.06-.05-.12-.06-.19-.02-.11 0-.22 0-.34 0-.2.02-.38-.08-.55-.38-.69-1.24-.93-1.97-.79-.18.03-.29.13-.44.21-.17.09-.14.17-.32.22-.08.03-.22.12-.21.22 0 .12 0 .05.01.17-.02.01-.02 0-.03-.03M8.16-48.7c.02.07.01.13-.03.19-.05.1-.11.06-.17.13-.05.06-.1.28-.08.36-.17.06-.01.23-.02.35 0 .05-.04.11-.04.16-.01.12.02.27.07.37.1.2.27.41.44.54.19.15.36.57.61.63.18.04.38-.1.54-.14.18-.04.4.01.57-.05.22-.08.13-.34.29-.45.1-.07.29-.01.41-.05.2-.07.34-.26.38-.46.02-.08.01-.14.04-.22.04-.1.11-.16.09-.29-.01-.06-.05-.12-.06-.19-.02-.11 0-.22 0-.34 0-.2.02-.38-.08-.55-.38-.69-1.24-.93-1.97-.79-.18.03-.29.13-.44.21-.17.09-.14.17-.32.22-.08.03-.22.12-.21.22 0 .12 0 .05.01.17-.02.01-.02 0-.03-.03M.5-48.7c.02.07.01.13-.03.19-.05.1-.11.06-.17.13-.05.06-.1.28-.08.36-.17.06-.01.23-.02.35 0 .05-.04.11-.04.16-.01.12.02.27.07.37.1.2.27.41.44.54.19.15.36.57.61.63.18.04.38-.1.54-.14.18-.04.4.01.57-.05.22-.08.13-.34.29-.45.1-.07.29-.01.41-.05.2-.07.34-.26.38-.46.02-.08.01-.14.04-.22.04-.1.11-.16.09-.29-.01-.06-.05-.12-.06-.19-.02-.11 0-.22 0-.34 0-.2.02-.38-.08-.55-.38-.69-1.24-.93-1.97-.79-.18.03-.29.13-.44.21-.17.09-.14.17-.32.22-.08.03-.22.12-.21.22 0 .12 0 .05.01.17-.02.01-.02 0-.03-.03"/></g><g><path class="st2" d="M69.44-41.04c.02.07.01.13-.03.19-.05.1-.11.06-.17.13-.05.06-.1.28-.08.36-.17.06-.01.23-.02.35 0 .05-.04.11-.04.16-.01.12.02.27.07.37.1.2.27.41.43.54.19.15.36.57.61.63.18.04.38-.1.54-.14.18-.04.4.01.57-.05.22-.08.13-.34.29-.45.1-.07.29-.01.41-.05.2-.07.34-.26.38-.46.02-.08.01-.14.04-.22.04-.1.11-.16.09-.29-.01-.06-.05-.12-.06-.19-.02-.11 0-.22 0-.34 0-.2.02-.38-.08-.55-.38-.69-1.24-.93-1.97-.79-.18.03-.29.13-.44.21-.17.09-.14.17-.32.22-.08.03-.22.12-.21.22 0 .12 0 .05.01.17-.02.01-.02 0-.03-.03M61.78-41.04c.02.07.01.13-.03.19-.05.1-.11.06-.17.13-.05.06-.1.28-.08.36-.17.06-.01.23-.02.35 0 .05-.04.11-.04.16-.01.12.02.27.07.37.1.2.27.41.44.54.19.15.36.57.61.63.18.04.38-.1.54-.14.18-.04.4.01.57-.05.22-.08.13-.34.29-.45.1-.07.29-.01.41-.05.2-.07.34-.26.38-.46.02-.08.01-.14.04-.22.04-.1.11-.16.09-.29-.01-.06-.05-.12-.06-.19-.02-.11 0-.22 0-.34 0-.2.02-.38-.08-.55-.38-.69-1.24-.93-1.97-.79-.18.03-.29.13-.44.21-.17.09-.14.17-.32.22-.08.03-.22.12-.21.22 0 .12 0 .05.01.17-.02.01-.02 0-.03-.03M54.12-41.04c.02.07.01.13-.03.19-.05.1-.11.06-.17.13-.05.06-.1.28-.08.36-.17.06-.01.23-.02.35 0 .05-.04.11-.04.16-.01.12.02.27.07.37.1.2.27.41.44.54.19.15.36.57.61.63.18.04.38-.1.54-.14.18-.04.4.01.57-.05.22-.08.13-.34.29-.45.1-.07.29-.01.41-.05.2-.07.34-.26.38-.46.02-.08.01-.14.04-.22.04-.1.11-.16.09-.29-.01-.06-.05-.12-.06-.19-.02-.11 0-.22 0-.34 0-.2.02-.38-.08-.55-.38-.69-1.24-.93-1.97-.79-.18.03-.29.13-.44.21-.17.09-.14.17-.32.22-.08.03-.22.12-.21.22 0 .12 0 .05.01.17-.02.01-.02 0-.03-.03M46.46-41.04c.02.07.01.13-.03.19-.05.1-.11.06-.16.13-.05.06-.1.28-.08.36-.17.06-.01.23-.02.35 0 .05-.04.11-.05.16-.01.12.02.27.07.37.1.2.27.41.44.54.19.15.36.57.61.63.18.04.38-.1.54-.14.18-.04.4.01.57-.05.22-.08.13-.34.29-.45.1-.07.29-.01.41-.05.2-.07.34-.26.38-.46.02-.08.01-.14.04-.22.04-.1.11-.16.09-.29-.01-.06-.05-.12-.06-.19-.02-.11 0-.22 0-.34 0-.2.02-.38-.08-.55-.38-.69-1.24-.93-1.97-.79-.18.03-.29.13-.44.21-.17.09-.14.17-.32.22-.08.03-.22.12-.21.22 0 .12 0 .05.01.17-.02.01-.02 0-.03-.03M38.8-41.04c.02.07.01.13-.03.19-.05.1-.11.06-.17.13-.05.06-.1.28-.08.36-.17.06-.01.23-.02.35 0 .05-.04.11-.04.16-.01.12.02.27.07.37.1.2.27.41.44.54.19.15.36.57.61.63.18.04.38-.1.54-.14.18-.04.4.01.57-.05.22-.08.13-.34.29-.45.1-.07.29-.01.41-.05.2-.07.34-.26.38-.46.02-.08.01-.14.04-.22.04-.1.11-.16.09-.29-.01-.06-.05-.12-.06-.19-.02-.11 0-.22 0-.34 0-.2.02-.38-.08-.55-.38-.69-1.24-.93-1.97-.79-.18.03-.29.13-.44.21-.17.09-.14.17-.32.22-.08.03-.22.12-.21.22 0 .12 0 .05.01.17-.02.01-.02 0-.03-.03M31.14-41.04c.02.07.01.13-.03.19-.05.1-.11.06-.16.13-.05.06-.1.28-.08.36-.17.06-.01.23-.02.35 0 .05-.04.11-.05.16-.01.12.02.27.07.37.1.2.27.41.44.54.19.15.36.57.61.63.18.04.38-.1.54-.14.18-.04.4.01.57-.05.22-.08.13-.34.29-.45.1-.07.29-.01.41-.05.2-.07.34-.26.38-.46.02-.08.01-.14.04-.22.04-.1.11-.16.09-.29-.01-.06-.05-.12-.06-.19-.02-.11 0-.22 0-.34 0-.2.02-.38-.08-.55-.38-.69-1.24-.93-1.97-.79-.18.03-.29.13-.44.21-.17.09-.14.17-.32.22-.08.03-.22.12-.21.22 0 .12 0 .05.01.17-.02.01-.02 0-.03-.03M23.48-41.04c.02.07.01.13-.03.19-.05.1-.11.06-.17.13-.05.06-.1.28-.08.36-.17.06-.01.23-.02.35 0 .05-.04.11-.04.16-.01.12.02.27.07.37.1.2.27.41.44.54.19.15.36.57.61.63.18.04.38-.1.54-.14.18-.04.4.01.57-.05.22-.08.13-.34.29-.45.1-.07.29-.01.41-.05.2-.07.34-.26.38-.46.02-.08.01-.14.04-.22.04-.1.11-.16.09-.29-.01-.06-.05-.12-.06-.19-.02-.11 0-.22 0-.34 0-.2.02-.38-.08-.55-.38-.69-1.24-.93-1.97-.79-.18.03-.29.13-.44.21-.17.09-.14.17-.32.22-.08.03-.22.12-.21.22 0 .12 0 .05.01.17-.02.01-.02 0-.03-.03M15.82-41.04c.02.07.01.13-.03.19-.05.1-.11.06-.16.13-.05.06-.1.28-.08.36-.17.06-.01.23-.02.35 0 .05-.04.11-.05.16-.01.12.02.27.07.37.1.2.27.41.44.54.19.15.36.57.61.63.18.04.38-.1.54-.14.18-.04.4.01.57-.05.22-.08.13-.34.29-.45.1-.07.29-.01.41-.05.2-.07.34-.26.38-.46.02-.08.01-.14.04-.22.04-.1.11-.16.09-.29-.01-.06-.05-.12-.06-.19-.02-.11 0-.22 0-.34 0-.2.02-.38-.08-.55-.38-.69-1.24-.93-1.97-.79-.18.03-.29.13-.44.21-.17.09-.14.17-.32.22-.08.03-.22.12-.21.22 0 .12 0 .05.01.17-.02.01-.02 0-.03-.03M8.16-41.04c.02.07.01.13-.03.19-.05.1-.11.06-.17.13-.05.06-.1.28-.08.36-.17.06-.01.23-.02.35 0 .05-.04.11-.04.16-.01.12.02.27.07.37.1.2.27.41.44.54.19.15.36.57.61.63.18.04.38-.1.54-.14.18-.04.4.01.57-.05.22-.08.13-.34.29-.45.1-.07.29-.01.41-.05.2-.07.34-.26.38-.46.02-.08.01-.14.04-.22.04-.1.11-.16.09-.29-.01-.06-.05-.12-.06-.19-.02-.11 0-.22 0-.34 0-.2.02-.38-.08-.55-.38-.69-1.24-.93-1.97-.79-.18.03-.29.13-.44.21-.17.09-.14.17-.32.22-.08.03-.22.12-.21.22 0 .12 0 .05.01.17-.02.01-.02 0-.03-.03M.5-41.04c.02.07.01.13-.03.19-.05.1-.11.06-.17.13-.05.06-.1.28-.08.36-.17.06-.01.23-.02.35 0 .05-.04.11-.04.16-.01.12.02.27.07.37.1.2.27.41.44.54.19.15.36.57.61.63.18.04.38-.1.54-.14.18-.04.4.01.57-.05.22-.08.13-.34.29-.45.1-.07.29-.01.41-.05.2-.07.34-.26.38-.46.02-.08.01-.14.04-.22.04-.1.11-.16.09-.29-.01-.06-.05-.12-.06-.19-.02-.11 0-.22 0-.34 0-.2.02-.38-.08-.55-.38-.69-1.24-.93-1.97-.79-.18.03-.29.13-.44.21-.17.09-.14.17-.32.22-.08.03-.22.12-.21.22 0 .12 0 .05.01.17-.02.01-.02 0-.03-.03"/></g><g><path class="st2" d="M69.44-33.39c.02.07.01.13-.03.19-.05.1-.11.06-.17.13-.05.06-.1.28-.08.36-.17.06-.01.23-.02.35 0 .05-.04.11-.04.16-.01.12.02.27.07.37.1.2.27.41.43.54.19.15.36.57.61.63.18.04.38-.1.54-.14.18-.04.4.01.57-.05.22-.08.13-.34.29-.45.1-.07.29-.01.41-.05.2-.07.34-.26.38-.46.02-.08.01-.14.04-.22.04-.1.11-.16.09-.29-.01-.06-.05-.12-.06-.19-.02-.11 0-.22 0-.34 0-.2.02-.38-.08-.55-.38-.69-1.24-.93-1.97-.79-.18.03-.29.13-.44.21-.17.09-.14.17-.32.22-.08.03-.22.12-.21.22 0 .12 0 .05.01.17-.02.01-.02 0-.03-.03M61.78-33.39c.02.07.01.13-.03.19-.05.1-.11.06-.17.13-.05.06-.1.28-.08.36-.17.06-.01.23-.02.35 0 .05-.04.11-.04.16-.01.12.02.27.07.37.1.2.27.41.44.54.19.15.36.57.61.63.18.04.38-.1.54-.14.18-.04.4.01.57-.05.22-.08.13-.34.29-.45.1-.07.29-.01.41-.05.2-.07.34-.26.38-.46.02-.08.01-.14.04-.22.04-.1.11-.16.09-.29-.01-.06-.05-.12-.06-.19-.02-.11 0-.22 0-.34 0-.2.02-.38-.08-.55-.38-.69-1.24-.93-1.97-.79-.18.03-.29.13-.44.21-.17.09-.14.17-.32.22-.08.03-.22.12-.21.22 0 .12 0 .05.01.17-.02.01-.02 0-.03-.03M54.12-33.39c.02.07.01.13-.03.19-.05.1-.11.06-.17.13-.05.06-.1.28-.08.36-.17.06-.01.23-.02.35 0 .05-.04.11-.04.16-.01.12.02.27.07.37.1.2.27.41.44.54.19.15.36.57.61.63.18.04.38-.1.54-.14.18-.04.4.01.57-.05.22-.08.13-.34.29-.45.1-.07.29-.01.41-.05.2-.07.34-.26.38-.46.02-.08.01-.14.04-.22.04-.1.11-.16.09-.29-.01-.06-.05-.12-.06-.19-.02-.11 0-.22 0-.34 0-.2.02-.38-.08-.55-.38-.69-1.24-.93-1.97-.79-.18.03-.29.13-.44.21-.17.09-.14.17-.32.22-.08.03-.22.12-.21.22 0 .12 0 .05.01.17-.02.01-.02 0-.03-.03M46.46-33.39c.02.07.01.13-.03.19-.05.1-.11.06-.16.13-.05.06-.1.28-.08.36-.17.06-.01.23-.02.35 0 .05-.04.11-.05.16-.01.12.02.27.07.37.1.2.27.41.44.54.19.15.36.57.61.63.18.04.38-.1.54-.14.18-.04.4.01.57-.05.22-.08.13-.34.29-.45.1-.07.29-.01.41-.05.2-.07.34-.26.38-.46.02-.08.01-.14.04-.22.04-.1.11-.16.09-.29-.01-.06-.05-.12-.06-.19-.02-.11 0-.22 0-.34 0-.2.02-.38-.08-.55-.38-.69-1.24-.93-1.97-.79-.18.03-.29.13-.44.21-.17.09-.14.17-.32.22-.08.03-.22.12-.21.22 0 .12 0 .05.01.17-.02.01-.02 0-.03-.03M38.8-33.39c.02.07.01.13-.03.19-.05.1-.11.06-.17.13-.05.06-.1.28-.08.36-.17.06-.01.23-.02.35 0 .05-.04.11-.04.16-.01.12.02.27.07.37.1.2.27.41.44.54.19.15.36.57.61.63.18.04.38-.1.54-.14.18-.04.4.01.57-.05.22-.08.13-.34.29-.45.1-.07.29-.01.41-.05.2-.07.34-.26.38-.46.02-.08.01-.14.04-.22.04-.1.11-.16.09-.29-.01-.06-.05-.12-.06-.19-.02-.11 0-.22 0-.34 0-.2.02-.38-.08-.55-.38-.69-1.24-.93-1.97-.79-.18.03-.29.13-.44.21-.17.09-.14.17-.32.22-.08.03-.22.12-.21.22 0 .12 0 .05.01.17-.02.01-.02 0-.03-.03M31.14-33.39c.02.07.01.13-.03.19-.05.1-.11.06-.16.13-.05.06-.1.28-.08.36-.17.06-.01.23-.02.35 0 .05-.04.11-.05.16-.01.12.02.27.07.37.1.2.27.41.44.54.19.15.36.57.61.63.18.04.38-.1.54-.14.18-.04.4.01.57-.05.22-.08.13-.34.29-.45.1-.07.29-.01.41-.05.2-.07.34-.26.38-.46.02-.08.01-.14.04-.22.04-.1.11-.16.09-.29-.01-.06-.05-.12-.06-.19-.02-.11 0-.22 0-.34 0-.2.02-.38-.08-.55-.38-.69-1.24-.93-1.97-.79-.18.03-.29.13-.44.21-.17.09-.14.17-.32.22-.08.03-.22.12-.21.22 0 .12 0 .05.01.17-.02.01-.02 0-.03-.03M23.48-33.39c.02.07.01.13-.03.19-.05.1-.11.06-.17.13-.05.06-.1.28-.08.36-.17.06-.01.23-.02.35 0 .05-.04.11-.04.16-.01.12.02.27.07.37.1.2.27.41.44.54.19.15.36.57.61.63.18.04.38-.1.54-.14.18-.04.4.01.57-.05.22-.08.13-.34.29-.45.1-.07.29-.01.41-.05.2-.07.34-.26.38-.46.02-.08.01-.14.04-.22.04-.1.11-.16.09-.29-.01-.06-.05-.12-.06-.19-.02-.11 0-.22 0-.34 0-.2.02-.38-.08-.55-.38-.69-1.24-.93-1.97-.79-.18.03-.29.13-.44.21-.17.09-.14.17-.32.22-.08.03-.22.12-.21.22 0 .12 0 .05.01.17-.02.01-.02 0-.03-.03M15.82-33.39c.02.07.01.13-.03.19-.05.1-.11.06-.16.13-.05.06-.1.28-.08.36-.17.06-.01.23-.02.35 0 .05-.04.11-.05.16-.01.12.02.27.07.37.1.2.27.41.44.54.19.15.36.57.61.63.18.04.38-.1.54-.14.18-.04.4.01.57-.05.22-.08.13-.34.29-.45.1-.07.29-.01.41-.05.2-.07.34-.26.38-.46.02-.08.01-.14.04-.22.04-.1.11-.16.09-.29-.01-.06-.05-.12-.06-.19-.02-.11 0-.22 0-.34 0-.2.02-.38-.08-.55-.38-.69-1.24-.93-1.97-.79-.18.03-.29.13-.44.21-.17.09-.14.17-.32.22-.08.03-.22.12-.21.22 0 .12 0 .05.01.17-.02.01-.02 0-.03-.03M8.16-33.39c.02.07.01.13-.03.19-.05.1-.11.06-.17.13-.05.06-.1.28-.08.36-.17.06-.01.23-.02.35 0 .05-.04.11-.04.16-.01.12.02.27.07.37.1.2.27.41.44.54.19.15.36.57.61.63.18.04.38-.1.54-.14.18-.04.4.01.57-.05.22-.08.13-.34.29-.45.1-.07.29-.01.41-.05.2-.07.34-.26.38-.46.02-.08.01-.14.04-.22.04-.1.11-.16.09-.29-.01-.06-.05-.12-.06-.19-.02-.11 0-.22 0-.34 0-.2.02-.38-.08-.55-.38-.69-1.24-.93-1.97-.79-.18.03-.29.13-.44.21-.17.09-.14.17-.32.22-.08.03-.22.12-.21.22 0 .12 0 .05.01.17-.02.01-.02 0-.03-.03M.5-33.39c.02.07.01.13-.03.19-.05.1-.11.06-.17.13-.05.06-.1.28-.08.36-.17.06-.01.23-.02.35 0 .05-.04.11-.04.16-.01.12.02.27.07.37.1.2.27.41.44.54.19.15.36.57.61.63.18.04.38-.1.54-.14.18-.04.4.01.57-.05.22-.08.13-.34.29-.45.1-.07.29-.01.41-.05.2-.07.34-.26.38-.46.02-.08.01-.14.04-.22.04-.1.11-.16.09-.29-.01-.06-.05-.12-.06-.19-.02-.11 0-.22 0-.34 0-.2.02-.38-.08-.55-.38-.69-1.24-.93-1.97-.79-.18.03-.29.13-.44.21-.17.09-.14.17-.32.22-.08.03-.22.12-.21.22 0 .12 0 .05.01.17-.02.01-.02 0-.03-.03"/></g><g><path class="st2" d="M69.44-25.74c.02.07.01.13-.03.19-.05.1-.11.06-.17.13-.05.06-.1.28-.08.36-.16.06 0 .23-.01.35 0 .05-.04.11-.04.16-.01.12.02.27.07.37.1.2.27.41.43.54.19.15.36.57.61.63.18.04.38-.1.54-.14.18-.04.4.01.57-.05.22-.08.13-.34.29-.45.1-.07.29-.01.41-.05.2-.07.34-.26.38-.46.02-.08.01-.14.04-.22.04-.1.11-.16.09-.29-.01-.06-.05-.12-.06-.19-.02-.11 0-.22 0-.34 0-.2.02-.38-.08-.55-.38-.69-1.24-.93-1.97-.79-.18.03-.29.13-.44.21-.17.09-.14.17-.32.22-.08.03-.22.12-.21.22 0 .12 0 .05.01.17-.02.01-.02 0-.03-.03M61.78-25.74c.02.07.01.13-.03.19-.05.1-.11.06-.17.13-.05.06-.1.28-.08.36-.17.06-.01.23-.02.35 0 .05-.04.11-.04.16-.01.12.02.27.07.37.1.2.27.41.44.54.19.15.36.57.61.63.18.04.38-.1.54-.14.18-.04.4.01.57-.05.22-.08.13-.34.29-.45.1-.07.29-.01.41-.05.2-.07.34-.26.38-.46.02-.08.01-.14.04-.22.04-.1.11-.16.09-.29-.01-.06-.05-.12-.06-.19-.02-.11 0-.22 0-.34 0-.2.02-.38-.08-.55-.38-.69-1.24-.93-1.97-.79-.18.03-.29.13-.44.21-.17.09-.14.17-.32.22-.08.03-.22.12-.21.22 0 .12 0 .05.01.17-.02.01-.02 0-.03-.03M54.12-25.74c.02.07.01.13-.03.19-.05.1-.11.06-.17.13-.05.06-.1.28-.08.36-.17.06-.01.23-.02.35 0 .05-.04.11-.04.16-.01.12.02.27.07.37.1.2.27.41.44.54.19.15.36.57.61.63.18.04.38-.1.54-.14.18-.04.4.01.57-.05.22-.08.13-.34.29-.45.1-.07.29-.01.41-.05.2-.07.34-.26.38-.46.02-.08.01-.14.04-.22.04-.1.11-.16.09-.29-.01-.06-.05-.12-.06-.19-.02-.11 0-.22 0-.34 0-.2.02-.38-.08-.55-.38-.69-1.24-.93-1.97-.79-.18.03-.29.13-.44.21-.17.09-.14.17-.32.22-.08.03-.22.12-.21.22 0 .12 0 .05.01.17-.02.01-.02 0-.03-.03M46.46-25.74c.02.07.01.13-.03.19-.05.1-.11.06-.16.13-.05.06-.1.28-.08.36-.17.06-.01.23-.02.35 0 .05-.04.11-.05.16-.01.12.02.27.07.37.1.2.27.41.44.54.19.15.36.57.61.63.18.04.38-.1.54-.14.18-.04.4.01.57-.05.22-.08.13-.34.29-.45.1-.07.29-.01.41-.05.2-.07.34-.26.38-.46.02-.08.01-.14.04-.22.04-.1.11-.16.09-.29-.01-.06-.05-.12-.06-.19-.02-.11 0-.22 0-.34 0-.2.02-.38-.08-.55-.38-.69-1.24-.93-1.97-.79-.18.03-.29.13-.44.21-.17.09-.14.17-.32.22-.08.03-.22.12-.21.22 0 .12 0 .05.01.17-.02.01-.02 0-.03-.03M38.8-25.74c.02.07.01.13-.03.19-.05.1-.11.06-.17.13-.05.06-.1.28-.08.36-.17.06-.01.23-.02.35 0 .05-.04.11-.04.16-.01.12.02.27.07.37.1.2.27.41.44.54.19.15.36.57.61.63.18.04.38-.1.54-.14.18-.04.4.01.57-.05.22-.08.13-.34.29-.45.1-.07.29-.01.41-.05.2-.07.34-.26.38-.46.02-.08.01-.14.04-.22.04-.1.11-.16.09-.29-.01-.06-.05-.12-.06-.19-.02-.11 0-.22 0-.34 0-.2.02-.38-.08-.55-.38-.69-1.24-.93-1.97-.79-.18.03-.29.13-.44.21-.17.09-.14.17-.32.22-.08.03-.22.12-.21.22 0 .12 0 .05.01.17-.02.01-.02 0-.03-.03M31.14-25.74c.02.07.01.13-.03.19-.05.1-.11.06-.16.13-.05.06-.1.28-.08.36-.17.06-.01.23-.02.35 0 .05-.04.11-.05.16-.01.12.02.27.07.37.1.2.27.41.44.54.19.15.36.57.61.63.18.04.38-.1.54-.14.18-.04.4.01.57-.05.22-.08.13-.34.29-.45.1-.07.29-.01.41-.05.2-.07.34-.26.38-.46.02-.08.01-.14.04-.22.04-.1.11-.16.09-.29-.01-.06-.05-.12-.06-.19-.02-.11 0-.22 0-.34 0-.2.02-.38-.08-.55-.38-.69-1.24-.93-1.97-.79-.18.03-.29.13-.44.21-.17.09-.14.17-.32.22-.08.03-.22.12-.21.22 0 .12 0 .05.01.17-.02.01-.02 0-.03-.03M23.48-25.74c.02.07.01.13-.03.19-.05.1-.11.06-.17.13-.05.06-.1.28-.08.36-.17.06-.01.23-.02.35 0 .05-.04.11-.04.16-.01.12.02.27.07.37.1.2.27.41.44.54.19.15.36.57.61.63.18.04.38-.1.54-.14.18-.04.4.01.57-.05.22-.08.13-.34.29-.45.1-.07.29-.01.41-.05.2-.07.34-.26.38-.46.02-.08.01-.14.04-.22.04-.1.11-.16.09-.29-.01-.06-.05-.12-.06-.19-.02-.11 0-.22 0-.34 0-.2.02-.38-.08-.55-.38-.69-1.24-.93-1.97-.79-.18.03-.29.13-.44.21-.17.09-.14.17-.32.22-.08.03-.22.12-.21.22 0 .12 0 .05.01.17-.02.01-.02 0-.03-.03M15.82-25.74c.02.07.01.13-.03.19-.05.1-.11.06-.16.13-.05.06-.1.28-.08.36-.17.06-.01.23-.02.35 0 .05-.04.11-.05.16-.01.12.02.27.07.37.1.2.27.41.44.54.19.15.36.57.61.63.18.04.38-.1.54-.14.18-.04.4.01.57-.05.22-.08.13-.34.29-.45.1-.07.29-.01.41-.05.2-.07.34-.26.38-.46.02-.08.01-.14.04-.22.04-.1.11-.16.09-.29-.01-.06-.05-.12-.06-.19-.02-.11 0-.22 0-.34 0-.2.02-.38-.08-.55-.38-.69-1.24-.93-1.97-.79-.18.03-.29.13-.44.21-.17.09-.14.17-.32.22-.08.03-.22.12-.21.22 0 .12 0 .05.01.17-.02.01-.02 0-.03-.03M8.16-25.74c.02.07.01.13-.03.19-.05.1-.11.06-.17.13-.05.06-.1.28-.08.36-.16.06 0 .23-.01.35 0 .05-.04.11-.04.16-.01.12.02.27.07.37.1.2.27.41.44.54.19.15.36.57.61.63.18.04.38-.1.54-.14.18-.04.4.01.57-.05.22-.08.13-.34.29-.45.1-.07.29-.01.41-.05.2-.07.34-.26.38-.46.02-.08.01-.14.04-.22.04-.1.11-.16.09-.29-.01-.06-.05-.12-.06-.19-.02-.11 0-.22 0-.34 0-.2.02-.38-.08-.55-.38-.69-1.24-.93-1.97-.79-.18.03-.29.13-.44.21-.17.09-.14.17-.32.22-.08.03-.22.12-.21.22 0 .12 0 .05.01.17-.02.01-.02 0-.03-.03M.5-25.74c.02.07.01.13-.03.19-.05.1-.11.06-.17.13-.05.06-.1.28-.08.36-.16.06 0 .23-.01.35 0 .05-.04.11-.04.16-.01.12.02.27.07.37.1.2.27.41.44.54.19.15.36.57.61.63.18.04.38-.1.54-.14.18-.04.4.01.57-.05.22-.08.13-.34.29-.45.1-.07.29-.01.41-.05.2-.07.34-.26.38-.46.02-.08.01-.14.04-.22.04-.1.11-.16.09-.29-.01-.06-.05-.12-.06-.19-.02-.11 0-.22 0-.34 0-.2.02-.38-.08-.55-.38-.69-1.24-.93-1.97-.79-.18.03-.29.13-.44.21-.17.09-.14.17-.32.22-.08.03-.22.12-.21.22 0 .12 0 .05.01.17-.02.01-.02 0-.03-.03"/></g><g><path class="st2" d="M69.44-18.08c.02.07.01.13-.03.19-.05.1-.11.06-.17.13-.05.06-.1.28-.08.36-.17.06-.01.23-.02.35 0 .05-.04.11-.04.16-.01.12.02.27.07.37.1.2.27.41.43.54.19.15.36.57.61.63.18.04.38-.1.54-.14.18-.04.4.01.57-.05.22-.08.13-.34.29-.45.1-.07.29-.01.41-.05.2-.07.34-.26.38-.46.02-.08.01-.14.04-.22.04-.1.11-.16.09-.29-.01-.06-.05-.12-.06-.19-.02-.11 0-.22 0-.34 0-.2.02-.38-.08-.55-.38-.69-1.24-.93-1.97-.79-.18.03-.29.13-.44.21-.17.09-.14.17-.32.22-.08.03-.22.12-.21.22 0 .12 0 .05.01.17-.02.01-.02 0-.03-.03M61.78-18.08c.02.07.01.13-.03.19-.05.1-.11.06-.17.13-.05.06-.1.28-.08.36-.17.06-.01.23-.02.35 0 .05-.04.11-.04.16-.01.12.02.27.07.37.1.2.27.41.44.54.19.15.36.57.61.63.18.04.38-.1.54-.14.18-.04.4.01.57-.05.22-.08.13-.34.29-.45.1-.07.29-.01.41-.05.2-.07.34-.26.38-.46.02-.08.01-.14.04-.22.04-.1.11-.16.09-.29-.01-.06-.05-.12-.06-.19-.02-.11 0-.22 0-.34 0-.2.02-.38-.08-.55-.38-.69-1.24-.93-1.97-.79-.18.03-.29.13-.44.21-.17.09-.14.17-.32.22-.08.03-.22.12-.21.22 0 .12 0 .05.01.17-.02.01-.02 0-.03-.03M54.12-18.08c.02.07.01.13-.03.19-.05.1-.11.06-.17.13-.05.06-.1.28-.08.36-.17.06-.01.23-.02.35 0 .05-.04.11-.04.16-.01.12.02.27.07.37.1.2.27.41.44.54.19.15.36.57.61.63.18.04.38-.1.54-.14.18-.04.4.01.57-.05.22-.08.13-.34.29-.45.1-.07.29-.01.41-.05.2-.07.34-.26.38-.46.02-.08.01-.14.04-.22.04-.1.11-.16.09-.29-.01-.06-.05-.12-.06-.19-.02-.11 0-.22 0-.34 0-.2.02-.38-.08-.55-.38-.69-1.24-.93-1.97-.79-.18.03-.29.13-.44.21-.17.09-.14.17-.32.22-.08.03-.22.12-.21.22 0 .12 0 .05.01.17-.02.01-.02 0-.03-.03M46.46-18.08c.02.07.01.13-.03.19-.05.1-.11.06-.16.13-.05.06-.1.28-.08.36-.17.06-.01.23-.02.35 0 .05-.04.11-.05.16-.01.12.02.27.07.37.1.2.27.41.44.54.19.15.36.57.61.63.18.04.38-.1.54-.14.18-.04.4.01.57-.05.22-.08.13-.34.29-.45.1-.07.29-.01.41-.05.2-.07.34-.26.38-.46.02-.08.01-.14.04-.22.04-.1.11-.16.09-.29-.01-.06-.05-.12-.06-.19-.02-.11 0-.22 0-.34 0-.2.02-.38-.08-.55-.38-.69-1.24-.93-1.97-.79-.18.03-.29.13-.44.21-.17.09-.14.17-.32.22-.08.03-.22.12-.21.22 0 .12 0 .05.01.17-.02.01-.02 0-.03-.03M38.8-18.08c.02.07.01.13-.03.19-.05.1-.11.06-.17.13-.05.06-.1.28-.08.36-.17.06-.01.23-.02.35 0 .05-.04.11-.04.16-.01.12.02.27.07.37.1.2.27.41.44.54.19.15.36.57.61.63.18.04.38-.1.54-.14.18-.04.4.01.57-.05.22-.08.13-.34.29-.45.1-.07.29-.01.41-.05.2-.07.34-.26.38-.46.02-.08.01-.14.04-.22.04-.1.11-.16.09-.29-.01-.06-.05-.12-.06-.19-.02-.11 0-.22 0-.34 0-.2.02-.38-.08-.55-.38-.69-1.24-.93-1.97-.79-.18.03-.29.13-.44.21-.17.09-.14.17-.32.22-.08.03-.22.12-.21.22 0 .12 0 .05.01.17-.02.01-.02 0-.03-.03M31.14-18.08c.02.07.01.13-.03.19-.05.1-.11.06-.16.13-.05.06-.1.28-.08.36-.17.06-.01.23-.02.35 0 .05-.04.11-.05.16-.01.12.02.27.07.37.1.2.27.41.44.54.19.15.36.57.61.63.18.04.38-.1.54-.14.18-.04.4.01.57-.05.22-.08.13-.34.29-.45.1-.07.29-.01.41-.05.2-.07.34-.26.38-.46.02-.08.01-.14.04-.22.04-.1.11-.16.09-.29-.01-.06-.05-.12-.06-.19-.02-.11 0-.22 0-.34 0-.2.02-.38-.08-.55-.38-.69-1.24-.93-1.97-.79-.18.03-.29.13-.44.21-.17.09-.14.17-.32.22-.08.03-.22.12-.21.22 0 .12 0 .05.01.17-.02.01-.02 0-.03-.03M23.48-18.08c.02.07.01.13-.03.19-.05.1-.11.06-.17.13-.05.06-.1.28-.08.36-.17.06-.01.23-.02.35 0 .05-.04.11-.04.16-.01.12.02.27.07.37.1.2.27.41.44.54.19.15.36.57.61.63.18.04.38-.1.54-.14.18-.04.4.01.57-.05.22-.08.13-.34.29-.45.1-.07.29-.01.41-.05.2-.07.34-.26.38-.46.02-.08.01-.14.04-.22.04-.1.11-.16.09-.29-.01-.06-.05-.12-.06-.19-.02-.11 0-.22 0-.34 0-.2.02-.38-.08-.55-.38-.69-1.24-.93-1.97-.79-.18.03-.29.13-.44.21-.17.09-.14.17-.32.22-.08.03-.22.12-.21.22 0 .12 0 .05.01.17-.02.01-.02 0-.03-.03M15.82-18.08c.02.07.01.13-.03.19-.05.1-.11.06-.16.13-.05.06-.1.28-.08.36-.17.06-.01.23-.02.35 0 .05-.04.11-.05.16-.01.12.02.27.07.37.1.2.27.41.44.54.19.15.36.57.61.63.18.04.38-.1.54-.14.18-.04.4.01.57-.05.22-.08.13-.34.29-.45.1-.07.29-.01.41-.05.2-.07.34-.26.38-.46.02-.08.01-.14.04-.22.04-.1.11-.16.09-.29-.01-.06-.05-.12-.06-.19-.02-.11 0-.22 0-.34 0-.2.02-.38-.08-.55-.38-.69-1.24-.93-1.97-.79-.18.03-.29.13-.44.21-.17.09-.14.17-.32.22-.08.03-.22.12-.21.22 0 .12 0 .05.01.17-.02.01-.02 0-.03-.03M8.16-18.08c.02.07.01.13-.03.19-.05.1-.11.06-.17.13-.05.06-.1.28-.08.36-.17.06-.01.23-.02.35 0 .05-.04.11-.04.16-.01.12.02.27.07.37.1.2.27.41.44.54.19.15.36.57.61.63.18.04.38-.1.54-.14.18-.04.4.01.57-.05.22-.08.13-.34.29-.45.1-.07.29-.01.41-.05.2-.07.34-.26.38-.46.02-.08.01-.14.04-.22.04-.1.11-.16.09-.29-.01-.06-.05-.12-.06-.19-.02-.11 0-.22 0-.34 0-.2.02-.38-.08-.55-.38-.69-1.24-.93-1.97-.79-.18.03-.29.13-.44.21-.17.09-.14.17-.32.22-.08.03-.22.12-.21.22 0 .12 0 .05.01.17-.02.01-.02 0-.03-.03M.5-18.08c.02.07.01.13-.03.19-.05.1-.11.06-.17.13-.05.06-.1.28-.08.36-.17.06-.01.23-.02.35 0 .05-.04.11-.04.16-.01.12.02.27.07.37.1.2.27.41.44.54.19.15.36.57.61.63.18.04.38-.1.54-.14.18-.04.4.01.57-.05.22-.08.13-.34.29-.45.1-.07.29-.01.41-.05.2-.07.34-.26.38-.46.02-.08.01-.14.04-.22.04-.1.11-.16.09-.29-.01-.06-.05-.12-.06-.19-.02-.11 0-.22 0-.34 0-.2.02-.38-.08-.55-.38-.69-1.24-.93-1.97-.79-.18.03-.29.13-.44.21-.17.09-.14.17-.32.22-.08.03-.22.12-.21.22 0 .12 0 .05.01.17-.02.01-.02 0-.03-.03"/></g><g><path class="st2" d="M69.44-10.43c.02.07.01.13-.03.19-.05.1-.11.06-.17.13-.05.06-.1.28-.08.36-.16.06 0 .23-.01.35 0 .05-.04.11-.04.16-.01.12.02.27.07.37.1.2.27.41.43.54.19.15.36.57.61.63.18.04.38-.1.54-.14.18-.04.4.01.57-.05.22-.08.13-.34.29-.45.1-.07.29-.01.41-.05.2-.07.34-.26.38-.46.02-.08.01-.14.04-.22.04-.1.11-.16.09-.29-.01-.06-.05-.12-.06-.19-.02-.11 0-.22 0-.34 0-.2.02-.38-.08-.55-.38-.69-1.24-.93-1.97-.79-.18.03-.29.13-.44.21-.17.09-.14.17-.32.22-.08.03-.22.12-.21.22 0 .12 0 .05.01.17-.02.01-.02 0-.03-.03M61.78-10.43c.02.07.01.13-.03.19-.05.1-.11.06-.17.13-.05.06-.1.28-.08.36-.17.06-.01.23-.02.35 0 .05-.04.11-.04.16-.01.12.02.27.07.37.1.2.27.41.44.54.19.15.36.57.61.63.18.04.38-.1.54-.14.18-.04.4.01.57-.05.22-.08.13-.34.29-.45.1-.07.29-.01.41-.05.2-.07.34-.26.38-.46.02-.08.01-.14.04-.22.04-.1.11-.16.09-.29-.01-.06-.05-.12-.06-.19-.02-.11 0-.22 0-.34 0-.2.02-.38-.08-.55-.38-.69-1.24-.93-1.97-.79-.18.03-.29.13-.44.21-.17.09-.14.17-.32.22-.08.03-.22.12-.21.22 0 .12 0 .05.01.17-.02.01-.02 0-.03-.03M54.12-10.43c.02.07.01.13-.03.19-.05.1-.11.06-.17.13-.05.06-.1.28-.08.36-.17.06-.01.23-.02.35 0 .05-.04.11-.04.16-.01.12.02.27.07.37.1.2.27.41.44.54.19.15.36.57.61.63.18.04.38-.1.54-.14.18-.04.4.01.57-.05.22-.08.13-.34.29-.45.1-.07.29-.01.41-.05.2-.07.34-.26.38-.46.01-.08 0-.15.03-.22.04-.1.11-.16.09-.29-.01-.06-.05-.12-.06-.19-.02-.11 0-.22 0-.34 0-.2.02-.38-.08-.55-.38-.69-1.24-.93-1.97-.79-.18.03-.29.13-.44.21-.17.09-.14.17-.32.22-.08.03-.22.12-.21.22 0 .12 0 .05.01.17-.02.01-.02 0-.03-.03M46.46-10.43c.02.07.01.13-.03.19-.05.1-.11.06-.16.13-.05.06-.1.28-.08.36-.17.06-.01.23-.02.35 0 .05-.04.11-.05.16-.01.12.02.27.07.37.1.2.27.41.44.54.19.15.36.57.61.63.18.04.38-.1.54-.14.18-.04.4.01.57-.05.22-.08.13-.34.29-.45.1-.07.29-.01.41-.05.2-.07.34-.26.38-.46.02-.08.01-.14.04-.22.04-.1.11-.16.09-.29-.01-.06-.05-.12-.06-.19-.02-.11 0-.22 0-.34 0-.2.02-.38-.08-.55-.38-.69-1.24-.93-1.97-.79-.18.03-.29.13-.44.21-.17.09-.14.17-.32.22-.08.03-.22.12-.21.22 0 .12 0 .05.01.17-.02.01-.02 0-.03-.03M38.8-10.43c.02.07.01.13-.03.19-.05.1-.11.06-.17.13-.05.06-.1.28-.08.36-.17.06-.01.23-.02.35 0 .05-.04.11-.04.16-.01.12.02.27.07.37.1.2.27.41.44.54.19.15.36.57.61.63.18.04.38-.1.54-.14.18-.04.4.01.57-.05.22-.08.13-.34.29-.45.1-.07.29-.01.41-.05.2-.07.34-.26.38-.46.01-.08 0-.15.03-.22.04-.1.11-.16.09-.29-.01-.06-.05-.12-.06-.19-.02-.11 0-.22 0-.34 0-.2.02-.38-.08-.55-.38-.69-1.24-.93-1.97-.79-.18.03-.29.13-.44.21-.17.09-.14.17-.32.22-.08.03-.22.12-.21.22 0 .12 0 .05.01.17-.02.01-.02 0-.03-.03M31.14-10.43c.02.07.01.13-.03.19-.05.1-.11.06-.16.13-.05.06-.1.28-.08.36-.17.06-.01.23-.02.35 0 .05-.04.11-.05.16-.01.12.02.27.07.37.1.2.27.41.44.54.19.15.36.57.61.63.18.04.38-.1.54-.14.18-.04.4.01.57-.05.22-.08.13-.34.29-.45.1-.07.29-.01.41-.05.2-.07.34-.26.38-.46.02-.08.01-.14.04-.22.04-.1.11-.16.09-.29-.01-.06-.05-.12-.06-.19-.02-.11 0-.22 0-.34 0-.2.02-.38-.08-.55-.38-.69-1.24-.93-1.97-.79-.18.03-.29.13-.44.21-.17.09-.14.17-.32.22-.08.03-.22.12-.21.22 0 .12 0 .05.01.17-.02.01-.02 0-.03-.03M23.48-10.43c.02.07.01.13-.03.19-.05.1-.11.06-.17.13-.05.06-.1.28-.08.36-.17.06-.01.23-.02.35 0 .05-.04.11-.04.16-.01.12.02.27.07.37.1.2.27.41.44.54.19.15.36.57.61.63.18.04.38-.1.54-.14.18-.04.4.01.57-.05.22-.08.13-.34.29-.45.1-.07.29-.01.41-.05.2-.07.34-.26.38-.46.02-.08.01-.14.04-.22.04-.1.11-.16.09-.29-.01-.06-.05-.12-.06-.19-.02-.11 0-.22 0-.34 0-.2.02-.38-.08-.55-.38-.69-1.24-.93-1.97-.79-.18.03-.29.13-.44.21-.17.09-.14.17-.32.22-.08.03-.22.12-.21.22 0 .12 0 .05.01.17-.02.01-.02 0-.03-.03M15.82-10.43c.02.07.01.13-.03.19-.05.1-.11.06-.16.13-.05.06-.1.28-.08.36-.17.06-.01.23-.02.35 0 .05-.04.11-.05.16-.01.12.02.27.07.37.1.2.27.41.44.54.19.15.36.57.61.63.18.04.38-.1.54-.14.18-.04.4.01.57-.05.22-.08.13-.34.29-.45.1-.07.29-.01.41-.05.2-.07.34-.26.38-.46.01-.08 0-.15.03-.22.04-.1.11-.16.09-.29-.01-.06-.05-.12-.06-.19-.02-.11 0-.22 0-.34 0-.2.02-.38-.08-.55-.38-.69-1.24-.93-1.97-.79-.18.03-.29.13-.44.21-.17.09-.14.17-.32.22-.08.03-.22.12-.21.22 0 .12 0 .05.01.17-.02.01-.02 0-.03-.03M8.16-10.43c.02.07.01.13-.03.19-.05.1-.11.06-.17.13-.05.06-.1.28-.08.36-.16.06 0 .23-.01.35 0 .05-.04.11-.04.16-.01.12.01.27.06.37.1.2.27.41.44.54.19.15.36.57.61.63.18.04.38-.1.54-.14.18-.04.4.01.57-.05.22-.08.13-.34.29-.45.1-.07.29-.01.41-.05.2-.07.34-.26.38-.46.02-.08.01-.14.04-.22.04-.1.11-.16.09-.29-.01-.06-.05-.12-.06-.19-.02-.11 0-.22 0-.34 0-.2.02-.38-.08-.55-.38-.69-1.24-.93-1.97-.79-.18.03-.29.13-.44.21-.17.09-.14.17-.32.22-.08.03-.22.12-.21.22 0 .12 0 .05.01.17-.02.01-.02 0-.03-.03M.5-10.43c.02.07.01.13-.03.19-.05.1-.11.06-.17.13-.05.06-.1.28-.08.36-.16.06 0 .23-.01.35 0 .05-.04.11-.04.16-.01.12.01.27.06.37.1.2.27.41.44.54.19.15.36.57.61.63.18.04.38-.1.54-.14.18-.04.4.01.57-.05.22-.08.13-.34.29-.45.1-.07.29-.01.41-.05.2-.07.34-.26.38-.46.01-.08 0-.15.03-.22.04-.1.11-.16.09-.29-.01-.07-.05-.12-.06-.19-.02-.11 0-.22 0-.34 0-.2.02-.38-.08-.55-.38-.69-1.24-.93-1.97-.79-.18.03-.29.13-.44.21-.17.09-.14.17-.32.22-.08.03-.22.12-.21.22 0 .12 0 .05.01.17-.02.01-.02 0-.03-.03"/></g></g><g><path class="st2" d="M69.44-2.78c.02.07.01.13-.03.19-.05.1-.11.06-.17.13-.05.06-.1.28-.08.36-.16.06 0 .23-.01.35 0 .05-.04.11-.04.16-.01.12.02.27.07.37.1.2.27.41.43.54.19.15.36.57.61.63.18.05.38-.1.54-.13.18-.04.4.01.57-.05.22-.08.13-.34.29-.45.1-.07.29-.01.41-.05.2-.08.34-.27.37-.47.02-.08.01-.14.04-.22.04-.1.11-.16.09-.29-.01-.06-.05-.12-.06-.19-.02-.11 0-.22 0-.34 0-.2.02-.38-.08-.55-.38-.69-1.24-.93-1.97-.79-.18.03-.29.13-.44.21-.17.09-.14.17-.32.22-.08.03-.22.12-.21.22 0 .12 0 .05.01.17-.02.01-.02 0-.03-.03M61.78-2.78c.02.07.01.13-.03.19-.05.1-.11.06-.17.13-.05.06-.1.28-.08.36-.17.06-.01.23-.02.35 0 .05-.04.11-.04.16-.01.12.02.27.07.37.1.2.27.41.44.54.19.15.36.57.61.63.18.04.38-.1.54-.14.18-.04.4.01.57-.05.22-.08.13-.34.29-.45.1-.07.29-.01.41-.05.2-.07.34-.26.38-.46.02-.08.01-.14.04-.22.04-.1.11-.16.09-.29-.01-.06-.05-.12-.06-.19-.02-.11 0-.22 0-.34 0-.2.02-.38-.08-.55-.38-.69-1.24-.93-1.97-.79-.18.03-.29.13-.44.21-.19.09-.15.17-.33.23-.08.03-.22.12-.21.22 0 .12 0 .05.01.17-.02.01-.02 0-.03-.03M54.12-2.78c.02.07.01.13-.03.19-.05.1-.11.06-.17.13-.05.06-.1.28-.08.36-.17.06-.01.23-.02.35 0 .05-.04.11-.04.16-.01.12.02.27.07.37.1.2.27.41.44.54.19.15.36.57.61.63.18.04.38-.1.54-.14.18-.04.4.01.57-.05.22-.08.13-.34.29-.45.1-.07.29-.01.41-.05.2-.07.34-.26.38-.46.02-.08.01-.14.04-.22.04-.1.11-.16.09-.29-.01-.06-.05-.12-.06-.19-.02-.11 0-.22 0-.34 0-.2.02-.38-.08-.55-.38-.69-1.24-.93-1.97-.79-.18.03-.29.13-.44.21-.17.09-.14.17-.32.22-.08.03-.22.12-.21.22 0 .12 0 .05.01.17-.02.01-.02 0-.03-.03M46.46-2.78c.02.07.01.13-.03.19-.05.1-.11.06-.16.13-.05.06-.1.28-.08.36-.17.06-.01.23-.02.35 0 .05-.04.11-.05.16-.01.12.02.27.07.37.1.2.27.41.44.54.19.16.37.58.61.64.18.04.38-.1.54-.14.18-.04.4.01.57-.05.22-.08.13-.34.29-.45.1-.07.29-.01.41-.05.2-.07.34-.26.38-.46.02-.08.01-.14.04-.22.04-.1.11-.16.09-.29-.01-.06-.05-.12-.06-.19-.02-.11 0-.22 0-.34 0-.2.02-.38-.08-.55-.38-.69-1.24-.93-1.97-.79-.18.03-.29.13-.44.21-.17.09-.14.17-.32.22-.08.03-.22.12-.21.22 0 .12 0 .05.01.17-.02.01-.02 0-.03-.03M38.8-2.78c.02.07.01.13-.03.19-.05.1-.11.06-.17.13-.05.06-.1.28-.08.36-.17.06-.01.23-.02.35 0 .05-.04.11-.04.16-.01.12.02.27.07.37.1.2.27.41.44.54.19.15.36.57.61.63.18.04.38-.1.54-.14.18-.04.4.01.57-.05.22-.08.13-.34.29-.45.1-.07.29-.01.41-.05.2-.07.34-.26.38-.46.02-.08.01-.14.04-.22.04-.1.11-.16.09-.29-.01-.06-.05-.12-.06-.19-.02-.11 0-.22 0-.34 0-.2.02-.38-.08-.55-.38-.69-1.24-.93-1.97-.79-.18.03-.29.13-.44.21-.17.09-.14.17-.32.22-.08.03-.22.12-.21.22 0 .12 0 .05.01.17-.02.01-.02 0-.03-.03M31.14-2.78c.02.07.01.13-.03.19-.05.1-.11.06-.16.13-.05.06-.1.28-.08.36-.17.06-.01.23-.02.35 0 .05-.04.11-.05.16-.01.12.02.27.07.37.1.2.27.41.44.54.19.15.36.57.61.63.18.05.38-.1.54-.13.18-.04.4.01.57-.05.22-.08.13-.34.29-.45.1-.07.29-.01.41-.05.2-.08.34-.27.37-.47.02-.08.01-.14.04-.22.04-.1.11-.16.09-.29-.01-.06-.05-.12-.06-.19-.02-.11 0-.22 0-.34 0-.2.02-.38-.08-.55-.38-.69-1.24-.93-1.97-.79-.18.03-.29.13-.44.21-.17.09-.14.17-.32.22-.08.03-.22.12-.21.22 0 .12 0 .05.01.17-.02.01-.02 0-.03-.03M23.48-2.78c.02.07.01.13-.03.19-.05.1-.11.06-.17.13-.05.06-.1.28-.08.36-.17.06-.01.23-.02.35 0 .05-.04.11-.04.16-.01.12.02.27.07.37.1.2.27.41.44.54.19.15.36.57.61.63.18.04.38-.1.54-.14.18-.04.4.01.57-.05.22-.08.13-.34.29-.45.1-.07.29-.01.41-.05.2-.07.34-.26.38-.46.02-.08.01-.14.04-.22.04-.1.11-.16.09-.29-.01-.06-.05-.12-.06-.19-.02-.11 0-.22 0-.34 0-.2.02-.38-.08-.55-.38-.69-1.24-.93-1.97-.79-.18.03-.29.13-.44.21-.17.09-.14.17-.32.22-.08.03-.22.12-.21.22 0 .12 0 .05.01.17-.02.01-.02 0-.03-.03M15.82-2.78c.02.07.01.13-.03.19-.05.1-.11.06-.16.13-.05.06-.1.28-.08.36-.17.06-.01.23-.02.35 0 .05-.04.11-.05.16-.01.12.02.27.07.37.1.2.27.41.44.54.19.15.36.57.61.63.18.04.38-.1.54-.14.18-.04.4.01.57-.05.22-.08.13-.34.29-.45.1-.07.29-.01.41-.05.2-.07.34-.26.38-.46.02-.08.01-.14.04-.22.04-.1.11-.16.09-.29-.01-.06-.05-.12-.06-.19-.02-.11 0-.22 0-.34 0-.2.02-.38-.08-.55-.38-.69-1.24-.93-1.97-.79-.18.03-.29.13-.44.21-.17.09-.14.17-.32.22-.08.03-.22.12-.21.22 0 .12 0 .05.01.17-.02.01-.02 0-.03-.03M8.16-2.78c.02.07.01.13-.03.19-.05.1-.11.06-.17.13-.05.06-.09.28-.07.36-.17.06-.01.23-.02.35 0 .05-.04.11-.04.16-.01.12.01.27.06.37.1.2.27.41.44.54.19.16.36.58.61.64.17.04.38-.11.54-.14.18-.04.4.01.57-.05.22-.08.13-.34.29-.45.1-.07.29-.01.41-.05.2-.07.34-.26.38-.46.02-.08.01-.14.04-.22.04-.1.11-.16.09-.29-.01-.06-.05-.12-.06-.19-.02-.11 0-.22 0-.34 0-.2.02-.38-.08-.55-.38-.69-1.24-.93-1.97-.79-.2.03-.3.12-.46.2-.17.09-.14.17-.32.23-.08.02-.21.12-.21.22 0 .12 0 .05.01.17-.02.01-.02 0-.03-.03M.5-2.78c.01.07 0 .13-.03.19-.05.1-.11.06-.17.13-.05.06-.09.28-.07.36-.17.06-.02.23-.02.35 0 .05-.04.11-.04.16-.02.12.01.27.06.37.1.2.27.41.44.54.19.16.36.58.61.64.17.04.38-.11.54-.14.18-.05.4.01.57-.06.22-.08.13-.34.29-.45.1-.07.29-.01.41-.05.19-.07.33-.26.37-.46.02-.08.01-.14.04-.22.04-.1.11-.16.09-.29-.01-.06-.05-.12-.06-.19-.02-.11 0-.22 0-.34 0-.2.02-.38-.08-.55-.38-.68-1.24-.92-1.98-.78-.18.03-.28.12-.44.2-.17.09-.14.17-.32.23-.08.02-.21.12-.21.22 0 .12 0 .05.01.17-.02.01-.02 0-.03-.03"/></g></pattern><g class="st3"><g class="st3"><defs><path id="SVGID_1_" class="st3" d="m135.73 110.41-28.76-2.86c6.78-5.35 13.88-10.93 20.18-15.89l28.76 2.86c-6.3 4.96-13.39 10.54-20.18 15.89z"/></defs><clipPath id="SVGID_2_"><use xlink:href="#SVGID_1_" style="overflow:visible"/></clipPath><path class="st5" d="m135.73 110.41-28.76-2.86c6.78-5.35 13.88-10.93 20.18-15.89l28.76 2.86c-6.3 4.96-13.39 10.54-20.18 15.89" style="clip-path:url(#SVGID_2_);enable-background:new"/></g><g class="st3"><defs><path id="SVGID_3_" class="st3" d="m155.91 94.52-28.76-2.86c-8.04-9.96-15.67-19.41-22.53-27.9l28.76 2.86c6.85 8.5 14.49 17.94 22.53 27.9z"/></defs><clipPath id="SVGID_4_"><use xlink:href="#SVGID_3_" style="overflow:visible"/></clipPath><path class="st7" d="m155.91 94.52-28.76-2.86c-8.04-9.96-15.67-19.41-22.53-27.9l28.76 2.86c6.85 8.5 14.49 17.94 22.53 27.9" style="clip-path:url(#SVGID_4_);enable-background:new"/></g><g class="st3"><defs><path id="SVGID_5_" class="st3" d="m122.1 110.6-28.76-2.86c2.56-21.7-.06-42.07-8.77-60.73-2.86-6.12-6.45-11.69-9.89-17.82l28.76 2.86c3.44 6.13 7.04 11.71 9.89 17.82 8.72 18.66 11.33 39.03 8.77 60.73z"/></defs><clipPath id="SVGID_6_"><use xlink:href="#SVGID_5_" style="overflow:visible"/></clipPath><g style="clip-path:url(#SVGID_6_);enable-background:new"><path class="st9" d="m122.1 110.6-28.76-2.86c.21-1.8.39-3.59.53-5.37l28.76 2.86c-.14 1.77-.31 3.56-.53 5.37"/><path d="m122.63 105.22-28.76-2.86c.15-1.94.26-3.87.33-5.79l28.76 2.86c-.06 1.92-.17 3.85-.33 5.79" style="fill:#a158ff"/><path d="M122.96 99.43 94.2 96.57c.07-2.04.09-4.07.06-6.08l28.76 2.86c.04 2.01.01 4.04-.06 6.08" style="fill:#a056ff"/><path d="m123.03 93.35-28.76-2.86c-.03-2.25-.13-4.48-.28-6.69l28.76 2.86c.15 2.21.25 4.44.28 6.69" style="fill:#9f55ff"/><path d="M122.74 86.66 93.99 83.8c-.19-2.72-.48-5.42-.87-8.08l28.76 2.86c.38 2.66.67 5.36.86 8.08" style="fill:#9e54ff"/><path class="st7" d="m121.87 78.58-28.76-2.86c-1.45-9.95-4.26-19.54-8.54-28.72-2.86-6.12-6.45-11.69-9.89-17.82l28.76 2.86c3.44 6.13 7.04 11.71 9.89 17.82 4.29 9.18 7.1 18.76 8.54 28.72"/></g></g><g class="st3"><defs><path id="SVGID_7_" class="st3" d="m92.96 119.03-28.76-2.86c3.45.34 6.96.42 10.52.23 4.39-.23 8.87-.86 13.43-1.89 3.58-.81 4.72-2.88 5.18-6.78l28.76 2.86c-.46 3.9-1.6 5.97-5.18 6.78-4.57 1.03-9.04 1.66-13.43 1.89-3.56.19-7.07.12-10.52-.23z"/></defs><clipPath id="SVGID_8_"><use xlink:href="#SVGID_7_" style="overflow:visible"/></clipPath><g style="clip-path:url(#SVGID_8_);enable-background:new"><path class="st15" d="m92.96 119.03-28.76-2.86c1.06.1 2.12.18 3.18.24l28.76 2.86c-1.06-.05-2.12-.13-3.18-.24"/><path class="st16" d="m96.15 119.27-28.76-2.86c1.55.08 3.1.11 4.67.08l28.76 2.86c-1.57.03-3.13 0-4.67-.08"/><path class="st17" d="m100.82 119.36-28.76-2.86c.89-.01 1.78-.04 2.67-.09.93-.05 1.86-.12 2.8-.2l28.76 2.86c-.94.08-1.87.15-2.8.2-.9.04-1.79.07-2.67.09"/><path class="st18" d="m106.28 119.07-28.76-2.86c2.26-.2 4.55-.51 6.86-.93l28.76 2.86c-2.31.41-4.59.72-6.86.93"/><path class="st19" d="m113.15 118.14-28.76-2.86a90.3 90.3 0 0 0 3.78-.76c.24-.05.47-.11.69-.18l28.76 2.86c-.22.07-.45.13-.69.18a90.3 90.3 0 0 1-3.78.76"/><path class="st5" d="m117.62 117.19-28.76-2.86c.87-.26 1.58-.62 2.16-1.08l28.76 2.86c-.58.47-1.29.82-2.16 1.08"/><path class="st19" d="m119.77 116.11-28.76-2.86c.13-.1.25-.21.36-.32l28.76 2.86c-.11.11-.23.22-.36.32"/><path class="st18" d="m120.13 115.79-28.76-2.86c.08-.08.16-.16.23-.24l28.76 2.86c-.07.08-.15.16-.23.24"/><path class="st17" d="m120.36 115.55-28.76-2.86c.06-.07.12-.14.18-.22l28.76 2.86c-.05.08-.11.15-.18.22"/><path class="st16" d="m120.54 115.33-28.76-2.86c.05-.07.11-.14.16-.21l28.76 2.86c-.05.07-.1.14-.16.21"/><path class="st15" d="m120.7 115.12-28.76-2.86c.05-.07.09-.13.13-.2l28.76 2.86c-.04.07-.08.14-.13.2"/><path d="m120.84 114.92-28.76-2.86c.04-.07.08-.13.12-.2l28.76 2.86c-.04.07-.08.13-.12.2" style="fill:#aa68ff"/><path d="m120.96 114.72-28.76-2.86c.04-.07.08-.14.11-.21l28.76 2.86c-.03.07-.07.14-.11.21" style="fill:#a967ff"/><path d="m121.07 114.51-28.76-2.86c.04-.07.07-.14.11-.22l28.76 2.86c-.03.08-.07.15-.11.22" style="fill:#a966ff"/><path d="m121.18 114.3-28.76-2.86c.04-.07.07-.15.1-.22l28.76 2.86c-.03.07-.06.14-.1.22" style="fill:#a865ff"/><path d="m121.28 114.07-28.76-2.86c.03-.08.07-.16.1-.25l28.76 2.86c-.03.09-.06.17-.1.25" style="fill:#a763ff"/><path d="m121.38 113.83-28.76-2.86c.03-.09.07-.17.1-.26l28.76 2.86c-.03.08-.06.17-.1.26" style="fill:#a762ff"/><path d="m121.48 113.56-28.76-2.86c.03-.1.07-.19.1-.29l28.76 2.86c-.03.1-.06.2-.1.29" style="fill:#a661ff"/><path d="m121.58 113.27-28.76-2.86c.03-.11.07-.22.1-.34l28.76 2.86c-.03.12-.07.23-.1.34" style="fill:#a55fff"/><path d="m121.68 112.93-28.76-2.86c.03-.13.07-.26.1-.39l28.76 2.86c-.03.13-.07.26-.1.39" style="fill:#a45eff"/><path d="m121.78 112.54-28.76-2.86c.04-.15.07-.31.1-.47l28.76 2.86c-.03.16-.07.31-.1.47" style="fill:#a45dff"/><path d="m121.88 112.06-28.76-2.86c.04-.2.07-.4.11-.61l28.76 2.86c-.04.21-.07.42-.11.61" style="fill:#a35bff"/><path d="m121.99 111.46-28.76-2.86c.04-.27.08-.54.11-.82l28.76 2.86c-.03.28-.07.55-.11.82" style="fill:#a25aff"/><path class="st9" d="m122.1 110.63-28.76-2.86v-.04l28.76 2.86v.04"/></g></g><g class="st3"><defs><path id="SVGID_9_" class="st3" d="M32.75 99.4 3.99 96.54C27.53 67.21 50.84 38.17 74.44 8.76l28.76 2.86C79.6 41.03 56.28 70.07 32.75 99.4z"/></defs><clipPath id="SVGID_10_"><use xlink:href="#SVGID_9_" style="overflow:visible"/></clipPath><path class="st17" d="M32.75 99.4 3.99 96.54C27.53 67.21 50.84 38.17 74.44 8.76l28.76 2.86C79.6 41.03 56.28 70.07 32.75 99.4" style="clip-path:url(#SVGID_10_);enable-background:new"/></g><g class="st3"><defs><path id="SVGID_11_" class="st3" d="m91.44 133.44-28.76-2.86c-21.79-2.16-42.84-13.39-58.69-34.04l28.76 2.86c15.86 20.65 36.9 31.88 58.69 34.04z"/></defs><clipPath id="SVGID_12_"><use xlink:href="#SVGID_11_" style="overflow:visible"/></clipPath><path class="st7" d="m91.44 133.44-28.76-2.86c-21.79-2.16-42.84-13.39-58.69-34.04l28.76 2.86c15.86 20.65 36.9 31.88 58.69 34.04" style="clip-path:url(#SVGID_12_);enable-background:new"/></g><path d="M103.2 11.62c23.78 26.98 47.3 53.67 70.8 80.34-18.41 26.27-44.42 40.39-70.51 41.76-25.94 1.36-51.97-9.88-70.74-34.32C56.28 70.07 79.6 41.03 103.2 11.62zm18.9 98.98c2.56-21.7-.06-42.07-8.77-60.73-2.86-6.12-6.45-11.69-9.89-17.82-18.23 22.72-35.72 44.5-53.45 66.59 16.34 14.82 34.07 21.66 53.49 20.64 4.39-.23 8.87-.86 13.43-1.89 3.6-.82 4.73-2.89 5.19-6.79m13.63-.19c6.78-5.35 13.88-10.93 20.18-15.89-8.04-9.96-15.67-19.41-22.53-27.9.73 13.75 1.52 28.29 2.35 43.79" style="fill:#f1e7ff"/></g></svg>