<svg width="615" height="506" viewBox="0 0 615 506" fill="none" xmlns="http://www.w3.org/2000/svg">
<g opacity="0.5">
<path d="M6.24972 306.698C12.9777 303.865 18.8768 301.318 24.8166 298.89C32.5385 295.737 40.3071 292.684 48.0491 289.575C50.4127 288.626 51.3937 287.101 50.8704 284.371C49.774 278.671 48.6768 272.939 48.1462 267.169C47.052 255.28 47.1813 255.366 35.6434 252.616C30.608 251.416 25.6477 249.852 20.7305 248.216C17.3089 247.078 17.2534 246.263 19.8573 243.722C31.3288 232.56 42.6893 221.272 54.3499 210.31C57.1994 207.63 57.9532 204.414 58.7559 201.095C60.7823 192.683 62.5076 184.195 64.4764 175.765C67.2397 163.94 70.1697 152.157 72.9332 140.338C74.8788 132.017 76.6449 123.649 78.5519 115.316C80.4186 107.182 82.2659 99.0351 84.3632 90.9594C84.8758 88.9854 86.214 87.1723 87.4008 85.4325C95.2071 73.9593 102.994 62.4738 111.014 51.1554C111.979 49.7964 114.325 48.6184 115.984 48.6787C134.643 49.3846 153.283 50.4286 171.937 51.2174C183.172 51.6923 194.419 52.1606 205.655 52.1193C223.558 52.0509 241.459 51.6064 259.354 51.1303C260.691 51.0955 262.443 49.8344 263.246 48.6318C272.06 35.4035 280.713 22.0767 289.424 8.78051C291.288 5.93639 291.741 5.965 293.941 8.68445C304.283 21.448 314.669 34.1723 324.967 46.9622C333.936 58.0978 343.025 69.1543 351.649 80.5584C355.342 85.4388 360.469 87.6625 365.496 90.2645C371.509 93.3745 377.41 96.9076 383.766 99.0924C390.046 101.253 396.572 102.396 403.35 98.9436C417.923 91.5205 432.814 84.7344 447.566 77.6581C451.863 75.5972 456.059 73.3218 460.424 71.4252C461.63 70.9023 463.529 70.9002 464.689 71.4938C490.317 84.5887 515.895 97.7739 541.462 110.991C557.335 119.201 573.166 127.488 589.027 135.724C594.003 138.307 598.991 140.872 604.003 143.372C606.348 144.546 607.268 146.165 607.238 148.925C606.888 179.82 606.691 210.712 606.417 241.612C606.185 267.832 605.881 294.048 605.636 320.268C605.591 325.043 605.406 329.84 605.775 334.594C606.03 337.89 604.564 339.712 602.1 341.301C582.451 353.994 562.79 366.682 543.174 379.433C519.843 394.601 496.38 409.575 473.385 425.228C467.366 429.327 462.976 429.101 456.941 425.877C439.966 416.805 422.751 408.152 405.39 399.834C402.46 398.43 398.306 399.124 394.789 399.511C386.058 400.468 377.381 401.882 368.666 402.979C362.093 403.807 356.418 406.076 351.274 410.558C341.855 418.77 332.131 426.67 322.111 434.13C318.678 436.683 313.987 437.554 309.845 439.127C298.483 443.429 287.305 448.338 275.689 451.785C263.287 455.465 253.766 463.354 243.796 470.775C230.287 480.834 216.791 490.911 203.328 501.032C201.841 502.153 200.619 502.25 199.012 501.289C172.458 485.435 145.881 469.626 119.303 453.811C111.208 448.992 103.057 444.258 95.0288 439.317C93.7306 438.516 92.5192 436.999 92.0296 435.556C86.6836 419.754 81.4704 403.899 76.27 388.049C74.5319 382.745 73.0404 377.353 71.1948 372.089C70.5502 370.254 69.4963 368.352 68.1165 367.011C49.3391 348.735 30.468 330.55 11.6344 312.333C9.97484 310.724 8.44676 309.003 6.24972 306.698ZM131.297 398.001C132.119 394.383 132.818 391.557 133.407 388.702C134.817 381.877 136.125 375.036 137.58 368.217C139.522 359.125 141.63 350.074 143.54 340.976C145.45 331.878 147.123 322.728 149.039 313.636C150.939 304.653 153.043 295.717 154.994 286.752C155.546 284.204 154.607 283.497 152.055 284.023C147.194 285.025 142.326 286.002 137.429 286.795C129.286 288.115 121.105 289.188 112.969 290.533C105.048 291.843 97.1794 293.476 89.2585 294.766C77.7616 296.643 66.2346 298.303 54.7304 300.134C42.1018 302.143 29.481 304.222 16.8608 306.326C15.1395 306.611 13.4627 307.188 10.7623 307.89C51.2818 338.183 91.0436 367.913 131.297 398.001ZM263.342 325.578C253.371 321.577 244.311 317.876 235.203 314.296C219.983 308.316 204.726 302.439 189.506 296.471C179.582 292.584 169.676 288.645 159.794 284.662C158.148 283.996 157.356 284.49 157.025 286.046C155.263 294.306 153.521 302.565 151.797 310.837C150.224 318.379 148.695 325.932 147.122 333.481C145.219 342.585 143.309 351.689 141.374 360.793C139.444 369.866 137.451 378.928 135.54 388.006C134.909 390.996 134.438 394.021 133.748 397.835C177.275 373.555 219.953 349.766 263.342 325.578ZM266.116 420.948C266.064 418.495 266.007 416.419 265.975 414.348C265.691 392.269 265.4 370.19 265.121 348.11C265.046 342.171 264.996 336.232 264.953 330.286C264.936 328.304 264.336 327.355 262.284 328.597C261.743 328.927 261.143 329.163 260.588 329.474C234.668 343.99 208.768 358.538 182.828 373.023C168.788 380.862 154.674 388.581 140.613 396.376C139.24 397.138 137.973 398.076 136.659 398.933C136.753 399.192 136.848 399.451 136.943 399.717C179.766 406.761 222.589 413.798 266.116 420.948ZM256.014 433.554C211.271 427.959 167.621 422.501 123.971 417.036C123.869 417.332 123.773 417.621 123.671 417.916C149.407 445.095 175.142 472.274 201.126 499.708C219.503 477.557 237.444 455.938 256.014 433.554ZM155.987 129.942C154.187 128.922 153.277 128.393 152.355 127.89C140.006 121.142 127.644 114.412 115.307 107.645C106.491 102.809 97.7116 97.9162 88.9141 93.0489C87.4434 92.2324 86.0388 91.8225 85.5127 94.0582C83.7473 101.559 81.9947 109.06 80.2678 116.574C78.7103 123.363 77.2105 130.164 75.6467 136.953C73.7738 145.094 71.856 153.224 69.9639 161.359C67.978 169.884 65.9859 178.41 64.0257 186.942C62.6718 192.815 61.3694 198.707 59.8672 205.4C67.8293 199.755 75.0887 194.636 82.3218 189.478C98.6086 177.857 114.869 166.191 131.189 154.62C133.776 152.786 135.333 150.777 135.49 147.383C135.767 141.526 137.667 136.763 144.382 135.096C148.167 134.143 151.638 131.921 155.987 129.942ZM216.573 55.6923C216.388 55.3839 216.203 55.0691 216.024 54.7606C173.831 66.5253 131.63 78.2838 88.7143 90.2486C90.2785 91.2735 91.1012 91.8933 91.9913 92.3843C113.609 104.239 135.232 116.08 156.868 127.903C157.584 128.295 158.686 128.858 159.216 128.586C162.784 126.719 166.953 126.139 169.6 122.354C183.388 102.646 197.403 83.0867 211.314 63.4654C213.121 60.9094 214.825 58.2854 216.573 55.6923ZM273.338 123.354C273.184 123.013 273.03 122.672 272.876 122.338C229.554 128.065 186.237 133.798 142.914 139.526C142.889 139.845 142.864 140.158 142.839 140.477C144.804 141.461 146.787 142.407 148.728 143.443C173.078 156.418 197.435 169.387 221.742 182.44C223.734 183.513 224.705 183.321 226.165 181.518C239.555 164.954 253.081 148.503 266.542 132.001C268.86 129.167 271.073 126.245 273.338 123.354ZM267.821 418.101C268.104 418.229 268.394 418.357 268.677 418.484C289.707 393.116 310.736 367.74 332.419 341.586C310.2 336.507 288.903 331.632 267.17 326.663C267.39 357.38 267.602 387.741 267.821 418.101ZM192.196 240.178C193.303 238.542 193.948 237.725 194.452 236.828C202.779 221.979 211.08 207.117 219.401 192.268C223.147 185.578 223.154 185.584 216.378 181.968C195.218 170.671 174.065 159.361 152.893 148.084C149.328 146.184 145.689 144.406 142.087 142.571C141.881 142.785 141.669 142.994 141.463 143.209C158.246 175.294 175.035 207.38 192.196 240.178ZM188.852 240.581C189.088 240.289 189.324 239.991 189.554 239.699C172.786 207.708 156.018 175.724 139.256 143.734C138.134 145.204 137.67 146.476 137.424 147.788C135.206 159.493 133.026 171.203 130.841 182.914C128.421 195.892 126.013 208.869 123.599 221.846C123.227 223.83 123.632 224.867 126.023 225.23C129.969 225.828 133.842 226.951 137.726 227.939C152.344 231.656 166.944 235.431 181.562 239.136C183.958 239.741 186.42 240.103 188.852 240.581ZM226.188 187.082C232.907 212.032 239.371 236.033 245.89 260.223C269.583 251.012 292.493 242.105 316.237 232.881C286.036 217.519 256.531 202.511 226.188 187.082ZM228.012 185.647C258.271 201.04 287.667 215.999 317.688 231.269C317.819 229.055 317.98 227.624 317.969 226.196C317.89 211.971 317.765 197.748 317.692 183.523C317.675 179.705 317.747 175.892 317.825 172.079C317.864 169.994 317.008 169.636 315.035 170.08C310.81 171.024 306.523 171.708 302.249 172.449C294.85 173.734 287.438 174.963 280.04 176.248C269.092 178.151 258.15 180.066 247.216 182.026C241.127 183.118 235.052 184.318 228.012 185.647ZM161.645 282.398C161.613 282.66 161.574 282.922 161.541 283.19C195.479 296.529 229.411 309.875 263.934 323.443C263.62 321.888 263.556 321.259 263.359 320.677C261.153 314.069 258.84 307.496 256.716 300.861C252.982 289.219 249.375 277.536 245.666 265.887C245.072 264.033 244.011 262.717 241.645 263.525C239.86 264.131 237.988 264.508 236.142 264.93C228.429 266.687 220.695 268.382 212.995 270.19C204.884 272.09 196.793 274.097 188.682 276.029C179.67 278.165 170.658 280.275 161.645 282.398ZM315.659 167.925C315.734 167.554 315.815 167.182 315.89 166.811C303.034 152.144 290.179 137.477 277.016 122.46C260.443 142.807 244.131 162.824 227.825 182.84C227.969 183.028 228.113 183.223 228.258 183.411C257.391 178.247 286.525 173.089 315.659 167.925ZM60.6019 207.577C68.0777 209.636 74.6499 211.465 81.2278 213.263C92.2163 216.255 103.241 219.137 114.2 222.237C120.926 224.14 121.754 223.498 122.723 216.6C123.842 208.66 125.401 200.774 126.884 192.89C128.78 182.837 130.817 172.806 132.758 162.757C133.205 160.434 133.506 158.082 133.99 155.051C109.347 172.695 85.2634 189.932 60.6019 207.577ZM225.486 53.3866C225.441 53.6744 225.403 53.962 225.358 54.2498C258.205 74.1705 291.06 94.0975 324.734 114.517C324.111 112.771 323.9 111.883 323.488 111.095C313.892 92.624 304.301 74.1463 294.566 55.7481C293.981 54.6451 292.179 53.5362 290.93 53.5245C270.772 53.335 250.611 53.3239 230.449 53.281C228.798 53.2779 227.142 53.3514 225.486 53.3866ZM274.441 120.08C273.543 118.627 273.143 117.794 272.574 117.092C265.876 108.764 259.191 100.422 252.355 92.2053C251.767 91.4976 249.885 91.1552 248.969 91.5316C242.834 94.0586 236.812 96.8446 230.731 99.5107C218.846 104.722 206.948 109.915 195.057 115.114C185.388 119.342 175.706 123.544 166.051 127.803C160.311 130.334 154.604 132.948 148.878 135.53C148.956 135.885 149.027 136.241 149.105 136.602C190.629 131.124 232.147 125.651 274.441 120.08ZM316.172 236.095C315.918 235.858 315.664 235.621 315.411 235.378C292.862 244.175 270.313 252.973 247.088 262.033C261.063 275.682 274.453 288.763 288.154 302.143C297.702 279.632 306.94 257.86 316.172 236.095ZM172.41 122.027C172.592 122.195 172.775 122.363 172.95 122.538C182.033 118.616 191.141 114.745 200.197 110.747C215.352 104.057 230.46 97.241 245.621 90.5639C249.537 88.8362 249.65 88.77 246.864 85.4576C238.952 76.0651 231.009 66.7052 223.153 57.2669C220.687 54.3109 220.436 54.2206 218.209 57.3593C205.515 75.2018 192.821 93.038 180.147 110.893C177.536 114.582 174.99 118.32 172.41 122.027ZM206.734 55.2067C206.67 54.883 206.606 54.5657 206.542 54.242C206.164 54.1609 205.791 54.0285 205.415 54.011C188.894 53.4063 172.372 52.7825 155.851 52.216C142.616 51.7645 129.38 51.313 116.143 51.0527C114.88 51.0286 113.162 52.0467 112.381 53.115C108.015 59.0909 103.862 65.2216 99.6638 71.3278C95.9665 76.703 92.3145 82.1092 88.6366 87.4968C88.7871 87.6785 88.9439 87.86 89.0944 88.0416C128.31 77.0987 167.525 66.1559 206.734 55.2067ZM95.3725 437.193C127.922 456.559 160.025 475.654 192.129 494.756C192.309 494.529 192.489 494.296 192.669 494.069C192.093 493.38 191.555 492.659 190.943 492.015C185.472 486.255 179.971 480.527 174.513 474.754C157.044 456.271 139.576 437.796 122.169 419.255C120.415 417.386 119.168 417.202 117.178 418.94C112.078 423.402 106.802 427.657 101.591 432C99.6812 433.596 97.7587 435.205 95.3725 437.193ZM21.617 302.49C21.7079 302.87 21.8053 303.25 21.8962 303.631C65.1449 296.516 108.4 289.394 151.649 282.279C150.797 280.901 150.04 280.35 149.203 279.96C139.352 275.313 129.446 270.781 119.668 265.986C116.912 264.636 114.496 264.05 111.566 265.323C102.572 269.224 93.5319 273.024 84.4582 276.748C68.5414 283.288 52.5842 289.727 36.6475 296.236C31.6239 298.287 26.6271 300.401 21.617 302.49ZM292.477 304.614C292.344 304.941 292.211 305.269 292.078 305.597C306.02 316.818 319.969 328.039 334.171 339.465C346.519 324.562 358.65 309.924 370.774 295.287C370.537 294.929 370.3 294.571 370.063 294.212C344.201 297.681 318.339 301.144 292.477 304.614ZM27.1404 245.715C27.1099 246.079 27.0794 246.443 27.0553 246.807C34.2013 248.044 41.3417 249.32 48.4995 250.513C54.6595 251.542 60.8417 252.418 67.0019 253.459C73.2452 254.512 79.4662 255.712 85.7102 256.797C94.2511 258.285 102.827 259.607 111.339 261.242C114.052 261.765 114.949 261.051 115.268 258.399C115.728 254.533 116.577 250.71 117.267 246.871C118.269 241.266 119.393 235.671 120.217 230.038C120.668 226.989 119.828 226.458 116.816 227.16C112.794 228.093 108.781 229.071 104.732 229.896C96.0242 231.668 87.2883 233.295 78.5878 235.086C69.7033 236.919 60.8674 238.943 51.983 240.783C43.7145 242.507 35.4236 244.079 27.1404 245.715ZM242.463 259.448C242.751 259.219 243.033 258.99 243.322 258.76C237.099 235.609 230.877 212.458 224.426 188.47C223.308 190.126 222.675 190.942 222.171 191.833C218.257 198.717 214.35 205.601 210.468 212.503C205.389 221.541 200.33 230.591 195.283 239.647C194.534 240.995 193.777 242.286 196.102 243.097C208.836 247.53 221.539 252.04 234.249 256.531C236.991 257.499 239.727 258.474 242.463 259.448ZM369.758 227.421C369.845 227.018 369.932 226.608 370.019 226.205C353.625 208.229 337.231 190.246 320.263 171.645C320.153 173.649 320.06 174.677 320.037 175.703C319.901 183.973 319.701 192.244 319.666 200.518C319.634 210.067 319.798 219.611 319.778 229.16C319.77 231.442 320.597 232.278 322.818 231.798C324.366 231.459 325.918 231.031 327.49 230.908C338.161 230.075 348.841 229.338 359.512 228.512C362.942 228.242 366.349 227.793 369.758 227.421ZM361.35 357.792C352.412 352.621 344.306 347.873 336.107 343.299C335.475 342.943 333.829 343.475 333.237 344.118C330.603 347.017 328.189 350.109 325.685 353.12C309.116 373.091 292.542 393.062 275.987 413.045C275.539 413.584 275.26 414.252 274.904 414.865C275.085 415.008 275.267 415.151 275.448 415.287C303.91 396.243 332.373 377.185 361.35 357.792ZM351.989 261.982C340.732 252.641 330.149 243.854 319.099 234.681C309.747 256.768 300.685 278.153 291.63 299.539C291.959 299.742 292.282 299.946 292.612 300.143C312.193 287.565 331.773 274.975 351.989 261.982ZM115.575 225.484C115.511 225.173 115.454 224.862 115.39 224.551C113.358 224.002 111.332 223.458 109.3 222.909C100.434 220.51 91.5737 218.11 82.7015 215.724C75.3614 213.751 68.0324 211.702 60.6454 209.921C59.473 209.64 57.6231 210.17 56.7359 211.011C46.9575 220.264 37.3096 229.66 27.616 239.006C26.1295 240.44 24.5712 241.793 23.0455 243.183C23.2833 243.573 23.5209 243.957 23.765 244.347C54.3728 238.061 84.9741 231.776 115.575 225.484ZM373.096 226.451C379.092 215.89 384.689 206.019 390.513 195.754C368.358 187.666 346.6 179.721 324.843 171.777C324.659 172.106 324.468 172.435 324.284 172.764C340.411 190.497 356.532 208.23 373.096 226.451ZM371.646 291.916C371.713 291.5 371.781 291.091 371.849 290.675C366.11 282.199 360.378 273.716 354.621 265.253C353.424 263.494 352.236 264.322 350.859 265.206C334.561 275.693 318.223 286.117 301.905 296.567C299.66 298.004 297.455 299.517 295.23 300.992C295.347 301.359 295.456 301.733 295.573 302.1C320.932 298.705 346.286 295.311 371.646 291.916ZM25.9837 321.996C25.8217 322.172 25.6597 322.347 25.4976 322.516C26.6066 323.717 27.6532 324.975 28.8309 326.104C42.6203 339.413 56.4474 352.695 70.2367 366.003C86.089 381.301 101.935 396.605 117.743 411.949C119.358 413.521 120.315 413.57 121.688 411.591C123.914 408.376 126.425 405.346 128.91 402.323C130.227 400.72 130.051 399.634 128.393 398.414C122.676 394.22 117.02 389.93 111.34 385.685C87.9326 368.189 64.5316 350.693 41.1243 333.204C36.0855 329.449 31.0284 325.732 25.9837 321.996ZM116.81 261.381C140.428 255.206 163.292 249.219 187.043 243.009C185.255 242.27 184.417 241.803 183.526 241.58C174.227 239.234 164.923 236.908 155.613 234.608C146.174 232.278 136.707 230.057 127.292 227.632C123.1 226.548 122.716 226.766 122.023 231.026C120.968 237.493 119.639 243.914 118.495 250.363C117.88 253.824 117.425 257.308 116.81 261.381ZM160.915 279.513C161.029 279.804 161.138 280.095 161.252 280.392C187.47 274.194 213.695 267.995 239.913 261.803C239.913 261.516 239.913 261.229 239.913 260.936C235.673 259.382 231.433 257.815 227.188 256.28C216.769 252.518 206.326 248.814 195.938 244.968C193.497 244.064 191.887 244.493 190.228 246.543C187.371 250.071 184.216 253.363 181.191 256.755C174.43 264.343 167.669 271.931 160.915 279.513ZM358.073 99.9831C338.057 85.5068 318.52 71.3836 298.977 57.2542C298.532 58.2133 298.616 58.5876 298.789 58.9217C303.589 68.2147 308.388 77.5076 313.2 86.7875C317.82 95.7018 322.477 104.596 327.065 113.53C327.91 115.176 328.642 116.626 330.846 115.381C339.669 110.381 348.493 105.401 358.073 99.9831ZM293.647 11.6354C293.369 11.7561 293.091 11.8767 292.819 11.9972C292.834 12.7043 292.824 13.4185 292.871 14.125C293.534 25.2395 294.376 36.3439 294.772 47.4706C294.885 50.6997 296.038 52.4535 298.721 53.9197C314.211 62.3798 329.64 70.9495 345.099 79.4612C346.215 80.0749 347.404 80.5722 348.557 81.1277C348.731 80.8946 348.904 80.655 349.078 80.4219C330.596 57.4932 312.122 34.5643 293.647 11.6354ZM305.032 420.49C304.957 420.256 304.881 420.022 304.813 419.787C304.303 419.798 303.759 419.695 303.29 419.839C290.365 423.779 277.419 427.649 264.555 431.766C261.649 432.694 258.722 433.528 256.461 436.304C242.41 453.544 228.106 470.586 213.892 487.696C212.805 489.007 211.769 490.367 210.708 491.703C210.896 491.871 211.085 492.039 211.267 492.214C242.519 468.297 273.772 444.394 305.032 420.49ZM283.552 124.979C283.409 125.18 283.273 125.38 283.131 125.581C283.344 126.016 283.476 126.529 283.783 126.886C295.247 139.932 306.698 152.984 318.262 165.945C318.889 166.652 320.475 166.911 321.53 166.761C326.13 166.09 330.695 165.215 335.266 164.366C341.71 163.17 348.16 161.963 354.59 160.685C355.377 160.528 356.065 159.921 357.357 159.217C332.283 147.583 307.917 136.278 283.552 124.979ZM119.974 262.697C120.02 263.04 120.059 263.39 120.105 263.733C120.441 263.949 120.752 264.216 121.107 264.381C131.91 269.46 142.756 274.437 153.486 279.671C155.901 280.85 157.327 280.456 158.97 278.579C165.125 271.565 171.39 264.65 177.577 257.666C181.05 253.749 184.465 249.769 187.906 245.821C187.76 245.556 187.608 245.298 187.462 245.034C164.966 250.923 142.47 256.807 119.974 262.697ZM338.594 337.643C338.759 337.895 338.923 338.146 339.088 338.398C356.713 332.771 374.332 327.144 391.951 321.524C391.734 320.585 391.739 320.228 391.581 319.989C386.459 312.341 381.256 304.752 376.229 297.045C374.76 294.788 373.916 294.984 372.313 296.924C363.887 307.136 355.325 317.229 346.847 327.397C344.038 330.765 341.345 334.226 338.594 337.643ZM122.619 413.706C122.728 414.074 122.838 414.447 122.948 414.815C160.706 419.557 198.471 424.299 236.229 429.041C235.988 428.243 235.628 428.098 235.257 428.004C224.636 425.228 214.01 422.471 203.389 419.688C194.088 417.247 184.793 414.768 175.487 412.34C168.231 410.448 160.958 408.627 153.703 406.741C147.069 405.015 140.453 403.218 133.807 401.536C133.25 401.395 132.282 401.735 131.909 402.182C128.765 405.978 125.705 409.855 122.619 413.706ZM356.128 156.292C355.737 154.981 355.732 154.733 355.608 154.595C345.892 143.412 336.201 132.209 326.391 121.117C325.529 120.147 323.842 119.335 322.575 119.388C311.035 119.824 299.499 120.459 287.962 121.048C286.446 121.125 284.932 121.272 283.418 121.381C283.343 121.745 283.274 122.104 283.199 122.469C307.281 133.633 331.363 144.804 356.128 156.292ZM331.074 121.61C330.906 121.817 330.745 122.019 330.577 122.226C330.841 122.654 331.049 123.134 331.376 123.503C341.142 134.653 350.945 145.765 360.668 156.954C362.19 158.707 363.784 158.437 365.515 157.725C372.542 154.834 379.555 151.925 386.554 148.972C388.456 148.167 390.277 147.178 392.605 146.045C371.559 137.691 351.316 129.65 331.074 121.61ZM266.422 323.55C273.287 316.985 279.648 310.961 285.872 304.799C286.196 304.479 285.642 302.687 285.01 302.07C274.756 291.95 264.433 281.895 254.105 271.859C252.237 270.044 250.244 268.352 247.657 266.017C254.033 285.558 260.074 304.085 266.422 323.55ZM328.3 338.557C328.392 338.377 328.484 338.196 328.576 338.009C328.243 337.653 327.954 337.245 327.584 336.941C315.164 326.886 302.75 316.818 290.25 306.854C289.627 306.357 287.836 306.369 287.267 306.891C281.108 312.51 275.08 318.273 268.207 324.767C288.806 329.492 308.553 334.025 328.3 338.557ZM322.915 233.676C322.807 234.016 322.7 234.356 322.586 234.696C332.793 243.218 342.995 251.746 353.442 260.472C359.417 250.096 365.066 240.281 370.721 230.46C370.536 230.145 370.351 229.824 370.165 229.509C354.413 230.896 338.661 232.289 322.915 233.676ZM324.713 168.395C324.618 168.722 324.523 169.043 324.428 169.37C345.081 176.93 365.734 184.484 386.387 192.043C386.546 191.728 386.711 191.412 386.87 191.103C386.535 190.6 386.243 190.058 385.857 189.601C379.529 182.182 373.12 174.836 366.893 167.332C363.661 163.443 360.574 159.742 354.819 162.751C354.642 162.844 354.399 162.792 354.189 162.829C347.42 164.011 340.649 165.156 333.894 166.402C330.821 166.971 327.778 167.731 324.713 168.395ZM313.466 111.276C313.652 111.018 313.844 110.752 314.03 110.493C285.314 93.066 256.599 75.6451 227.883 58.2179C227.779 59.3228 228.021 59.9168 228.42 60.3928C235.443 68.7397 242.417 77.1323 249.577 85.3616C251.034 87.0324 253.061 88.5127 255.124 89.3038C267.611 94.1309 280.182 98.7203 292.718 103.419C299.644 106.006 306.552 108.651 313.466 111.276ZM95.5582 269.698C95.5009 269.4 95.4436 269.101 95.3861 268.797C80.1438 264.793 64.9014 260.789 48.7426 256.55C50.1349 265.973 51.3832 274.615 52.7585 283.241C52.8537 283.819 53.9438 284.727 54.4843 284.664C57.3012 284.349 60.2426 284.191 62.8541 283.205C71.1373 280.071 79.2924 276.609 87.4876 273.235C90.1983 272.119 92.8682 270.883 95.5582 269.698ZM408.572 164.056C393.58 163.145 379.482 162.284 364.446 161.374C373.883 172.353 382.739 182.65 391.934 193.347C397.587 183.405 402.778 174.256 408.572 164.056ZM393.968 323.75C384.701 334.547 375.838 344.876 366.968 355.205C367.179 355.507 367.389 355.808 367.599 356.103C381.919 353.906 396.239 351.715 411.176 349.427C405.271 340.604 399.807 332.46 393.968 323.75ZM389.365 325.786C389.16 325.446 388.955 325.1 388.75 324.76C371.827 330.142 354.904 335.525 337.981 340.907C345.339 346.086 352.661 350.232 359.811 354.656C362.35 356.228 363.732 355.867 365.602 353.622C371.836 346.14 378.317 338.877 384.681 331.507C386.286 329.637 387.806 327.693 389.365 325.786ZM317.891 117.32C317.903 117.008 317.922 116.701 317.935 116.389C297.38 108.361 276.832 100.34 255.564 92.0351C256.201 93.1944 256.35 93.5991 256.605 93.9124C262.982 101.84 269.302 109.819 275.842 117.615C276.751 118.699 278.754 119.37 280.245 119.364C286.612 119.35 292.981 119.112 299.341 118.754C305.536 118.412 311.712 117.809 317.891 117.32ZM264.266 51.064C266.47 51.2848 267.583 51.4779 268.705 51.4923C275.489 51.5775 282.272 51.6371 289.055 51.6778C293.154 51.6989 293.192 51.6726 292.967 47.7256C292.344 36.4062 291.689 25.0812 291.028 13.7626C290.996 13.1833 290.806 12.62 290.479 11.0526C281.589 24.6203 273.193 37.4382 264.266 51.064ZM598.923 255.462C591.354 245.412 584.217 235.939 576.563 225.777C571.417 236.186 566.602 245.938 561.506 256.258C574.133 255.989 586.092 255.735 598.923 255.462ZM520.107 257.132C532.912 256.859 544.864 256.605 557.282 256.341C549.943 246.325 542.931 236.747 535.533 226.643C530.169 237.242 525.275 246.913 520.107 257.132ZM478.814 257.914C491.301 257.649 503.145 257.397 515.785 257.128C508.584 247 501.862 237.538 494.753 227.542C489.227 238.061 484.143 247.756 478.814 257.914ZM454.063 228.503C448.422 239.006 443.223 248.683 437.711 258.941C450.428 258.671 462.284 258.419 474.663 258.156C467.746 248.2 461.112 238.647 454.063 228.503ZM355.805 260.664C368.196 260.401 379.983 260.15 392.661 259.88C386.105 249.815 379.951 240.373 373.382 230.295C367.326 240.762 361.695 250.494 355.805 260.664ZM433.602 259.035C426.764 248.9 420.341 239.386 413.628 229.439C407.827 239.926 402.493 249.562 396.822 259.817C409.411 259.55 421.096 259.301 433.602 259.035ZM559.422 255.677C564.706 244.876 569.561 234.932 574.546 224.749C562.008 225.015 550.33 225.264 537.575 225.535C545.067 235.867 552.015 245.465 559.422 255.677ZM497.924 226.219C497.715 226.555 497.505 226.891 497.289 227.233C504 236.759 510.717 246.286 517.65 256.126C518.333 255.245 519.02 254.593 519.424 253.8C523.757 245.339 528.051 236.86 532.345 228.381C533.464 226.17 532.886 225.348 530.3 225.422C525.216 225.568 520.133 225.727 515.043 225.855C509.335 225.989 503.633 226.097 497.924 226.219ZM492.704 226.827C480.255 227.092 468.654 227.338 456.122 227.605C463.178 237.806 469.721 247.266 476.659 257.291C482.136 246.9 487.221 237.237 492.704 226.827ZM416.887 228.369C416.658 228.674 416.429 228.985 416.199 229.289C422.564 238.746 428.935 248.203 435.662 258.188C441.295 247.654 446.518 237.893 452.011 227.622C439.658 227.885 428.272 228.127 416.887 228.369ZM574.106 222.336C566.706 212.467 559.831 203.295 552.425 193.42C547.219 203.691 542.368 213.259 537.37 223.117C549.673 222.856 561.459 222.605 574.106 222.336ZM496.621 223.971C508.86 223.711 520.551 223.462 533.082 223.196C525.912 213.341 519.189 204.108 512.144 194.43C506.808 204.582 501.816 214.083 496.621 223.971ZM375.502 229.594C382.071 239.652 388.178 248.994 394.753 259.052C400.522 248.597 405.843 238.942 411.422 228.83C399.069 229.092 387.754 229.333 375.502 229.594ZM264.997 422.871C231.53 417.305 198.947 411.924 166.25 407.195C171.249 409.09 176.31 410.576 181.411 411.889C193.973 415.133 206.571 418.25 219.133 421.514C231.311 424.678 243.447 427.995 255.631 431.14C256.49 431.364 257.898 431.053 258.491 430.442C260.549 428.345 262.354 426.006 264.997 422.871ZM492.405 224.15C485.441 214.387 478.858 205.157 471.881 195.388C466.302 205.788 461.25 215.207 456.046 224.923C468.348 224.662 480.033 224.413 492.405 224.15ZM550.233 190.465C542.937 180.683 536.219 171.679 529.055 162.08C523.786 172.103 518.879 181.443 513.734 191.241C525.96 190.981 537.529 190.735 550.233 190.465ZM451.784 225.052C445.031 215.297 438.652 206.076 431.925 196.359C426.389 206.388 421.172 215.824 415.648 225.821C427.969 225.559 439.463 225.314 451.784 225.052ZM469.907 194.544C457.47 194.809 446.041 195.052 433.898 195.31C440.685 205.16 447.091 214.457 453.911 224.344C459.386 214.138 464.481 204.647 469.907 194.544ZM429.931 195.534C417.916 195.79 406.479 196.033 394.05 196.298C400.711 206.233 406.846 215.383 413.449 225.236C419.109 215.039 424.443 205.422 429.931 195.534ZM598.258 258.982C598.18 258.607 598.109 258.239 598.031 257.865C596.317 257.901 594.603 257.938 592.889 257.974C583.46 258.175 574.025 258.388 564.595 258.576C562.811 258.614 561.416 258.937 562.585 261.136C566.974 269.418 571.414 277.667 576.286 286.786C583.846 277.218 591.052 268.103 598.258 258.982ZM550.321 192.77C538.222 193.027 526.557 193.276 514.203 193.538C521.347 203.361 528.09 212.626 535.253 222.467C540.465 212.197 545.322 202.616 550.321 192.77ZM494.461 223.418C499.894 213.034 504.855 203.54 510.086 193.543C497.866 193.803 486.392 194.047 473.879 194.313C480.845 204.165 487.377 213.396 494.461 223.418ZM375.705 226.224C381.089 227.658 408.822 226.476 410.642 224.824C404.62 215.876 398.584 206.909 392.127 197.326C386.413 207.366 381.136 216.656 375.705 226.224ZM489.316 163.11C483.871 173.239 478.899 182.491 473.791 191.995C485.973 191.736 497.511 191.49 509.813 191.229C502.808 181.613 496.243 172.613 489.316 163.11ZM519.988 259.658C525.065 268.78 529.811 277.36 534.683 285.867C534.862 286.176 536.652 286.131 536.981 285.71C543.326 277.493 549.568 269.195 555.798 260.892C556.12 260.464 556.118 259.795 556.361 258.891C544.313 259.141 532.577 259.391 519.988 259.658ZM515.237 260.715C515.09 260.413 514.943 260.11 514.79 259.807C503.029 260.057 491.275 260.307 478.717 260.574C484.16 269.841 489.405 278.786 494.993 288.298C502.055 278.677 508.646 269.696 515.237 260.715ZM437.659 261.307C443.51 270.871 448.938 279.749 454.67 289.124C461.524 279.322 467.827 270.296 474.662 260.52C461.895 260.792 450.293 261.038 437.659 261.307ZM511.808 190.307C517.075 180.207 521.919 170.919 526.812 161.548C514.886 161.801 503.615 162.041 491.415 162.3C498.486 172.017 504.921 180.854 511.808 190.307ZM374.481 290.696C380.75 280.931 386.592 271.833 392.7 262.314C379.99 262.585 368.235 262.835 355.742 263.1C362.124 272.5 368.119 281.328 374.481 290.696ZM433.904 192.932C446.009 192.675 457.439 192.432 469.671 192.172C462.851 182.558 456.451 173.535 449.781 164.142C444.35 173.997 439.268 183.206 433.904 192.932ZM574.066 287.292C569.112 277.958 564.491 269.254 559.432 259.731C552.165 269.306 545.345 278.291 537.929 288.061C550.366 287.796 561.732 287.555 574.066 287.292ZM433.647 261.437C420.987 261.706 409.373 261.953 396.822 262.22C402.836 271.653 408.441 280.457 414.474 289.922C421.03 280.177 427.091 271.169 433.647 261.437ZM394.17 193.847C406.517 193.585 417.876 193.343 429.752 193.091C423.242 183.7 417.028 174.743 410.433 165.227C404.866 175.021 399.687 184.131 394.17 193.847ZM451.783 163.258C458.571 172.821 464.872 181.706 471.699 191.325C477.008 181.403 481.943 172.177 487.117 162.507C474.967 162.765 463.786 163.003 451.783 163.258ZM94.2625 393.39C94.554 407.101 94.8378 420.441 95.1371 434.515C102.935 428.064 110.427 421.863 117.755 415.805C109.883 408.298 102.349 401.103 94.2625 393.39ZM533.313 287.974C528.013 278.539 523.064 269.727 517.957 260.638C511.014 270.149 504.474 279.116 497.45 288.737C509.835 288.473 521.15 288.233 533.313 287.974ZM451.863 160.426C463.56 160.178 474.85 159.937 486.802 159.683C480.079 150.457 473.776 141.801 467.19 132.763C461.942 142.231 456.995 151.164 451.863 160.426ZM376.721 291.094C388.934 290.834 400.249 290.594 412.195 290.34C406.355 281.266 400.771 272.583 394.766 263.258C388.632 272.726 382.892 281.574 376.721 291.094ZM552.236 317.286C559.484 308.062 566.298 299.396 573.51 290.211C561.01 290.476 549.465 290.722 537.437 290.978C542.425 299.852 547.155 308.254 552.236 317.286ZM492.728 288.786C487.272 279.501 482.154 270.795 476.684 261.484C469.948 271.112 463.706 280.034 457.057 289.545C469.238 289.286 480.572 289.045 492.728 288.786ZM416.789 290.293C429.003 290.033 440.337 289.792 452.27 289.538C446.708 280.37 441.47 271.737 435.769 262.323C429.36 271.765 423.291 280.702 416.789 290.293ZM447.581 163.781C435.661 164.034 424.429 164.273 412.559 164.526C419.095 173.928 425.236 182.772 431.753 192.162C437.278 182.254 442.307 173.231 447.581 163.781ZM504.086 131.118C492.287 131.369 481.271 131.603 469.243 131.859C476.123 141.273 482.379 149.821 489.075 158.991C494.263 149.365 499.119 140.338 504.086 131.118ZM268.552 427.595C268.672 427.828 268.798 428.068 268.917 428.301C272.819 427.141 276.734 426.013 280.629 424.814C289.69 422.021 298.765 419.259 307.786 416.327C309.717 415.699 311.838 414.762 313.172 413.325C318.418 407.643 323.384 401.711 328.442 395.861C330.675 393.283 332.876 390.68 335.097 388.09C334.914 387.896 334.731 387.696 334.549 387.503C312.55 400.865 290.551 414.233 268.552 427.595ZM447.54 160.945C440.924 151.646 434.852 143.107 428.328 133.94C422.803 143.555 417.707 152.433 412.391 161.693C424.19 161.442 435.409 161.203 447.54 160.945ZM532.911 290.985C520.743 291.244 509.313 291.487 497.023 291.748C502.3 300.687 507.219 309.008 512.482 317.922C519.501 308.671 525.98 300.126 532.911 290.985ZM376.677 293.823C382.583 302.697 388.167 311.094 394.106 320.031C400.31 310.823 406.031 302.339 412.285 293.066C400.052 293.326 388.909 293.563 376.677 293.823ZM550.124 318.083C545.147 309.17 540.337 300.56 535.268 291.476C528.224 300.747 521.652 309.402 515.079 318.058C515.269 318.308 515.453 318.566 515.644 318.817C526.793 318.58 537.949 318.342 550.124 318.083ZM494.763 292.172C488.321 301.832 481.198 309.797 475.502 319.486C487.41 319.232 498.425 318.998 510.345 318.745C505.048 309.711 500.134 301.325 494.763 292.172ZM526.557 158.838C519.622 149.514 513.211 140.905 506.341 131.669C501.196 141.199 496.346 150.187 491.268 159.588C503.246 159.334 514.433 159.096 526.557 158.838ZM472.826 318.618C479.484 309.522 485.771 300.936 492.052 292.364C491.442 291.867 491.284 291.622 491.125 291.625C480.445 291.756 469.765 291.888 459.087 292.09C457.481 292.117 457.07 293.165 457.888 294.492C462.695 302.3 467.539 310.088 472.826 318.618ZM449.6 160.092C454.841 150.611 459.825 141.594 464.84 132.539C453.277 132.785 442.287 133.019 430.5 133.269C437.083 142.505 443.121 150.994 449.6 160.092ZM375.651 125.71C375.803 125.363 375.955 125.015 376.113 124.661C370.981 117.421 365.906 110.136 360.617 103.007C360.203 102.455 358.103 102.589 357.145 103.088C350.116 106.781 343.174 110.632 336.232 114.483C334.877 115.232 333.655 116.207 331.883 117.411C347.006 120.283 361.329 123 375.651 125.71ZM452.142 292.543C439.891 292.804 428.614 293.044 416.668 293.298C422.403 302.207 427.736 310.495 433.412 319.316C439.752 310.252 445.709 301.744 452.142 292.543ZM466.985 128.803C472.189 119.329 476.969 110.629 481.976 101.516C470.266 101.765 459.334 101.998 447.745 102.244C454.266 111.252 460.432 119.758 466.985 128.803ZM503.942 128.527C497.198 119.517 490.965 111.198 484.189 102.145C479.076 111.394 474.252 120.127 469.2 129.266C480.866 129.018 491.932 128.782 503.942 128.527ZM435.413 320.243C447.55 319.984 458.738 319.747 470.059 319.506C470.048 318.99 470.227 318.38 470.002 318.016C465.301 310.371 460.537 302.76 455.843 295.116C454.747 293.335 454.086 293.42 452.969 295.164C451.15 298.014 449.052 300.685 447.11 303.46C443.367 308.805 439.65 314.167 435.413 320.243ZM376.679 379.659C376.579 379.419 376.471 379.173 376.371 378.933C375.981 378.896 375.577 378.784 375.196 378.83C364.997 380.01 354.798 381.163 344.614 382.464C343.483 382.609 342.199 383.369 341.427 384.233C336.64 389.6 331.963 395.072 327.273 400.532C324.779 403.435 322.33 406.374 319.855 409.301C320.078 409.596 320.308 409.891 320.531 410.186C339.257 400.01 357.965 389.835 376.679 379.659ZM431.135 319.856C425.485 311.04 420.132 302.689 414.475 293.854C408.344 302.889 402.603 311.341 396.323 320.596C408.371 320.34 419.304 320.107 431.135 319.856ZM549.614 320.472C537.49 320.73 526.27 320.968 514.267 321.224C519.299 329.74 524.059 337.798 529.197 346.484C536.209 337.558 542.663 329.326 549.614 320.472ZM464.912 129.605C458.215 120.417 452.128 112.063 445.707 103.25C440.363 112.682 435.473 121.321 430.355 130.34C442.046 130.092 452.921 129.86 464.912 129.605ZM462.67 73.3596C457.486 82.5398 452.627 91.1522 447.615 100.029C459.261 99.7815 470.213 99.5486 482.018 99.2975C475.444 90.4757 469.31 82.2565 462.67 73.3596ZM509.883 321.272C497.918 321.527 486.711 321.765 474.931 322.015C480.095 330.466 485.009 338.507 490.252 347.089C496.905 338.337 503.186 330.083 509.883 321.272ZM492.572 347.684C504.397 347.432 515.419 347.198 526.976 346.952C521.971 338.511 517.198 330.461 512.14 321.932C505.469 330.71 499.287 338.847 492.572 347.684ZM472.648 322.555C466.15 331.406 460.123 339.61 453.705 348.345C465.543 348.093 476.596 347.858 488.045 347.614C482.869 339.19 477.976 331.231 472.648 322.555ZM470.274 322.095C458.474 322.346 447.274 322.585 435.615 322.832C441.054 331.302 446.202 339.319 451.601 347.72C457.993 338.954 463.957 330.771 470.274 322.095ZM449.528 348.523C443.971 339.902 438.77 331.823 433.26 323.278C426.987 332.232 421.21 340.488 415.067 349.256C426.745 349.007 437.703 348.774 449.528 348.523ZM396.377 323.399C402.038 331.858 407.344 339.795 413.019 348.273C419.038 339.693 424.792 331.495 430.997 322.663C419.102 322.916 408.138 323.149 396.377 323.399ZM453.528 350.783C458.828 359.026 463.851 366.836 469.144 375.06C475.515 366.556 481.435 358.667 487.893 350.052C476.043 350.304 465.193 350.535 453.528 350.783ZM525.892 350.525C525.712 350.179 525.533 349.838 525.353 349.491C514.491 349.722 503.622 349.954 492.167 350.197C497.243 358.433 502.023 366.183 507.119 374.45C513.685 366.082 519.791 358.304 525.892 350.525ZM415.062 351.448C420.578 359.661 425.719 367.322 431.229 375.522C437.378 367.061 443.082 359.215 449.256 350.721C437.482 350.971 426.658 351.202 415.062 351.448ZM281.278 442.768C281.398 443.008 281.518 443.248 281.638 443.487C286.264 442.254 290.898 441.04 295.518 439.782C302.241 437.95 308.91 435.902 315.69 434.324C318.874 433.581 320.472 432.004 320.922 428.897C321.211 426.915 321.686 424.961 322.046 422.99C322.537 420.296 323.002 417.597 323.48 414.897C323.155 414.611 322.83 414.331 322.512 414.044C319.892 415.241 317.016 416.073 314.705 417.709C307.013 423.163 299.506 428.887 291.958 434.548C288.357 437.238 284.834 440.022 281.278 442.768ZM505.031 375.158C499.968 366.979 495.176 359.229 490.06 350.969C483.673 359.346 477.665 367.231 471.073 375.88C482.911 375.628 493.64 375.4 505.031 375.158ZM434.174 375.256C434.327 375.571 434.487 375.887 434.64 376.202C445.025 375.981 455.416 375.76 466.011 375.535C465.931 375.033 465.995 374.452 465.751 374.062C461.377 367.093 456.984 360.137 452.553 353.2C451.564 351.647 450.725 352.379 449.914 353.518C447.884 356.359 445.783 359.145 443.739 361.973C440.544 366.388 437.362 370.822 434.174 375.256ZM362.249 101.22C368.223 109.698 373.757 117.554 379.586 125.824C385.37 118.167 390.751 111.035 396.678 103.19C384.789 102.506 373.972 101.888 362.249 101.22ZM471.245 378.266C476.231 386.128 480.854 393.416 485.866 401.315C492.19 393.277 498.123 385.726 504.553 377.558C493.187 377.8 482.694 378.023 471.245 378.266ZM433.442 378.898C438.741 386.785 443.645 394.093 448.772 401.722C454.879 393.663 460.496 386.245 466.603 378.193C455.225 378.435 444.814 378.656 433.442 378.898ZM75.3961 373.332C74.9247 373.641 74.4533 373.957 73.9819 374.267C79.7899 392.015 85.5916 409.764 91.3996 427.513C92.2245 426.437 92.3626 425.44 92.3733 424.446C92.4541 417.452 92.554 410.464 92.5711 403.471C92.6081 387.829 94.5363 392.779 83.8699 382.158C80.9787 379.281 78.2186 376.274 75.3961 373.332ZM482.975 401.715C482.99 401.529 483.154 401.137 483.022 400.923C478.7 394.017 474.372 387.104 469.974 380.244C468.966 378.672 468.226 379.554 467.389 380.681C463.535 385.875 459.578 391.001 455.672 396.157C454.302 397.971 452.983 399.816 451.1 402.386C462.288 402.155 472.596 401.935 482.975 401.715ZM378.011 382.053C377.81 381.866 377.615 381.679 377.413 381.486C359.666 391.277 341.925 401.069 324.178 410.866C324.286 411.145 324.4 411.423 324.508 411.701C325.695 411.459 326.902 411.267 328.075 410.962C334.813 409.213 341.472 407.031 348.297 405.752C361.889 403.2 362.492 403.06 370.854 391.944C372.695 389.496 374.542 387.047 376.357 384.574C376.958 383.771 377.462 382.893 378.011 382.053ZM465.571 427.038C471.523 419.493 477.14 412.381 483.297 404.57C472.135 404.807 462.024 405.022 451.117 405.254C456.055 412.696 460.573 419.509 465.571 427.038ZM367.298 400.382C367.393 400.674 367.489 400.958 367.584 401.249C378.447 399.827 389.303 398.404 400.134 396.988C400.124 396.51 400.207 396.221 400.103 396.109C394.926 390.667 389.756 385.219 384.473 379.876C384.16 379.557 382.585 379.833 382.219 380.313C377.179 386.953 372.255 393.68 367.298 400.382ZM393.079 363.172C391.146 362.455 390.061 361.815 388.917 361.667C382.532 360.853 376.12 360.244 369.741 359.391C365.816 358.863 362.642 359.479 359.973 362.869C356.455 367.354 352.463 371.468 348.678 375.742C347.95 376.567 347.235 377.411 346.507 378.242C346.659 378.475 346.81 378.707 346.962 378.94C362.028 373.788 377.089 368.636 393.079 363.172ZM395.57 144.293C400.634 135.479 405.287 127.387 409.934 119.302C400.734 121.594 392.24 124.395 383.806 127.334C383.243 127.531 382.54 129.254 382.782 129.536C386.824 134.377 391.01 139.093 395.57 144.293ZM424.749 135.565C424.508 135.322 424.26 135.072 424.019 134.828C415.312 138.685 406.604 142.541 397.435 146.599C401.976 151.818 405.929 156.361 410.235 161.318C415.32 152.293 420.031 143.926 424.749 135.565ZM406.372 161.91C406.504 161.518 406.636 161.12 406.768 160.729C403.303 156.64 399.925 152.48 396.291 148.555C395.737 147.954 393.879 148.115 392.836 148.501C389.49 149.738 386.246 151.248 382.955 152.643C378.167 154.676 373.372 156.691 368.577 158.717C368.614 158.972 368.651 159.226 368.689 159.48C381.25 160.29 393.811 161.1 406.372 161.91ZM389.696 142.659C389.894 142.361 390.098 142.064 390.296 141.766C387.517 138.467 384.65 135.239 381.99 131.847C379.71 128.938 376.693 127.957 373.196 127.47C367.014 126.608 360.877 125.451 354.717 124.422C349.561 123.556 344.412 122.697 339.256 121.831C339.185 122.068 339.107 122.306 339.036 122.543C355.923 129.253 372.81 135.956 389.696 142.659ZM414.85 116.699C419.444 121.394 423.405 125.434 427.953 130.086C432.818 121.486 437.413 113.363 442.008 105.241C441.754 104.979 441.5 104.716 441.246 104.461C432.605 108.462 423.964 112.47 414.85 116.699ZM399.032 142.55C399.305 142.786 399.577 143.022 399.85 143.252C408.462 139.404 417.074 135.55 426.286 131.434C421.57 126.639 417.589 122.594 413.218 118.155C408.317 126.577 403.674 134.56 399.032 142.55ZM459.042 75.4063C458.846 75.1492 458.649 74.8984 458.452 74.6412C449.808 78.7896 441.164 82.9379 431.813 87.4263C436.512 91.6734 440.685 95.4535 445.312 99.6447C450.073 91.2447 454.558 83.3224 459.042 75.4063ZM442.813 101.444C442.801 100.884 442.884 100.589 442.78 100.489C439.002 96.9617 435.242 93.4086 431.346 90.0113C431.034 89.7439 429.376 90.3209 429.026 90.9084C425.345 97.0673 421.8 103.313 418.229 109.539C417.553 110.72 416.935 111.931 415.899 113.859C425.474 109.436 434.216 105.407 442.813 101.444ZM354.668 365.748C354.498 365.56 354.322 365.367 354.152 365.179C333.878 378.727 313.604 392.282 292.745 406.219C293.838 406.349 294.082 406.458 294.221 406.385C306.225 399.89 318.09 393.13 330.254 386.95C337.834 383.105 344.543 378.488 349.616 371.598C351.14 369.526 352.975 367.69 354.668 365.748ZM412.729 385.591C412.715 384.91 412.821 384.538 412.683 384.33C408.379 377.946 404.074 371.562 399.651 365.263C399.368 364.861 397.973 364.872 397.329 365.178C396.521 365.565 395.954 366.463 395.273 367.128C392.214 370.112 389.154 373.097 385.47 376.693C394.988 379.792 403.775 382.659 412.729 385.591ZM400.802 102.319C404.693 106.347 408.162 109.995 411.761 113.507C411.989 113.726 413.613 113.086 414.002 112.472C416.031 109.261 417.891 105.945 419.765 102.642C421.909 98.8613 424.002 95.0562 426.114 91.2635C425.892 91.0069 425.676 90.7502 425.454 90.4999C417.46 94.3349 409.472 98.1633 400.802 102.319ZM383.397 124.29C383.581 124.522 383.77 124.76 383.954 124.992C392.751 122.038 401.548 119.085 411.085 115.886C406.452 112.02 402.364 108.608 398.094 105.047C393.561 110.982 388.476 117.636 383.397 124.29ZM351.633 407.701C350.476 407.541 350.148 407.401 349.869 407.471C343.395 409.043 336.886 410.494 330.481 412.32C328.65 412.843 326.593 414.098 325.593 415.629C324.519 417.278 324.492 419.643 324.128 421.716C323.645 424.448 323.276 427.196 322.85 429.933C323.089 430.094 323.335 430.248 323.574 430.409C332.729 422.999 341.883 415.589 351.633 407.701ZM109.672 262.916C90.0721 259.591 70.4715 256.26 50.8711 252.936C50.802 253.281 50.7392 253.627 50.6699 253.966C55.8893 255.423 61.1028 256.906 66.328 258.337C75.5794 260.868 84.9684 262.976 94.0395 266.021C99.9842 268.017 104.754 266.602 109.672 262.916ZM400.943 361.883C410.003 366.19 418.322 370.137 426.641 374.09C426.834 373.87 427.027 373.649 427.213 373.428C422.481 366.39 417.748 359.346 412.785 351.962C408.708 355.382 405.101 358.397 400.943 361.883ZM581.412 226.91C581.207 227.176 581.002 227.435 580.798 227.701C587.122 236.152 593.446 244.596 599.842 253.141C600.328 252.602 600.448 252.529 600.446 252.459C600.554 248.543 600.592 244.616 600.763 240.706C601.013 235.079 601.064 235.046 595.88 232.868C591.076 230.841 586.235 228.892 581.412 226.91ZM443.959 400.161C444.127 399.972 444.295 399.79 444.463 399.602C443.92 398.638 443.433 397.629 442.815 396.711C439.919 392.413 436.973 388.154 434.083 383.85C430.805 378.967 430.791 378.91 426.145 382.227C423.803 383.896 421.579 385.741 418.883 387.838C427.662 392.157 435.811 396.159 443.959 400.161ZM429.086 377.569C420.039 373.281 411.753 369.353 403.472 365.43C407.342 372.34 411.517 378.651 415.843 384.869C416.211 385.396 417.843 385.712 418.371 385.357C421.764 383.066 425.013 380.569 429.086 377.569ZM557.403 194.901C557.236 195.166 557.07 195.431 556.903 195.696C562.854 203.677 568.799 211.658 575.13 220.147C575.624 218.817 575.951 218.288 576.016 217.725C576.475 213.84 576.819 209.939 577.329 206.065C577.636 203.707 576.063 202.873 574.415 202.112C571.448 200.741 568.45 199.44 565.446 198.166C562.783 197.043 560.084 195.985 557.403 194.901ZM579.872 206.655C579.606 206.724 579.333 206.787 579.067 206.857C578.642 211.761 578.141 216.66 577.882 221.574C577.847 222.301 578.807 223.428 579.574 223.788C582.703 225.264 585.936 226.533 589.144 227.835C591.78 228.914 594.441 229.934 597.096 230.981C597.281 230.703 597.473 230.431 597.658 230.153C591.729 222.318 585.801 214.49 579.872 206.655ZM356.58 96.3053C356.874 96.0632 357.168 95.8147 357.463 95.5726C355.423 92.2506 355.9 87.7405 351.664 85.4341C341.92 80.1407 332.238 74.7313 322.531 69.3798C320.209 68.097 317.869 66.8465 315.541 65.5767C315.4 65.8219 315.252 66.0608 315.11 66.306C328.931 76.3122 342.759 86.3055 356.58 96.3053ZM550.877 187.774C551.176 187.723 551.474 187.678 551.766 187.628C552.305 183.894 552.427 180.029 553.518 176.462C554.412 173.536 553.451 172.416 551.096 171.408C547.796 169.993 544.551 168.443 541.281 166.951C538.848 165.843 536.409 164.728 533.976 163.62C533.796 163.847 533.61 164.074 533.43 164.301C539.25 172.125 545.063 179.949 550.877 187.774ZM435.903 412.799C444.665 417.183 452.769 421.23 461.016 425.357C461.097 424.699 461.213 424.441 461.134 424.315C457.248 418.407 453.374 412.485 449.4 406.635C449.038 406.101 447.751 405.568 447.336 405.806C443.627 407.937 440.03 410.238 435.903 412.799ZM556 175.096C555.097 180.278 554.187 184.561 553.718 188.893C553.623 189.806 554.959 191.174 555.961 191.828C557.518 192.847 559.348 193.47 561.085 194.205C565.156 195.935 569.246 197.626 573.323 199.337C573.49 199.085 573.657 198.826 573.817 198.574C568.105 191.041 562.387 183.514 556 175.096ZM446.359 403.615C437.445 399.279 429.439 395.383 421.44 391.487C421.279 391.726 421.125 391.965 420.965 392.211C424.86 397.954 428.712 403.723 432.708 409.4C433.188 410.084 434.771 410.822 435.275 410.537C438.808 408.524 442.195 406.26 446.359 403.615ZM528.143 157.3C529.3 152.622 530.327 148.802 531.137 144.928C531.294 144.192 530.831 142.812 530.258 142.519C524.111 139.431 517.879 136.497 511.671 133.525C511.454 133.798 511.237 134.07 511.019 134.342C516.57 141.783 522.114 149.219 528.143 157.3ZM533.365 145.053C532.277 149.372 531.309 153 530.469 156.651C530.072 158.374 530.103 159.82 532.388 160.581C534.853 161.402 537.084 162.916 539.478 163.987C542.863 165.496 546.315 166.863 549.736 168.294C549.922 168.055 550.109 167.815 550.295 167.575C544.772 160.229 539.248 152.876 533.365 145.053ZM583.271 206.143C583.078 206.344 582.891 206.546 582.698 206.748C588.718 214.714 594.733 222.681 601.311 231.382C601.511 225.507 601.771 220.664 601.757 215.814C601.754 215.049 600.724 213.956 599.9 213.572C594.402 211.018 588.824 208.606 583.271 206.143ZM429.015 409.287C429.196 409.111 429.383 408.935 429.564 408.759C425.235 402.394 420.912 396.03 416.431 389.445C413.205 391.789 410.386 393.825 407.581 395.88C406.075 396.989 405.834 397.944 407.878 398.774C409.434 399.403 410.93 400.2 412.437 400.952C417.965 403.722 423.487 406.511 429.015 409.287ZM505.326 126.802C505.94 125.693 506.443 125.045 506.676 124.319C507.543 121.624 508.518 118.939 509.014 116.169C509.179 115.241 508.296 113.59 507.432 113.111C503.091 110.724 498.598 108.62 494.159 106.42C492.542 105.62 490.913 104.845 489.29 104.057C489.136 104.277 488.981 104.491 488.826 104.711C494.219 111.939 499.612 119.16 505.326 126.802ZM560.098 175.678C559.923 175.828 559.741 175.979 559.566 176.135C565.272 183.688 570.971 191.241 576.677 198.8C577.039 198.716 577.394 198.632 577.756 198.548C578.083 194.181 578.513 189.819 578.65 185.443C578.673 184.742 577.523 183.714 576.692 183.318C571.193 180.694 565.633 178.205 560.098 175.678ZM598.016 210.437C598.247 210.203 598.478 209.975 598.703 209.741C593.007 202.366 587.311 194.992 581.615 187.617C581.275 187.79 580.934 187.957 580.594 188.13C580.316 191.884 580.218 195.659 579.698 199.373C579.427 201.323 579.908 202.333 581.651 203.092C587.126 205.493 592.565 207.985 598.016 210.437ZM527.507 138.766C527.694 138.551 527.874 138.337 528.061 138.116C522.67 131.003 517.279 123.896 511.299 116.005C509.85 120.727 508.672 124.392 507.668 128.103C507.556 128.52 508.315 129.454 508.875 129.729C515.053 132.79 521.286 135.768 527.507 138.766ZM553.599 168.301C553.968 168.268 554.337 168.235 554.712 168.208C555.291 164.862 555.832 161.51 556.475 158.176C556.871 156.109 556.237 154.79 554.255 153.908C550.896 152.412 547.635 150.696 544.306 149.135C542.214 148.154 540.073 147.275 537.95 146.351C537.801 146.565 537.653 146.785 537.511 146.998C542.863 154.099 548.234 161.2 553.599 168.301ZM468.841 75.8161C468.554 76.0963 468.267 76.3765 467.979 76.6503C473 83.4655 478.021 90.2807 483.548 97.7799C484.733 94.7781 485.35 92.3047 486.612 90.2318C488.719 86.7898 487.303 85.2265 484.199 83.7436C479.002 81.2536 473.952 78.4737 468.841 75.8161ZM388.507 379.828C388.519 380.389 388.442 380.665 388.539 380.765C393.185 385.542 397.832 390.319 402.528 395.044C402.912 395.431 403.883 395.818 404.178 395.614C407.382 393.417 410.507 391.101 414.298 388.343C405.029 385.29 396.826 382.577 388.507 379.828ZM392.926 366.439C392.811 366.129 392.69 365.825 392.575 365.515C380.318 369.702 368.054 373.896 355.797 378.083C356.715 378.701 357.597 378.822 358.462 378.746C365.422 378.095 372.389 377.513 379.324 376.652C381.117 376.429 383.082 375.635 384.461 374.497C387.455 372.017 390.122 369.15 392.926 366.439ZM574.821 180.158C575.059 179.936 575.29 179.715 575.527 179.486C570.105 172.393 564.69 165.306 559.268 158.212C557.919 161.957 557.561 165.496 556.761 168.929C556.334 170.748 556.667 171.716 558.289 172.459C563.812 175 569.311 177.585 574.821 180.158ZM490.634 88.6995C490.215 88.7849 489.796 88.8702 489.377 88.962C488.413 91.6021 487.662 94.3461 486.435 96.8644C485.366 99.0478 485.821 100.058 487.976 101.013C491.168 102.424 494.201 104.182 497.331 105.715C499.766 106.906 502.256 107.988 504.714 109.115C504.931 108.792 505.153 108.468 505.369 108.151C500.457 101.659 495.545 95.1792 490.634 88.6995ZM585.389 187.314C585.183 187.542 584.977 187.763 584.766 187.99C590.404 195.366 596.036 202.748 601.675 210.124C602.016 210.002 602.358 209.88 602.693 209.752C602.623 206.477 602.183 203.159 602.58 199.938C603.042 196.181 601.614 194.395 598.234 193.109C593.852 191.456 589.663 189.276 585.389 187.314ZM516.219 117.481C516.032 117.715 515.852 117.942 515.666 118.175C520.997 125.188 526.322 132.2 532.165 139.897C533.085 135.811 533.631 132.695 534.523 129.68C535.171 127.48 534.476 126.303 532.532 125.401C529.288 123.889 526.098 122.249 522.877 120.68C520.662 119.598 518.44 118.549 516.219 117.481ZM552.371 150.698C552.583 150.489 552.801 150.28 553.014 150.072C547.826 143.229 542.639 136.391 536.914 128.852C535.858 133.132 534.873 136.557 534.265 140.043C534.117 140.881 534.991 142.405 535.796 142.815C541.266 145.567 546.834 148.1 552.371 150.698ZM407.876 353.131C402.471 352.22 376.815 356.347 375.351 358.233C382.661 359.117 389.883 360.008 397.115 360.823C397.901 360.909 398.937 360.759 399.513 360.288C402.22 358.114 404.803 355.79 407.876 353.131ZM563.346 158.457C563.172 158.696 562.992 158.93 562.819 159.169C568.111 166.151 573.404 173.132 579.306 180.917C579.53 178.299 579.642 176.671 579.805 175.049C580.667 166.719 580.68 166.712 573.107 163.068C569.867 161.505 566.603 159.987 563.346 158.457ZM510.299 110.966C511.417 107.468 512.309 104.791 513.119 102.084C513.744 100.012 513.444 98.4826 511.004 97.6358C508.936 96.9212 507.079 95.6095 505.113 94.5996C501.923 92.9593 498.715 91.3512 495.512 89.7239C495.283 90.0092 495.053 90.3009 494.83 90.5861C499.846 97.1974 504.869 103.809 510.299 110.966ZM515.665 101.017C514.541 104.521 513.67 107.331 512.735 110.123C512.088 112.056 512.62 113.383 514.475 114.287C517.804 115.905 521.085 117.614 524.396 119.251C526.489 120.284 528.607 121.259 530.713 122.259C530.886 122.026 531.066 121.793 531.24 121.56C526.177 114.879 521.101 108.193 515.665 101.017ZM582.022 282.891C582.277 283.147 582.531 283.403 582.785 283.659C588.386 280.327 594.009 277.04 599.558 273.62C600.237 273.204 600.851 272.095 600.872 271.298C600.946 267.873 600.79 264.448 600.717 261.02C600.383 260.9 600.043 260.773 599.709 260.653C593.811 268.07 587.92 275.48 582.022 282.891ZM582.817 169.184C582.255 173.632 581.582 177.35 581.451 181.088C581.416 182.159 582.731 183.738 583.827 184.313C588.197 186.604 592.727 188.605 597.213 190.67C597.709 190.895 598.339 190.825 599.559 190.965C593.875 183.564 588.572 176.666 582.817 169.184ZM541.621 130.192C541.429 130.419 541.236 130.647 541.037 130.868C546.241 137.609 551.445 144.35 557.141 151.737C557.897 147.4 558.611 144.134 558.949 140.825C559.038 139.943 558.23 138.488 557.424 138.066C552.222 135.327 546.903 132.795 541.621 130.192ZM576.007 162.171C576.282 161.911 576.557 161.643 576.825 161.383C571.785 154.867 566.745 148.346 561.705 141.831C561.408 141.971 561.118 142.117 560.821 142.257C560.397 145.396 559.801 148.519 559.651 151.671C559.598 152.775 560.361 154.492 561.264 154.977C566.093 157.544 571.074 159.803 576.007 162.171ZM602.479 191.323C605.132 179.679 604.435 178.088 595.15 173.683C592.575 172.463 589.963 171.333 587.369 170.158C587.215 170.372 587.053 170.586 586.899 170.799C591.968 177.48 597.037 184.16 602.479 191.323ZM558.061 313.389C558.264 313.608 558.466 313.833 558.668 314.052C564.389 310.597 570.116 307.148 575.816 303.649C576.2 303.411 576.594 302.759 576.553 302.339C576.263 299.196 575.871 296.063 575.511 292.928C575.096 292.867 574.68 292.812 574.265 292.75C568.866 299.634 563.467 306.512 558.061 313.389ZM554.776 134.342C554.982 134.108 555.181 133.875 555.386 133.641C550.431 127.219 545.475 120.798 540.048 113.768C539.352 116.696 538.979 118.635 538.42 120.521C537.064 125.094 537.498 126.041 541.963 127.954C543.121 128.452 544.205 129.117 545.333 129.68C548.477 131.238 551.626 132.784 554.776 134.342ZM535.126 123C535.411 122.899 535.702 122.791 535.987 122.689C536.256 121.255 536.39 119.78 536.807 118.388C538.658 112.23 538.713 112.121 533.322 109.195C529.311 107.017 525.178 105.079 521.1 103.036C520.908 103.302 520.71 103.561 520.518 103.826C525.383 110.218 530.255 116.609 535.126 123ZM578.84 300.773C584.807 293.317 590.295 286.456 595.79 279.59C595.549 279.327 595.307 279.065 595.066 278.802C589.59 282.073 584.095 285.314 578.659 288.654C578.042 289.031 577.336 290.008 577.4 290.638C577.702 293.735 578.246 296.815 578.84 300.773ZM580.071 162.078C580.364 162.028 580.656 161.97 580.948 161.92C581.236 160.499 581.627 159.088 581.794 157.65C582.634 150.379 582.614 150.379 576.156 147.292C572.646 145.62 569.143 143.935 565.64 142.251C565.517 142.451 565.387 142.651 565.264 142.851C570.193 149.261 575.136 155.669 580.071 162.078ZM598.782 173.032C598.967 172.742 599.159 172.451 599.344 172.16C594.442 165.871 589.541 159.583 584.639 153.287C584.375 153.452 584.111 153.617 583.841 153.783C583.786 154.823 583.911 155.916 583.652 156.903C581.875 163.544 584.191 167.587 590.917 169.42C593.667 170.165 596.168 171.8 598.782 173.032ZM572.103 309.177C571.959 308.989 571.814 308.801 571.67 308.613C565.962 312.068 560.215 315.453 554.6 319.053C553.895 319.501 553.49 321.11 553.644 322.069C554.027 324.502 554.804 326.869 555.616 329.981C561.364 322.733 566.734 315.958 572.103 309.177ZM545.479 115.591C545.249 115.85 545.019 116.11 544.789 116.37C549.599 122.565 554.415 128.76 559.73 135.607C560.439 131.462 561.026 128.492 561.402 125.495C561.483 124.824 561.038 123.686 560.49 123.392C555.525 120.705 550.493 118.167 545.479 115.591ZM551.206 321.91C545.72 328.923 540.62 335.457 535.513 341.984C535.748 342.221 535.982 342.458 536.217 342.695C541.552 339.408 546.972 336.246 552.143 332.726C553.029 332.121 553.27 329.948 553.113 328.588C552.879 326.553 552.015 324.602 551.206 321.91ZM563.602 126.162C563.182 128 562.913 129.115 562.669 130.235C561.075 137.402 561.195 137.654 567.613 140.915C568.451 141.343 569.276 141.804 570.132 142.193C572.726 143.375 575.332 144.524 577.932 145.68C578.055 145.473 578.178 145.266 578.301 145.06C573.543 138.94 568.786 132.821 563.602 126.162ZM584.101 297.596C584.316 297.846 584.539 298.103 584.754 298.353C590.021 295.156 595.295 291.972 600.548 288.743C600.869 288.545 601.229 288.072 601.228 287.728C601.207 284.363 601.117 280.993 601.045 277.63C600.783 277.59 600.521 277.545 600.258 277.506C594.868 284.205 589.485 290.897 584.101 297.596ZM588.954 153.859C588.78 154.06 588.599 154.261 588.425 154.456C593.17 160.608 597.916 166.766 602.655 172.918C602.934 172.848 603.207 172.773 603.486 172.703C603.753 169.389 604.078 166.081 604.23 162.763C604.256 162.157 603.751 161.212 603.229 160.942C598.506 158.519 593.721 156.205 588.954 153.859ZM513.491 369.84C513.667 370.028 513.849 370.215 514.025 370.403C514.82 369.991 515.641 369.629 516.402 369.167C520.19 366.874 523.959 364.544 527.741 362.246C531.869 359.749 532.063 355.404 527.821 351.612C523.029 357.706 518.263 363.773 513.491 369.84ZM379.184 100.337C379.248 100.036 379.318 99.7288 379.382 99.4279C372.36 95.9378 365.338 92.4476 358.316 88.9575C358.021 89.1742 357.72 89.3973 357.425 89.6139C358.559 92.5855 359.347 95.762 360.997 98.4103C361.591 99.3664 364.231 99.1446 365.949 99.2993C370.356 99.6964 374.773 99.9976 379.184 100.337ZM561.017 326.482C562.151 326.458 562.517 326.565 562.743 326.426C567.519 323.501 572.294 320.576 577.017 317.575C577.571 317.226 578.209 316.39 578.172 315.817C577.99 312.978 577.599 310.15 577.277 307.314C576.977 307.314 576.684 307.308 576.385 307.308C571.399 313.526 566.419 319.738 561.017 326.482ZM548.474 338.814C547.238 338.841 546.872 338.74 546.652 338.872C541.768 341.8 536.878 344.727 532.047 347.743C531.399 348.145 530.529 349.177 530.661 349.685C531.305 352.131 532.254 354.495 533.36 357.652C538.645 351.07 543.314 345.247 548.474 338.814ZM568.359 127.425C568.191 127.651 568.024 127.878 567.857 128.105C572.568 134.136 577.279 140.174 581.997 146.205C582.281 146.072 582.565 145.938 582.849 145.804C582.921 144.694 582.781 143.524 583.09 142.485C584.84 136.641 582.066 133.596 576.887 131.635C573.931 130.518 571.193 128.849 568.359 127.425ZM596.244 294.922C596.029 294.703 595.814 294.491 595.592 294.273C590.658 297.233 585.691 300.156 580.81 303.205C580.099 303.647 579.319 304.728 579.354 305.473C579.481 308.141 579.939 310.802 580.276 313.459C580.546 313.548 580.815 313.638 581.085 313.728C586.14 307.457 591.195 301.193 596.244 294.922ZM599.732 156.835C599.932 156.646 600.125 156.457 600.325 156.268C595.706 150.375 591.081 144.482 586.462 138.595C586.075 138.655 585.681 138.714 585.293 138.773C585.166 142.058 584.949 145.345 584.993 148.627C584.999 149.207 586.003 149.95 586.699 150.312C591.016 152.534 595.383 154.672 599.732 156.835ZM526.277 366.535C526.049 366.31 525.827 366.085 525.599 365.861C520.36 369.165 515.101 372.445 509.902 375.812C509.342 376.175 508.645 377.248 508.813 377.678C509.623 379.777 510.704 381.774 511.984 384.411C517.026 378.121 521.651 372.331 526.277 366.535ZM492.014 396.959C492.138 397.115 492.263 397.272 492.393 397.422C493.194 397.017 494.028 396.674 494.783 396.199C498.701 393.706 502.579 391.157 506.504 388.671C510.447 386.177 510.311 381.878 506.053 379.177C501.38 385.102 496.7 391.033 492.014 396.959ZM557.935 341.303C558.253 341.29 558.571 341.27 558.89 341.257C563.64 335.318 568.389 329.372 573.139 323.432C572.937 323.246 572.736 323.059 572.534 322.872C567.689 325.824 562.811 328.726 558.038 331.785C557.277 332.272 556.488 333.519 556.563 334.34C556.785 336.681 557.446 338.987 557.935 341.303ZM539.791 353.136C540.084 353.417 540.371 353.697 540.663 353.978C545.551 350.917 550.451 347.868 555.306 344.756C555.752 344.473 556.226 343.659 556.14 343.202C555.68 340.771 555.042 338.375 554.246 335.078C549.117 341.484 544.454 347.313 539.791 353.136ZM601.579 293.126C601.271 293.037 600.963 292.948 600.655 292.858C595.768 298.947 590.882 305.036 585.995 311.125C586.184 311.344 586.38 311.563 586.57 311.789C591.357 308.825 596.158 305.88 600.912 302.854C601.352 302.57 601.706 301.798 601.713 301.243C601.738 298.54 601.636 295.833 601.579 293.126ZM590.848 138.904C590.624 139.195 590.407 139.48 590.184 139.772C594.586 145.351 598.988 150.924 603.39 156.503C603.66 156.344 603.931 156.185 604.202 156.033C604.329 153.309 604.539 150.582 604.538 147.861C604.535 147.115 604.104 146.015 603.529 145.683C599.343 143.331 595.083 141.14 590.848 138.904ZM472.395 421.851C472.668 422.094 472.941 422.337 473.22 422.58C478.08 419.43 482.967 416.324 487.761 413.079C488.465 412.599 489.3 411.141 489.048 410.636C488.175 408.851 486.854 407.286 485.486 405.32C480.831 411.194 476.61 416.523 472.395 421.851ZM491.616 410.046C496.278 404.134 500.479 398.799 504.687 393.47C504.434 393.227 504.174 392.984 503.92 392.741C498.984 395.931 494.009 399.071 489.146 402.374C488.486 402.821 487.836 404.333 488.11 404.907C488.897 406.567 490.164 407.999 491.616 410.046ZM537.153 368.152C541.798 362.355 546.336 356.681 550.881 351.014C547.088 352.452 543.867 354.445 540.626 356.401C533.999 360.411 533.999 360.404 536.393 367.486C536.42 367.568 536.536 367.617 537.153 368.152ZM518.258 380.014C518.506 380.257 518.753 380.5 519 380.744C522.326 378.563 525.631 376.345 528.983 374.202C535.026 370.345 535.039 370.364 532.802 363.757C532.748 363.599 532.51 363.502 531.874 362.986C527.329 368.666 522.797 374.34 518.258 380.014ZM578.049 320.849C573.448 326.568 569.107 331.964 564.76 337.359C565.008 337.634 565.25 337.909 565.498 338.185C568.77 336.177 572.035 334.164 575.314 332.176C580.726 328.906 581.171 327.354 578.049 320.849ZM581.808 325.836C582.072 325.964 582.336 326.086 582.606 326.214C587.327 320.435 592.055 314.655 596.776 308.882C596.568 308.695 596.36 308.502 596.152 308.315C591.698 311.08 587.192 313.777 582.824 316.674C581.938 317.26 581.074 318.598 581.044 319.606C580.999 321.678 581.521 323.758 581.808 325.836ZM529.524 377.486C529.303 377.267 529.088 377.043 528.867 376.824C524.257 379.759 519.588 382.599 515.103 385.702C514.324 386.242 513.889 387.965 514.064 389.02C514.306 390.468 515.271 391.792 516.265 393.881C521.01 388.018 525.27 382.752 529.524 377.486ZM497.975 405.424C498.152 405.643 498.328 405.863 498.499 406.082C503.271 402.998 508.076 399.97 512.763 396.772C513.41 396.332 513.923 394.938 513.728 394.183C513.319 392.611 512.389 391.178 511.582 389.493C510.866 389.961 510.239 390.185 509.879 390.626C505.891 395.535 501.943 400.483 497.975 405.424ZM560.497 353.269C565.453 347.179 569.858 341.77 574.261 336.354C574.066 336.154 573.864 335.948 573.669 335.748C569.12 338.554 564.538 341.315 560.056 344.228C559.414 344.643 558.873 345.84 558.959 346.603C559.164 348.46 559.77 350.27 560.497 353.269ZM543.294 363.808C543.498 364.071 543.707 364.335 543.91 364.598C547.615 362.288 551.321 359.985 555.026 357.669C558.913 355.247 559.36 352.28 556.183 347.937C551.841 353.288 547.568 358.548 543.294 363.808ZM601.487 306.5C596.524 312.597 592.039 318.097 587.56 323.597C589.482 323.142 591.032 322.319 592.537 321.42C594.066 320.508 595.536 319.502 597.059 318.583C602.742 315.173 603.034 314.498 601.487 306.5ZM553.004 362.397C551.991 362.418 551.503 362.276 551.227 362.46C547.133 365.09 543.033 367.708 539.025 370.476C538.391 370.917 537.799 372.141 537.948 372.839C538.315 374.513 539.132 376.083 540.021 378.333C544.425 372.918 548.469 367.962 553.004 362.397ZM523.199 388.768C523.363 388.962 523.526 389.156 523.69 389.344C524.322 389.088 525.006 388.921 525.579 388.565C528.535 386.717 531.472 384.844 534.389 382.94C538.589 380.199 538.8 378.143 535.12 373.861C531.115 378.867 527.154 383.814 523.199 388.768ZM566.746 348.898C566.936 349.143 567.132 349.387 567.322 349.631C570.858 347.434 574.432 345.293 577.915 343.013C581.882 340.418 582.225 338.25 579.348 333.645C575.097 338.784 570.921 343.838 566.746 348.898ZM583.482 338.338C588.136 332.693 592.324 327.62 596.506 322.547C596.297 322.296 596.081 322.039 595.872 321.789C593.166 323.44 590.447 325.059 587.761 326.748C582.088 330.311 582.094 330.33 583.482 338.338ZM575.195 348.476C574.954 348.22 574.712 347.97 574.471 347.714C570.842 350.015 567.174 352.261 563.585 354.632C560.675 356.555 560.531 359.662 563.349 362.712C567.321 357.943 571.255 353.213 575.195 348.476ZM546.547 373.765C546.761 373.977 546.97 374.196 547.185 374.408C551.315 371.707 555.485 369.056 559.543 366.254C560.152 365.833 560.663 364.675 560.558 363.951C560.326 362.343 559.681 360.795 558.976 358.477C554.578 363.88 550.565 368.822 546.547 373.765ZM601.912 319.309C597.539 324.654 593.495 329.596 589.457 334.539C592.727 333.354 595.598 331.7 598.41 329.938C603.285 326.89 603.609 325.952 601.912 319.309ZM585.003 348.714C589.148 343.699 592.988 339.047 596.828 334.402C596.627 334.215 596.425 334.021 596.217 333.835C593.09 335.756 589.937 337.633 586.849 339.617C583.032 342.063 582.746 343.306 585.003 348.714ZM568.869 359.421C569.039 359.608 569.202 359.79 569.372 359.977C572.515 357.947 575.659 355.93 578.797 353.894C582.808 351.291 583.127 350.111 580.951 344.912C576.824 349.856 572.847 354.639 568.869 359.421ZM590.997 344.915C591.193 345.134 591.382 345.353 591.578 345.565C594.337 343.735 597.09 341.892 599.862 340.073C603.552 337.656 603.971 336.398 602.293 331.194C598.353 335.982 594.675 340.451 590.997 344.915ZM290.253 411.913C289.546 411.641 289.3 411.462 289.187 411.521C282.311 415.192 275.408 418.819 268.618 422.635C267.264 423.397 266.334 424.902 265.211 426.06C265.439 426.297 265.674 426.528 265.902 426.766C273.918 421.872 281.941 416.985 290.253 411.913ZM289.747 444.481C289.677 444.151 289.599 443.821 289.529 443.492C283.437 445.686 276.526 445.616 271.281 450.132C271.403 450.48 271.532 450.834 271.654 451.182C277.687 448.951 283.72 446.713 289.747 444.481Z" fill="url(#paint0_linear_26_2018)"/>
</g>
<defs>
<linearGradient id="paint0_linear_26_2018" x1="14.0684" y1="197.5" x2="614.472" y2="311.159" gradientUnits="userSpaceOnUse">
<stop offset="0.409935" stop-color="#9D51FF"/>
<stop offset="0.855492" stop-color="#1A2633"/>
</linearGradient>
</defs>
</svg>
