<svg width="100" height="100" viewBox="0 0 100 100" fill="none" xmlns="http://www.w3.org/2000/svg">
<path fill-rule="evenodd" clip-rule="evenodd" d="M11.4938 58.6719L50.5491 19.8218L92.1353 61.1803L89.6044 63.6973C83.0172 70.2485 75.1732 74.7998 66.8525 77.3513L66.8438 77.3858L65.6737 77.6961C60.7333 79.0926 55.6455 79.7822 50.5491 79.7822C36.4126 79.7822 22.276 74.4206 11.4851 63.6887L8.96289 61.1803L11.4938 58.6719Z" fill="white"/>
<mask id="mask0_26_1971" style="mask-type:alpha" maskUnits="userSpaceOnUse" x="8" y="19" width="85" height="61">
<path fill-rule="evenodd" clip-rule="evenodd" d="M11.4938 58.6719L50.5491 19.8218L92.1353 61.1803L89.6045 63.6973C83.0172 70.2485 75.1732 74.7998 66.8525 77.3513L66.8438 77.3858L65.6737 77.6961C60.7333 79.0926 55.6455 79.7822 50.5491 79.7822C36.4126 79.7822 22.276 74.4206 11.4851 63.6887L8.96289 61.1803L11.4938 58.6719Z" fill="black"/>
</mask>
<g mask="url(#mask0_26_1971)">
<g filter="url(#filter0_f_26_1971)">
<path d="M34.0746 39.4723C35.4883 44.4354 33.7742 49.2646 30.246 50.2586C26.7178 51.2526 22.7117 48.0349 21.298 43.0718C19.8843 38.1086 21.5984 33.2794 25.1266 32.2854C28.6548 31.2915 32.661 34.5091 34.0746 39.4723Z" fill="#0066F4"/>
</g>
<g filter="url(#filter1_f_26_1971)">
<path d="M41.8838 50.999C41.8838 61.2771 37.932 69.6092 33.0572 69.6092C28.1823 69.6092 24.2305 61.2771 24.2305 50.999C24.2305 40.721 28.1823 32.3889 33.0572 32.3889C37.932 32.3889 41.8838 40.721 41.8838 50.999Z" fill="#FECEF7" fill-opacity="0.6"/>
</g>
<g filter="url(#filter2_f_26_1971)">
<path d="M46.4247 30.8304C49.7048 34.8264 51.3107 38.9207 50.0117 39.9754C48.7126 41.0301 45.0005 38.6457 41.7204 34.6497C38.4403 30.6537 36.8343 26.5593 38.1334 25.5046C39.4324 24.45 43.1446 26.8344 46.4247 30.8304Z" fill="#F85C11" fill-opacity="0.54"/>
</g>
<g filter="url(#filter3_f_26_1971)">
<path d="M80.8399 50.9894C81.2821 62.4204 72.323 72.0436 60.8291 72.4834C49.3352 72.9232 39.659 64.0131 39.2168 52.5821C38.7745 41.1512 47.7337 31.528 59.2276 31.0881C70.7215 30.6483 80.3976 39.5584 80.8399 50.9894Z" fill="#9D51FF"/>
</g>
<g filter="url(#filter4_f_26_1971)">
<path d="M81.847 56.0725C82.511 73.2348 71.6828 87.5825 57.6614 88.119C43.6401 88.6555 31.7354 75.1777 31.0714 58.0155C30.4074 40.8532 41.2357 26.5055 55.257 25.9689C69.2783 25.4324 81.183 38.9102 81.847 56.0725Z" fill="#9D51FF"/>
</g>
<g filter="url(#filter5_f_26_1971)">
<path d="M37.264 63.7585C37.6003 72.4112 30.8198 79.6943 22.1193 80.0257C13.4189 80.3572 6.09321 73.6115 5.75696 64.9588C5.6037 61.0151 6.89397 56.4599 9.16749 52.6383C11.8823 48.0751 15.999 44.558 20.734 44.3776C25.3893 44.2003 24.4968 52.0833 27.5494 56.3146C30.202 59.9914 37.1077 59.7355 37.264 63.7585Z" fill="#9D51FF"/>
</g>
</g>
<path fill-rule="evenodd" clip-rule="evenodd" d="M59.8057 29.0193L67.3723 46.9143C69.3311 54.1723 69.7645 61.7579 68.6724 69.1538L67.2596 77.2221C76.0917 75.2653 88.4168 66.1196 92.1438 61.1803L59.8057 29.0193Z" fill="url(#paint0_linear_26_1971)"/>
<g filter="url(#filter6_f_26_1971)">
<ellipse rx="6.76173" ry="23.423" transform="matrix(-0.603158 0.797622 -0.570552 -0.821261 67.0663 44.1886)" fill="white"/>
</g>
<defs>
<filter id="filter0_f_26_1971" x="0.802734" y="12.1052" width="53.7676" height="58.3335" filterUnits="userSpaceOnUse" color-interpolation-filters="sRGB">
<feFlood flood-opacity="0" result="BackgroundImageFix"/>
<feBlend mode="normal" in="SourceGraphic" in2="BackgroundImageFix" result="shape"/>
<feGaussianBlur stdDeviation="10" result="effect1_foregroundBlur_26_1971"/>
</filter>
<filter id="filter1_f_26_1971" x="4.23047" y="12.3889" width="57.6533" height="77.2202" filterUnits="userSpaceOnUse" color-interpolation-filters="sRGB">
<feFlood flood-opacity="0" result="BackgroundImageFix"/>
<feBlend mode="normal" in="SourceGraphic" in2="BackgroundImageFix" result="shape"/>
<feGaussianBlur stdDeviation="10" result="effect1_foregroundBlur_26_1971"/>
</filter>
<filter id="filter2_f_26_1971" x="17.6826" y="5.25513" width="52.7793" height="54.97" filterUnits="userSpaceOnUse" color-interpolation-filters="sRGB">
<feFlood flood-opacity="0" result="BackgroundImageFix"/>
<feBlend mode="normal" in="SourceGraphic" in2="BackgroundImageFix" result="shape"/>
<feGaussianBlur stdDeviation="10" result="effect1_foregroundBlur_26_1971"/>
</filter>
<filter id="filter3_f_26_1971" x="19.2012" y="11.0725" width="81.6543" height="81.4265" filterUnits="userSpaceOnUse" color-interpolation-filters="sRGB">
<feFlood flood-opacity="0" result="BackgroundImageFix"/>
<feBlend mode="normal" in="SourceGraphic" in2="BackgroundImageFix" result="shape"/>
<feGaussianBlur stdDeviation="10" result="effect1_foregroundBlur_26_1971"/>
</filter>
<filter id="filter4_f_26_1971" x="11.042" y="5.95337" width="90.834" height="102.181" filterUnits="userSpaceOnUse" color-interpolation-filters="sRGB">
<feFlood flood-opacity="0" result="BackgroundImageFix"/>
<feBlend mode="normal" in="SourceGraphic" in2="BackgroundImageFix" result="shape"/>
<feGaussianBlur stdDeviation="10" result="effect1_foregroundBlur_26_1971"/>
</filter>
<filter id="filter5_f_26_1971" x="-34.2549" y="4.37476" width="111.531" height="115.663" filterUnits="userSpaceOnUse" color-interpolation-filters="sRGB">
<feFlood flood-opacity="0" result="BackgroundImageFix"/>
<feBlend mode="normal" in="SourceGraphic" in2="BackgroundImageFix" result="shape"/>
<feGaussianBlur stdDeviation="20" result="effect1_foregroundBlur_26_1971"/>
</filter>
<filter id="filter6_f_26_1971" x="43.0898" y="14.2053" width="47.9531" height="59.9666" filterUnits="userSpaceOnUse" color-interpolation-filters="sRGB">
<feFlood flood-opacity="0" result="BackgroundImageFix"/>
<feBlend mode="normal" in="SourceGraphic" in2="BackgroundImageFix" result="shape"/>
<feGaussianBlur stdDeviation="5" result="effect1_foregroundBlur_26_1971"/>
</filter>
<linearGradient id="paint0_linear_26_1971" x1="75.9747" y1="29.0193" x2="75.9747" y2="77.2221" gradientUnits="userSpaceOnUse">
<stop offset="0.180208" stop-color="#B33FB3"/>
<stop offset="1" stop-color="#9D51FF"/>
</linearGradient>
</defs>
</svg>
