<svg width="243" height="31" viewBox="0 0 243 31" fill="none" xmlns="http://www.w3.org/2000/svg">
<g clip-path="url(#clip0_26_58)">
<path fill-rule="evenodd" clip-rule="evenodd" d="M27.1411 14.9541C26.182 11.4607 24.4238 8.1321 21.8709 5.24019L5.3798 21.3351C10.1202 25.3276 16.0161 27.3238 21.9165 27.3238C23.757 27.3238 25.602 27.1278 27.4105 26.7401C28.2828 22.8545 28.196 18.8041 27.1411 14.9541ZM30.7124 13.7867L30.7763 14.0095C31.8084 17.7614 32.0368 21.6826 31.4613 25.5058C33.9549 24.5166 36.3205 23.1263 38.4487 21.3306L30.7124 13.7867ZM1.33353 20.0829L21.912 0L43.8239 21.3796L42.4904 22.6808C39.0196 26.0673 34.8865 28.42 30.5023 29.739L30.4977 29.7568L29.8812 29.9172C27.2781 30.6391 24.5973 30.9955 21.912 30.9955C14.4634 30.9955 7.01475 28.2239 1.32897 22.6763L0 21.3796L1.33353 20.0829Z" fill="white"/>
<path d="M58.5882 19.9225C59.1865 20.5152 59.8624 20.9563 60.6114 21.2504C61.3603 21.5445 62.1961 21.6915 63.1049 21.6915C64.0137 21.6915 64.8449 21.5445 65.5939 21.2504C66.3428 20.9563 67.0142 20.5196 67.6124 19.9359C68.2061 19.3477 68.6537 18.6882 68.9505 17.9485C69.2474 17.2133 69.3981 16.3934 69.3981 15.5022C69.3981 14.6066 69.2474 13.7911 68.9505 13.0515C68.6537 12.3162 68.2061 11.6567 67.6124 11.0686C67.0142 10.4804 66.3428 10.0392 65.5939 9.7496C64.8449 9.45551 64.0137 9.31292 63.1049 9.31292C62.1915 9.31292 61.3603 9.45997 60.6114 9.75406C59.8624 10.0482 59.1865 10.4893 58.5882 11.0775C57.99 11.6701 57.5379 12.3341 57.241 13.0648C56.9396 13.8001 56.7889 14.6155 56.7889 15.5022C56.7889 16.3934 56.9396 17.2044 57.2364 17.9396C57.5379 18.6704 57.99 19.3343 58.5882 19.9225ZM78.0341 24.3384V0H81.6054V24.6859H78.0341V24.3384ZM91.8672 19.9225C92.47 20.5107 93.146 20.9563 93.8949 21.2504C94.6485 21.5445 95.4796 21.6915 96.3884 21.6915C97.3018 21.6915 98.1284 21.5445 98.8774 21.2504C99.6218 20.9608 100.293 20.5196 100.887 19.9359C101.481 19.3477 101.928 18.6838 102.225 17.953C102.522 17.2178 102.672 16.3979 102.672 15.5022C102.672 14.6066 102.522 13.7867 102.225 13.047C101.928 12.3118 101.485 11.6523 100.891 11.0686C100.298 10.4804 99.6264 10.0392 98.8774 9.7496C98.1284 9.45551 97.2973 9.31292 96.3884 9.31292C95.4751 9.31292 94.6439 9.45997 93.8949 9.75406C93.146 10.0482 92.47 10.4893 91.8626 11.0775C91.2644 11.6701 90.8123 12.3296 90.5108 13.0648C90.2094 13.8001 90.0587 14.6155 90.0587 15.5022C90.0587 16.3934 90.2094 17.2044 90.5108 17.9396C90.8168 18.6704 91.269 19.3343 91.8672 19.9225ZM96.6077 5.9264C97.521 5.9264 98.3979 6.03335 99.229 6.23832C100.06 6.44329 100.846 6.75967 101.59 7.17407C102.33 7.58847 102.983 8.08308 103.558 8.6579C104.134 9.23271 104.627 9.88328 105.038 10.6096C105.449 11.3359 105.755 12.1068 105.961 12.9222C106.166 13.7421 106.267 14.6021 106.267 15.5022C106.267 18.2382 105.353 20.5152 103.531 22.3376C102.618 23.2511 101.581 23.9329 100.421 24.3918C99.2656 24.8463 97.996 25.0736 96.6031 25.0736C95.2285 25.0736 93.9314 24.8241 92.7258 24.325C92.123 24.0799 91.5567 23.7769 91.0315 23.4249C90.7392 23.2288 90.4606 23.0149 90.1912 22.7877V31.0045H86.6199V6.31853H89.2276L89.7208 8.64007C90.0313 8.33707 90.3647 8.05189 90.7164 7.79345C91.2552 7.40132 91.8444 7.06267 92.4792 6.78195C93.114 6.50122 93.7807 6.28734 94.4658 6.14475C95.1554 5.9977 95.8724 5.9264 96.6077 5.9264ZM119.301 5.9264C120.424 5.9264 121.433 6.10464 122.324 6.45666C123.224 6.81314 124.009 7.34785 124.671 8.0608C125.333 8.77375 125.827 9.60701 126.16 10.565C126.489 11.5097 126.653 12.5747 126.653 13.751V24.6859H123.091V14.415C123.091 13.5505 122.991 12.793 122.79 12.138C122.593 11.4919 122.301 10.9483 121.908 10.4982C121.525 10.0571 121.059 9.72287 120.511 9.50007C119.954 9.27727 119.301 9.16142 118.561 9.16142C117.835 9.16142 117.168 9.2951 116.57 9.55354C115.962 9.81644 115.414 10.213 114.925 10.7433C114.432 11.2735 114.062 11.8706 113.816 12.5257C113.569 13.1851 113.441 13.907 113.441 14.7002V24.6859H109.87V0H113.441V8.16329C113.638 7.97168 113.848 7.79345 114.067 7.62412C114.537 7.26319 115.053 6.95127 115.611 6.69728C116.168 6.43884 116.757 6.24723 117.373 6.11801C117.99 5.98879 118.634 5.9264 119.301 5.9264ZM135.394 19.9225C135.993 20.5152 136.668 20.9563 137.417 21.2504C138.166 21.5445 139.002 21.6915 139.911 21.6915C140.82 21.6915 141.651 21.5445 142.4 21.2504C143.149 20.9563 143.82 20.5196 144.418 19.9359C145.012 19.3477 145.46 18.6882 145.757 17.9485C146.053 17.2133 146.204 16.3934 146.204 15.5022C146.204 14.6066 146.053 13.7911 145.757 13.0515C145.46 12.3162 145.012 11.6567 144.418 11.0686C143.82 10.4804 143.149 10.0392 142.4 9.7496C141.651 9.45551 140.82 9.31292 139.911 9.31292C138.998 9.31292 138.166 9.45997 137.417 9.75406C136.668 10.0482 135.993 10.4893 135.394 11.0775C134.796 11.6701 134.344 12.3341 134.047 13.0648C133.746 13.8001 133.595 14.6155 133.595 15.5022C133.595 16.3934 133.746 17.2044 134.043 17.9396C134.348 18.6704 134.796 19.3343 135.394 19.9225ZM147.204 6.31407H149.839V24.6859H146.807L146.547 22.4401C146.25 22.7253 145.939 22.9838 145.61 23.2244C145.072 23.6165 144.487 23.9507 143.852 24.227C143.222 24.5077 142.56 24.7171 141.866 24.8553C141.171 24.9934 140.45 25.0647 139.701 25.0647C137.879 25.0647 136.225 24.6503 134.737 23.8215C133.992 23.4071 133.33 22.908 132.746 22.3332C132.161 21.7584 131.659 21.1033 131.234 20.3726C130.814 19.6373 130.494 18.862 130.284 18.0466C130.074 17.2356 129.969 16.38 129.969 15.4933C129.969 14.1298 130.202 12.8777 130.663 11.737C131.124 10.5962 131.823 9.56691 132.75 8.65344C133.677 7.74443 134.723 7.05821 135.883 6.60371C137.043 6.1492 138.313 5.92195 139.696 5.92195C140.441 5.92195 141.167 5.99324 141.866 6.13583C142.564 6.27842 143.231 6.48785 143.87 6.77303C144.514 7.05376 145.108 7.39241 145.647 7.78899C145.985 8.03407 146.3 8.30142 146.597 8.59106L146.885 6.30962H147.204V6.31407ZM164.595 19.9314C165.189 20.5152 165.865 20.9563 166.609 21.2504C167.358 21.5445 168.189 21.6915 169.103 21.6915C170.016 21.6915 170.847 21.5445 171.596 21.2459C172.345 20.9518 173.016 20.5063 173.615 19.9181C174.217 19.3254 174.665 18.6615 174.966 17.9263C175.268 17.191 175.414 16.3845 175.414 15.4978C175.414 14.6066 175.263 13.7911 174.966 13.0604C174.67 12.3251 174.217 11.6657 173.619 11.073C173.021 10.4848 172.35 10.0437 171.601 9.7496C170.852 9.45551 170.021 9.30847 169.107 9.30847C168.194 9.30847 167.363 9.45551 166.614 9.74515C165.865 10.0392 165.193 10.4759 164.6 11.0641C164.001 11.6478 163.554 12.3118 163.257 13.047C162.956 13.7867 162.809 14.6021 162.809 15.4978C162.809 16.3934 162.96 17.2089 163.257 17.9441C163.549 18.6838 164.001 19.3477 164.595 19.9314ZM175.592 0H178.798V24.6859H175.921L175.606 22.5694C175.304 22.8456 174.985 23.0996 174.647 23.3313C174.117 23.7012 173.537 24.0175 172.911 24.2804C172.286 24.5433 171.633 24.7439 170.961 24.8731C170.29 25.0023 169.591 25.0691 168.87 25.0691C167.468 25.0691 166.189 24.8419 165.029 24.3874C163.869 23.9329 162.832 23.2467 161.919 22.3332C161.005 21.4242 160.32 20.3993 159.859 19.2586C159.402 18.1179 159.174 16.8657 159.174 15.5022C159.174 14.6066 159.279 13.7466 159.48 12.9311C159.686 12.1113 159.992 11.3359 160.403 10.6096C160.814 9.88328 161.311 9.23271 161.887 8.6579C162.462 8.08754 163.12 7.59293 163.864 7.17407C164.604 6.75967 165.394 6.44775 166.23 6.23832C167.061 6.02889 167.943 5.9264 168.87 5.9264C169.555 5.9264 170.221 5.98433 170.865 6.10464C171.509 6.22495 172.126 6.40319 172.724 6.63936C173.318 6.87552 173.875 7.16516 174.391 7.49935C174.683 7.6865 174.962 7.89148 175.231 8.10982V0H175.592ZM191.307 25.0691C190.046 25.0691 188.909 24.882 187.895 24.5121C186.872 24.1378 185.977 23.5764 185.215 22.8323C184.452 22.0837 183.876 21.2058 183.493 20.2122C183.114 19.2185 182.922 18.109 182.922 16.8836V6.32298H186.484V16.438C186.484 18.0822 186.918 19.3789 187.786 20.3146C188.215 20.7736 188.717 21.1212 189.297 21.3484C189.887 21.5801 190.558 21.7004 191.307 21.7004C192.065 21.7004 192.736 21.5846 193.325 21.3484C193.905 21.1212 194.408 20.7692 194.832 20.3057C195.262 19.8423 195.581 19.2898 195.796 18.6526C196.015 18.0065 196.125 17.2668 196.125 16.438V6.32298H199.687V16.8836C199.687 18.109 199.495 19.2185 199.116 20.2122C198.733 21.2103 198.162 22.0837 197.399 22.8323C196.641 23.5809 195.746 24.1423 194.723 24.5166C193.709 24.882 192.567 25.0691 191.307 25.0691ZM208.789 6.49231C209.803 6.12247 210.94 5.93532 212.2 5.93532C213.461 5.93532 214.603 6.12247 215.621 6.49231C216.644 6.86661 217.539 7.42806 218.297 8.17666C219.06 8.92525 219.631 9.80307 220.014 10.7968C220.393 11.7904 220.585 12.9 220.585 14.1253V24.6859H217.023V14.5709C217.023 13.7421 216.913 13.0024 216.694 12.3563C216.48 11.7191 216.16 11.1666 215.731 10.7032C215.306 10.2398 214.803 9.88774 214.223 9.66049C213.634 9.42878 212.963 9.30847 212.205 9.30847C211.451 9.30847 210.78 9.42432 210.196 9.66049C209.616 9.89219 209.113 10.2353 208.684 10.6943C207.816 11.63 207.382 12.9267 207.382 14.5709V24.6859H203.82V14.1253C203.82 12.9 204.012 11.7904 204.391 10.7968C204.775 9.79862 205.345 8.92525 206.113 8.17666C206.871 7.42806 207.766 6.86661 208.789 6.49231ZM233.514 9.25945C232.733 9.25945 232.016 9.36639 231.359 9.58473C230.705 9.80308 230.112 10.1239 229.577 10.5606C228.609 11.3448 227.965 12.3742 227.641 13.6486H239.346C239.2 13.0693 238.99 12.539 238.711 12.0667C238.373 11.4874 237.935 10.9794 237.405 10.5472C236.875 10.1194 236.286 9.79862 235.642 9.58473C234.998 9.36639 234.286 9.25945 233.514 9.25945ZM243 15.5824C243 15.7339 242.995 15.9033 242.986 16.086C242.977 16.2508 242.963 16.4246 242.945 16.6028L242.913 16.9148H227.559C227.678 17.543 227.869 18.1134 228.139 18.6303C228.463 19.2497 228.897 19.7933 229.445 20.2612C229.993 20.7246 230.605 21.0766 231.276 21.3083C231.952 21.54 232.701 21.6603 233.514 21.6603C234.112 21.6603 234.674 21.598 235.195 21.4687C235.715 21.344 236.209 21.1524 236.665 20.8984C237.122 20.6444 237.528 20.3458 237.889 19.9983C238.255 19.6418 238.574 19.2363 238.844 18.7863L238.949 18.6125H242.698L242.493 19.0937C242.091 20.0339 241.593 20.8716 241.004 21.6024C240.41 22.3376 239.72 22.9704 238.93 23.4962C238.145 24.022 237.3 24.4186 236.396 24.6815C235.492 24.9444 234.533 25.0736 233.514 25.0736C231.728 25.0736 230.098 24.6592 228.627 23.8304C227.892 23.416 227.235 22.9169 226.659 22.3466C226.084 21.7717 225.586 21.1212 225.166 20.3904C224.75 19.6596 224.435 18.8843 224.23 18.0688C224.024 17.2534 223.919 16.4023 223.919 15.5111C223.919 14.62 224.024 13.7689 224.23 12.9534C224.44 12.138 224.75 11.3671 225.166 10.6319C225.586 9.89665 226.084 9.24163 226.659 8.66681C227.235 8.09199 227.892 7.59738 228.627 7.17852C229.367 6.76412 230.144 6.45221 230.961 6.24278C231.779 6.03335 232.628 5.93086 233.514 5.93086C234.437 5.93086 235.313 6.04226 236.145 6.25614C236.976 6.47449 237.757 6.79977 238.487 7.232C239.214 7.66422 239.857 8.1722 240.415 8.75593C240.972 9.33966 241.447 9.99914 241.83 10.7344C242.219 11.4651 242.511 12.236 242.703 13.0425C242.899 13.8491 243 14.6957 243 15.5824ZM70.3937 6.31407H73.0288V24.6859H69.9964L69.736 22.4401C69.4392 22.7253 69.1286 22.9838 68.7998 23.2244C68.2609 23.6165 67.6764 23.9507 67.0416 24.227C66.4113 24.5077 65.7491 24.7171 65.055 24.8553C64.3608 24.9934 63.6392 25.0647 62.8903 25.0647C61.0681 25.0647 59.4148 24.6503 57.926 23.8215C57.1816 23.4071 56.5194 22.908 55.9349 22.3332C55.3503 21.7584 54.848 21.1033 54.4232 20.3726C54.0031 19.6373 53.6834 18.862 53.4733 18.0466C53.2632 17.2356 53.1582 16.38 53.1582 15.4933C53.1582 14.1298 53.3911 12.8777 53.8524 11.737C54.3136 10.5962 55.0124 9.56691 55.9394 8.65344C56.8665 7.74443 57.9123 7.05821 59.0723 6.60371C60.2323 6.1492 61.5019 5.92195 62.8857 5.92195C63.6301 5.92195 64.3562 5.99324 65.055 6.13583C65.7537 6.27842 66.4205 6.48785 67.0598 6.77303C67.7038 7.05376 68.2975 7.39241 68.8364 7.78899C69.1743 8.03407 69.4894 8.30142 69.7863 8.59106L70.074 6.30962H70.3937V6.31407Z" fill="white"/>
</g>
<defs>
<clipPath id="clip0_26_58">
<rect width="243" height="31" fill="white"/>
</clipPath>
</defs>
</svg>
