<svg width="33" height="23" viewBox="0 0 33 23" fill="none" xmlns="http://www.w3.org/2000/svg">
<path fill-rule="evenodd" clip-rule="evenodd" d="M20.4376 11.0966C19.7154 8.50431 18.3914 6.03436 16.469 3.88844L4.05106 15.8315C7.62068 18.7941 12.0603 20.2754 16.5034 20.2754C17.8893 20.2754 19.2787 20.13 20.6405 19.8423C21.2973 16.959 21.232 13.9534 20.4376 11.0966ZM23.1268 10.2303L23.175 10.3956C23.9522 13.1797 24.1241 16.0894 23.6908 18.9264C25.5685 18.1924 27.3498 17.1607 28.9524 15.8282L23.1268 10.2303ZM1.00417 14.9024L16.5 0L33 15.8646L31.9958 16.8301C29.3822 19.343 26.27 21.0888 22.9686 22.0676L22.9652 22.0808L22.5009 22.1998C20.5407 22.7355 18.5221 23 16.5 23C10.8911 23 5.2822 20.9434 1.00073 16.8268L0 15.8646L1.00417 14.9024Z" fill="white"/>
</svg>
