<svg width="455" height="549" fill="none" xmlns="http://www.w3.org/2000/svg"><path d="M133.7 180.6c2.5-1.7 5-3.6 7.6-5.2l54-33.8 26.1-16.5 1.7-.7c-.6.6-1 1.3-1.7 1.8-7.4 4.7-14.8 9.4-22.4 13.9-2.8 1.7-4.7 3.6-4 7 .3 0 .7-.2 1-.4 9.9-6.1 19.8-12.1 29.5-18.5 1.9-1.3 2.7-4.2 4-6.4l-.5-.1-6 2.8c5.6-3.6 11-7.3 16.6-10.8 7.5-4.8 15.2-9.4 22.8-14.1L296 78.3a30695.2 30695.2 0 0 1 58-36.2l1.2-.4c-.8.7-1.6 1.5-2.6 2.2-3.1 2-6.5 3.8-9.4 6.1-2.8 2.3-5 5.2-7.6 7.8l-2 2.2c.6.2 1 0 1.2 0 8.1-5.1 16.2-10.2 24.4-15.1 6.9-4.1 11.5-10.7 17.5-15.8-6.3 3.7-12.5 7.6-18.7 11.4-.8.5-1.9.8-2.8 1.2 2.4-1.7 4.8-3.5 7.4-5.1l56-35.1 3-1.5 2.6 6.7-2.8-4.1-.5.5-5.8 24.4c-.3 1.6-1.2 3.4-.8 4.8.8 2.6 2.4 5 3.9 7.9l4.6-19.7c1-4.5 3.2-9 1.4-13.9l3.5 6.8L441.6 43l8.5 18.4c.2.4.2.9.3 1.3l-3.1-4.9c-.2.3-.4.4-.4.6l-6 27.5v1.4l3.6 7 3.5-17.1 2.3-14.5 4 7.6-.5.2-2.6-4.4-4.4 20.8c-.3 1.5-.3 3.2-.9 4.6-1.9 4.2.8 7.3 2.6 11.4l1.5-6.3.5.1-14.5 70.4h-.6c.3-1.9.5-3.7 1-5.5 1.6-7.7 3.3-15.4 4.8-23.2.2-1-.2-2.4-.6-3.5-.7-1.7-1.6-3.2-2.7-5.5l-2.2 10.1-3.8 16.8c0-.6-.2-1.2 0-1.8 1.4-7.3 2.7-14.7 4.6-22 1.1-4.5-.8-7.7-3-11.6l-3.6 17.3c-.6 2.4-1.4 4.6-2.1 7 0-.8 0-1.6.2-2.4 1.4-6.6 2.5-13.2 4.3-19.7 1.2-4.3-1.4-7-3-10.3-1.3 4.5-2.2 9-3.2 13.5-.6 2.4-1.4 4.7-2.1 7.1 0-.8 0-1.6.2-2.3 1.2-5.5 2.1-11.1 3.7-16.5 1.2-4.3-1.3-7.1-3.2-11l-.6 2.2c-2 8.7-3.5 17.6-6 26.2-1.2 4.6 1.1 7.3 3.2 11l2.7-9.6c-.2 1.7 0 3.7-.7 5.3-1.8 4.9-.6 9 2.7 12.9l1.9-6.5c-.2 1.8 0 3.8-.7 5.5-1.4 4 1.8 6.3 3 9.7l1.8-4-.1 1.8c-1.5 3.4.3 6.1 1.8 8.9.3.5 1.1.8 2 1.4l-2.2 11.2-1.7 6.3c.7-3.9.9-8 2.1-11.7 1.5-4.3-1.2-7-2.8-10.3l-.7.8c-1.9 8.9-3.6 17.8-5.7 26.6-1.1 4.6-.7 8.5 3 12.2.7-3.6 1.4-7 2.2-10.2l2-7.5-2.6 13.8-10 48.3c-3 15.3-6.3 30.6-9.4 46l-10 48.5c-1.2 6-2.6 11.9-3.7 17.9-.4 1.9-1.3 3-2.9 4-12.6 7-25.1 14.2-37.7 21.3l-24.3 13.6-36.3 20.6-31.2 17.6-40.2 22.8c-10.4 6-20.9 11.7-31.3 17.6l-30 17.1-23.7 13.3-36.7 20.8-33.5 18.9c-.7.4-2.2.2-3-.3L36 527 6.5 506.5 1.2 503c-1.2-.8-1.5-1.7-1-3.1L9 477.4l10.5-26.7 17.3-43.9 24.3-62 19.3-49.4 28-71.4 14.1-35.8c.3-.5.5-1.2 1-1.5l10.2-6.2-1.4 1.4-8.1 5.2c2.3.7 3.5 2.4 5.7 1 9.2-6 18.5-11.7 27.8-17.5 2.7-1.7 2.7-2.2.3-4.7L141.7 176c-2.6 1.6-5.4 3-8 4.5Zm44.7-22.4c-.4.4-.7 1-1.2 1.3l-13.1 8.3c-3 2-3 2-.8 5 .2-.2.5-.2.7-.3l26.7-16.7c2.2-1.4 1.4-3.5 2-6l-11.5 7.2c-.8.6-1.9.8-2.8 1.2l.8-1 12-7.4c2.1-1.3 3-3.6 2.3-6.1-10.5 6.5-21 13-31.5 19.7-2.8 1.7-2.8 1.8-.6 4.9l7.5-4.7 9.5-5.4Zm257-48.7c-.3 2.4-.4 5-1 7.3a10 10 0 0 0 3.4 9.1l5.9-27.7c.8-3.7-1.4-6.3-3.2-9.8l-3 14.2c-.6 2.4-1.4 4.7-2.1 7 .7-4 1.4-7.9 2.3-11.7 1.3-5.8 3.4-11.6-.7-17.1l-.3-.4-1.2.5c.6-3.9-1.8-6.5-3.5-10l-6.3 27.5c-.3 1.3-.7 2.9-.3 4 .7 2.3 2 4.3 3.3 6.7.3-.9.6-1.4.7-2l2.5-11.6 3.6-14.7c0 .7.2 1.3 0 1.9l-5 23.1c-.3 1.8-1.2 3.7-.8 5.2.6 2.3 2 4.4 3.5 7l2.2-8.5ZM428 29.1c0 1.1 0 2.3-.2 3.4l-3.8 16.4c-.8 3.8 2 6.2 3.2 9.3a721 721 0 0 0 6.1-25.7c.3-1.3 1-2.8.7-3.8-.8-2.5-2.1-4.8-3.5-7.6l-.5 1.6-2 6.4c.3-2.3.5-4.7 1.2-7 1.2-4-1.8-6.6-3-10-.5.7-.7 1.2-.9 1.7-1.8 8-3.2 16-5.5 23.8-1.4 4.7 1.1 7.8 3 11.4.5-.8.7-1.7 1-2.6l4.2-17.3Zm-11.5 79c0 .7.2 1.6 0 2.4-1 4.5-1.8 9.1-3 13.7-1.3 4.2 1.4 6.8 3.4 10.2 2.2-9.5 4-18.6 6.5-27.5 1.3-4.8-.7-8.1-3.2-12-.8 3.4-1.4 6.5-2.2 9.5-.4 1.3-1 2.4-1.5 3.7.8-3.8 1.2-7.7 2.4-11.3 1.6-4.6-1.4-7.4-3.3-10.7-2.5 10-4.8 19.9-7 29.9-1 3.9 2 6.3 3.4 9.3.5-.6.6-1.2.7-1.7l3.8-15.6Zm0 59.9c.1.5.4 1.2.2 1.7l-1.7 7.8c-.2 1.1-.6 2.4-.2 3.3.9 2.2 2.2 4.2 3.5 6.6.3-.9.6-1.4.7-2 2-9.4 3.7-18.9 6-28.2 1.3-4.5-1.4-7-3-10.3-1.8 6.7-3.2 13.3-4.7 19.9-.1.4-.6.8-.8 1.2.2-1.2.2-2.5.5-3.7 1.2-5.6 2.3-11.2 3.7-16.7 1-4-1.7-6.3-3.3-9.7l-.6 1.4-6.7 30.1c-.2 1-.5 2.2-.1 3 1 2 2.3 4 3.6 6.4l3-10.8Zm0 30.4c0 .7.3 1.4.2 2l-4.2 19.3c-1.3 5.8-.5 9.5 3 12.6 2.2-10.4 4-20.8 6.6-31 1.2-4.7-1.3-7.2-3.3-11l-.7 3.5-1.6 4.6c.2-1.7.2-3.7.8-5.3 1.9-4.5-1-7.5-3.2-11l-.6 2c-2.1 9.9-4 20-6.5 29.7-1.3 4.6 1.7 6.8 3.4 10 1-3 1.6-6 2.3-9l3.8-16.4ZM200.4 318l11.2-6.3 43.7-24.8 32-18.1c.9-.5 1.7-1.6 2-2.6l9-36.7c.2-.5.3-1.4.2-1.5-2.7-1.3-5.5-2.4-8.2-3.5-.3-.1-.9.3-1.3.5l-22.3 12.8-50.6 29.2c-.7.4-1.3 1.4-1.5 2.2l-9.3 31.8-5 17Zm110 14.5 44.7-25.9c-1.7-2.3-3.2-4-4.4-6-.8-1.3-1.5-1.3-2.8-.5l-19.6 11.3-23.5 13.8 5.7 7.3Zm-1.3.7c-1.7-2.3-3.2-4.3-4.8-6.2-.4-.4-1.8-.5-2.4-.2l-8.8 5-24.6 14.4-9.2 5.5 6.1 6.9 43.7-25.4ZM361 315c-1.2-1.6-2.2-2.8-3-4.1-2.6-4-1.7-3.2-5.5-1.4l-.4.3-31 18-9.8 5.7 3 3.7c2.8 3.4 2.8 3.3 6.5 1.1l26.6-15.2 13.6-8Zm-96.8 44.4c-1.4-1.6-2.7-2.8-3.7-4.2-2-3.1-2.2-3-5.5-1.1l-22.5 13.2-17.9 10.4 7 6.4 42.6-24.7Zm2 .1 4.4 5.3c1 1.3 2 1.5 3.4.6l12.8-7.5 27.3-15.8c.5-.2 1-1.4.7-1.7l-4.8-6.2-43.7 25.3Zm100.6-36.2c-1.3-1.9-2.7-3.5-3.7-5.3-1-1.7-1.7-1.8-3.3-.8l-28.8 16.6-13.4 7.8c1.6 2 3.2 3.4 4.2 5.3s2 1.4 3.3.6l27-15.6 14.7-8.6Zm-153.3 55-42.8 24.9c1.8 1.6 3.5 3 4.9 4.7 1.4 1.7 2.6 1.4 4.2.5l23.6-13.8 16.3-9.5-6.2-6.8Zm8.4 7 4 4c2.2 2.6 2.3 2.6 5.1.9l26.2-15 11.8-7c.9-.5 2.1-1 .9-2.4l-5-5.5-43 25Zm51.1-18 3.1 3.9c2.5 2.8 2.5 2.7 5.8 1l1.9-1 23.8-13.7 14.2-8.3-5.5-6.9-43.3 25Zm50.9-17.8c1.5 2.1 2.8 4 4.3 5.7.3.4 1.5.7 2 .4 2.2-1 4.3-2.2 6.3-3.3l25-14.3 11-6.6-4.9-7-43.7 25ZM220.5 386c-14 8-28 16.2-42.6 24.7 2 1.8 3.8 3.2 5.2 4.8 1.2 1.4 2.2 1.2 3.5.4l32.4-18.8 7.7-4.6-6.2-6.5Zm-86.2 48.5 41.9-24.2c-1.8-1.7-3.3-2.8-4.6-4.3-1.5-1.8-2.9-1.8-5-.6-10.7 6.4-21.7 12.7-32.5 19l-6.7 4 7 6.1Zm94.7-41.8c1.8 2 3.2 3.9 4.9 5.4.4.5 1.7.6 2.4.2 4.1-2.2 8.2-4.6 12.3-7l23.7-13.4 5-3.2-2-2.4c-3.6-4.7-3.5-4.5-8.6-1.4-9.5 5.6-19.1 11-28.7 16.5l-9 5.3Zm98.7-35.8c-1.5-1.9-3-3.5-4.2-5.3-.8-1.2-1.6-1.2-2.8-.5L299 363.7 279.5 375l4.3 5.2c1 1.2 1.8 1.3 3 .5 2.1-1.4 4.3-2.7 6.5-3.9l30-17 4.4-2.9Zm45.5-24.5-43.4 25c1.4 1.8 3 3.3 4 5 1 1.6 1.8 1.5 3 .7l29-16.7 12.3-7-5-7ZM84.8 453.1l4 3.6c3 2.5 3.4 2.5 6.6.6l28.7-16.8 8.9-5.3c-1.8-1.6-3.6-2.6-4.7-4.2-1.6-2-3-1.5-4.8-.4L102 443 84.8 453Zm57.3-11.6c13.9-8 27.5-16 41.6-24l-5-4.7c-1-1.2-2-1.4-3.5-.6l-36.5 21.2-3.3 2.1 6.7 6Zm141.7-59.2c-1.6-1.9-3-3.4-4.3-5.1-1-1.4-2.1-1.2-3.4-.5l-33.5 19.4-6.7 4c1.9 2 3.3 3.8 5 5.3.5.5 2 .4 2.6 0l25.4-14.5 14.9-8.6ZM233.6 400c-1.8-2-3.2-3.9-4.8-5.4-.6-.5-2-.6-2.6-.2L208 404.8l-22.3 12.9 5.1 5c1 1 1.7 1 2.9.2l29.8-17.1 10.1-5.8Zm52.2-17.5 5.7 6.4c14.2-8 28.2-16.1 42.3-24.2-2-2.4-3.6-4.6-5.2-6.7l-42.8 24.5Zm-243 95c2.3 1.8 4.3 3 6 4.6 1.2 1.2 2 1 3 .3l32.3-18.7 6.6-4c-1.9-1.5-3.5-2.7-5-4.1-1.5-1.4-2.7-1.6-4.6-.5-7.4 4.5-15 8.8-22.6 13.2l-15.7 9.2Zm336-137.1-43 24.6c1.2 1.6 2.6 2.9 3.4 4.4 1 2 2.2 2 4 1l22.8-13.2 17.6-10-4.8-6.8ZM93 459.9l5 4.3c1.5 1.3 2.8 1.3 4.5.2l26-15 12.2-7.2c-1.7-1.6-3.5-2.7-4.7-4.3-1.5-2-2.9-1.4-4.6-.4l-28.9 16.8L93 460Zm99.6-35c2 1.8 3.8 3.3 5.4 5 1 1 1.7.8 2.7.2l27.5-16 12.3-7-6-6.3-41.9 24Zm-48.8 17c1.3 1.6 2.1 3 3.3 4.2 1.4 1.2 2.5 2.3 4.9.9 9-5.4 18.2-10.5 27.4-15.7l11-6.5c-2.2-2.2-4.1-4.3-6-6.4l-40.6 23.4ZM1.5 501.4c2.5 1.8 4.4 3.4 6.6 4.6.7.4 2 .3 2.7 0L42.3 488l6.7-4.1c-2.3-1.7-4.2-3.3-6.3-4.7-.7-.4-2-.5-2.7-.1l-27.6 16.1-11 6.3Zm288.7-111.8c-1.5-1.6-3-2.9-3.9-4.5-1.2-2-2.3-1.7-4-.8L253.7 401l-11.7 6.8c1.7 1.3 3.2 2.2 4.2 3.3 2.2 2.7 2.2 2.7 5 1l22.7-13 16.3-9.3Zm44.3-24-42.3 24.1 5.4 6.4 42.1-24-5.2-6.5ZM98.8 466.5c-2.2-1.9-4-3.5-6-5-.6-.3-1.8-.4-2.3 0l-26.4 15-12.7 7.5c1.7 1.3 3.3 2.2 4.5 3.5 2 2.1 3.8 1.7 6 .4 7.7-4.6 15.6-9.1 23.4-13.6 4.3-2.6 8.7-5 13.5-7.8ZM346.6 379l42.4-24.1-4.8-6.7-42.6 24.3 5 6.5Zm-148.8 52.6-2-2.1c-3.7-3.9-3.7-3.9-8.5-1.5l-2.1 1.1-23.9 13.8c-3.5 2-7 4-10.7 6.3l2 1.6 2 1.9c2 2.2 2.7 2.3 5.4.8l22.4-13 15.4-9Zm-96.7 34.9 6.3 5.3c.3.3 1.1.2 1.5 0l6.6-3.7 23.8-13.9c3-1.6 5.8-3.3 9-5.2l-6.6-6-40.6 23.5Zm147.8-52c1.9 1.8 3.5 3 4.8 4.6 1.1 1.2 1.9 1.2 3.2.4l29.4-16.8c3.3-2 6.6-3.8 10.2-5.8l-5.6-6.3-42 24Zm96.5-34.9L341 374c-.3-.3-1.5-.4-2 0-12.2 6.8-24.4 13.8-36.5 20.7l-4.1 2.6 3.5 4.3c1.3 1.6 2.4 1.5 4.2.5 9-5.3 18-10.3 27-15.4l12.2-7Zm-98.2 34.6-3.3-3.4c-2.5-2.9-2.5-3-5.8-1L204.4 429c-1.5.8-2.8 1.8-4.2 2.8l6 5.7 41-23.4ZM57.4 490.4 52 486c-1.3-1.1-2.5-1.1-4-.2-5.8 3.5-11.6 6.8-17.5 10.2l-20.2 11.8L18 513l39.4-22.7Zm2.3 0 4.3 3.2c3 2.4 3 2.3 6.3.4l22-12.7 14.4-8.4c-1.9-1.5-3.5-2.8-5-4.3-1.4-1.3-2.6-1.1-4.2-.2-8.7 5.2-17.5 10.2-26.2 15.3l-11.6 6.7Zm287.6-110.5 5 6.3 42-23.7-4.6-6.7c-14.1 8-28 16-42.4 24Zm-191.6 75.8-1.5-1.6c-4.5-4.6-5-4.5-10.5-1.2-8 4.8-16.2 9.4-24.3 14L109 473l5.8 5c.4.3 1.4.2 2 0 1-.4 2-1.1 3-1.7l19.4-11 16.4-9.6Zm2.4 0c2 1.9 3.6 3.6 5.5 5.1.4.4 1.6.2 2.3-.1A5963 5963 0 0 0 197 443l7.5-4.4-6-6-40.4 23.1ZM302.5 404l-5.4-6.2-41.6 23.7c1.8 1.6 3.4 2.7 4.5 4.2 1 1.6 1.9 1.3 3.2.6l39.3-22.3ZM207 438.5c1.8 1.7 3.2 3.1 4.5 4.6 1 1 2 1.1 3.3.3l26.2-15 12.6-7.2-5.5-6.2-41 23.5ZM19.1 513.8c2.3 1.7 4.2 3.1 6.3 4.4.7.4 2 .4 2.7 0l30.4-17.5 7.2-4.1c-2.2-1.7-4.1-3-5.9-4.5-1-1-1.7-.8-2.8-.2L32.5 506 19 513.8Zm332-126.9c-1.2-1.5-2.4-2.8-3.3-4.3-1-2-2.2-1.9-4-.8l-34.9 19.8-4.4 2.6 3 3.5c2.5 2.7 2.4 2.6 5.7.7 5.7-3.4 11.4-6.6 17.2-9.8 6.8-4 13.7-7.7 20.7-11.7Zm-234.3 92.5 4.8 4.2c1.2 1 2.3 1.2 3.8.3l25.7-14.8 12.2-6.9c-2.4-2-4.4-4-6.5-5.8l-40 23Zm-2.3 0c-2-1.8-3.8-3-5.3-4.6-1-1-1.7-1-2.9-.3l-24.3 14-14 8 2.5 2.1c4.6 3.6 4.6 3.5 9.7.5 8.3-4.8 16.7-9.5 25-14.4l9.3-5.4ZM212 445c-1.9-1.8-3.4-3-4.7-4.5-1-1.1-1.8-1.2-3.2-.4-8.5 5-17 9.8-25.6 14.7l-13.1 7.5c1.3 1.2 2.5 2 3.5 3.1 3 3 2.4 2.7 5.9.7l26.4-15L212 445Zm48.1-17c-1.7-2-3-3.6-4.6-5-.4-.4-1.4-.5-2-.3l-5.8 3.1-23.5 13.5-10.4 5.9c1.8 1.7 3.5 3 4.9 4.6 1 1.1 1.8.9 2.8.3l31.2-17.7 7.4-4.4Zm2.5 0-.5 1c1 .7 2 1.3 2.8 2 3 3 3 3 6.7.9l27.7-15.6 9.1-5.3-2.2-2.9c-3.1-3.3-3.1-3.2-7.1-.8l-23.9 13.4-12.6 7.3ZM73.9 502.7c-2.1-1.6-4.1-2.8-5.7-4.3-1.2-1-2-1-3-.3-2.5 1.6-5 3-7.6 4.5l-23 13.2c-2.3 1.2-4.4 2.6-6.9 4 1.7 1.3 3.2 2.2 4.5 3.3 1.9 1.6 3.4 1.7 5.7.3 11.7-7 23.6-13.6 36-20.7Zm41.7-22.6L76 502.7c1.8 1.4 3.2 2.3 4.4 3.5 1.8 1.9 3.4 1.5 5.4.3l22.4-13 13.9-7.8-6.6-5.6Zm8.8 5.6 6.6 5.4 39.4-22.4-2.2-2.3c-4-3.4-4-3.4-7.2-1.6l-36.6 20.9Zm88.1-39.8-40 22.8c1.8 1.5 3.2 2.5 4.3 3.8 1.4 1.5 2.5 1.5 4.3.5l24.5-14 12.7-7.2-5.8-5.9Zm8 6c1.6 1.4 3 2.4 4 3.7 1.3 1.7 2.5 1.6 4.3.6 7.3-4.3 14.7-8.4 22.1-12.6l15.5-8.8-1.9-2.3c-3-3.8-3-3.8-7.2-1.5l-25.5 14.4-11.4 6.4ZM81.8 508.6l-3.5-2.5c-3.4-3-3.7-2.9-7.5-.6l-22 12.7-12.8 7.4 5.4 3.9c1.2 1 2.3 1 3.7.1 8.5-5 17-9.8 25.5-14.6l11.2-6.4Zm2.1 0c2 1.5 3.7 2.6 5.2 4 1.3 1.3 2.3 1 3.6.3l26.4-15.1 10.6-6.1-6.6-5.4L84 508.7Zm93.7-33.8-3.9-3.3c-2.5-2.4-2.4-2.3-5.5-.5l-23.6 13.4-12.7 7.4c1.7 1.3 3.3 2.3 4.5 3.7 1.5 1.7 2.7 1.2 4.3.3l17.6-10 19.3-11Zm48-17c-2-1.8-3.6-3.3-5.3-4.6-.5-.4-1.7-.3-2.4 0a4663 4663 0 0 0-30.6 17.2l-7.7 4.6c1.8 1.5 3.3 2.8 4.7 4.2 1 1 2 1 3.1.3l8.8-5.1 29.3-16.6ZM89.5 514.7c-1.5-1.2-2.9-2-4-3.1-1.9-2-3.7-1.8-6-.5-9.5 5.6-19.1 11-28.7 16.5-2.2 1.2-4.2 2.5-6.6 4 2 1.3 3.6 2.2 5 3.4 1.6 1.5 3 1.4 4.5.1l1.2-.7 34.6-19.7Zm47.7-16.9c-1.9-1.5-3.6-2.6-5-4-1.2-1.2-2.1-1.1-3.4-.4l-26 15-11 6.3c2 1.5 3.8 2.6 5.3 4 1.2 1.1 1.9.8 3 .1l14-7.9 23-13Zm2 .1c1.6 1.3 2.9 2.2 4 3.4 1.6 1.7 3 1.6 5 .4l32.6-18.5c1.2-.6 2.2-1.3 3.5-2.1-1.9-1.8-3.5-3.4-5.2-4.8-.3-.3-1.2-.3-1.7 0-1.3.5-2.5 1.3-3.8 2l-23.5 13.4-11 6.2Zm-41.9 22.6c-2.1-1.7-4-3.3-6-4.6-.5-.3-1.6-.2-2.1.1l-30.7 17.5c-2 1.1-4 2.4-6 3.7l3.1 2.4c3.5 2.6 3.6 2.6 7.5.3 5.7-3.4 11.6-6.6 17.4-10l16.8-9.4Zm2.2 0c2 1.5 3.5 3 5.3 4 .7.4 2.1.6 2.8.2l31-17.6 5.7-3.4c-1.7-1.4-3.2-2.3-4.3-3.6-1.5-1.7-2.7-1.2-4.3-.2l-27.1 15.3c-3 1.6-6 3.4-9.1 5.3Zm5.2 5.7c-1.5-1.2-2.9-2.2-4-3.3-1.7-1.5-3-1.5-5-.4-8 4.7-16 9.1-24 13.7l-11.5 6.5c2.2 1.6 4 3 6 4 .6.5 1.8.3 2.5 0l15.8-9 20.2-11.5ZM304 324l44.4-25.8c-1.6-.8-3-1.3-4.1-2-1.7-1.1-3-1-4.8.1-8.4 5-16.8 9.7-25.3 14.6l-13 7.7 2.8 5.4Zm55.5-68.9-7.2.6-.3.4-9 36.2c-.1.6.2 1.7.7 2 1.8 1 3.6 1.7 5.7 2.7l10.1-41.9Zm-60 64.4-4 2.5-34.5 20c-.5.3-1.1.8-1.2 1.3-.3 2-.4 4.1-.6 6.4.8-.2 1.3-.3 1.6-.5l13.5-7.9 23.7-14c5.6-3.2 5.2-1.5 2-7.5l-.5-.3Zm61.5-63.1c-.4.5-.6.6-.6.8l-9 37.7c-.5 2-1 3.6.7 5.3 1.4 1.3 2.3 3.1 3.8 5.2l1.6-7.4 7.7-32.2c.2-.8.6-1.9.2-2.5-1.3-2.3-2.8-4.5-4.4-7Zm-102.5 87.4-.8.1c-11.4 6.7-22.6 13.6-34.3 19.8-5 2.7-5.8 7.2-7.9 11.4 2.6-1.2 5-2.5 7.3-3.8l32.4-18.9c1.4-.8 2.8-1.4 2.6-3.6-.1-1.6.4-3.2.7-5Zm108-79-2 7.9c-2.4 10.6-5 21.2-7.3 31.8-.3 1-.3 2.3.2 3 1.2 2.1 2.7 4 4.1 6 .4-.8.7-1.3.8-1.9 3-12.6 6-25.2 8.8-37.9.2-.6.2-1.5 0-2l-4.6-7Zm-14-10.5c2.2-.2 3.7-.5 5.1-.3 1.9.1 2.3-.7 2.7-2.4 2-8.9 4.3-17.7 6.4-26.6.9-3.5 1.6-7 2.5-11-2.5 1.2-4.6 2-6.5 3.2-.9.4-1.7 1.4-2 2.3l-6.3 25.7-2 9Zm-135.6 114-.5-.4-7.9 4.6c-8.6 5-17.1 10.2-25.8 15-5.2 2.8-6.8 8-10 12.2.7 0 1.2-.1 1.7-.4l37-21.4c.7-.4 1.3-.8 1.6-1.4l4-8.2Zm155.3-94.5-.5 1.3-8.2 36c-.9 4 .6 7.8 4.1 10.2l.5-1.3c2.6-11.5 4.8-23.2 7.9-34.5 1.4-5.1-.8-8-3.8-11.7Zm-1.6-59.3-2.8 12-6.4 26.5c-.1.6-.3 1.5 0 2l4.7 7 1.7-7.6c2.4-10.1 4.9-20.2 7.2-30.4.2-.8.3-2 0-2.7-1.2-2.1-2.6-4-4.4-6.8Zm2.4 115.4c.5-.4.7-.5.7-.7 2.5-11.3 4.8-22.8 7.7-34.1 1.4-5.3 0-9.2-3.6-12.9l-.7 1.9-7.8 34.8c-.3 1.6-1 3.5-.5 4.7 1 2.3 2.7 4.2 4.2 6.3Zm-242.4 94.8 1-.4c11.1-6.4 22-13 33.3-19.2 5.6-3 7.7-8.7 11.8-13.6l-1.3.3c-9.5 5.5-18.8 11.4-28.6 16.4-7.3 3.8-11.5 10.3-16.2 16.5Zm5.7-9.9-1.3.5-25.9 15c-3.8 2.3-8 4.2-11 7.8-2 2.3-4.2 4.5-6.3 6.7l-3.6 4.3c2-.7 3.6-1.7 5.3-2.6 8-4.7 15.7-9.8 23.9-13.8s13.2-10.8 18.9-17.9Zm205.1-121.5 9.2-37.8c-2.1.2-3.8.4-5.5.4-1.5 0-2.1.5-2.3 2-.3 2.2-1 4.3-1.5 6.4l-6 24c-.2.6-.1 1.6.2 1.8 1.8 1.1 3.7 2 6 3.2Zm-1 1-5.7-2.8c-.5-.2-1.2-.1-1.7.1l-20.5 12-12.8 7.5c-.7.4-1.5 1.6-1.3 2 .5 1.5 1.5 2.7 2.4 4.2l39.7-23Zm36.2-70.4-.6.2-8.5 36.3c-.7 3 1.4 7.6 4.4 9.4l8-34.3c.4-1.6 1-3.5.6-5-.9-2.3-2.6-4.4-3.9-6.6ZM260 341l9.6-5.5L298 319c.5-.2 1-1.3.8-1.7-.6-1.4-1.4-2.7-2.2-4.1l-1.7.7-31.2 18.1c-1 .7-2.4 1.7-2.8 2.8-.6 1.8-.6 3.8-.9 6.3Zm101.6-124.9 6.1-2.6a4 4 0 0 0 2.5-3c2-9 4.3-18 6.4-27l2-7.8c-2.3 1-3.9 2.5-5.7 3.6a8.3 8.3 0 0 0-4 6c-.6 3.8-1.6 7.5-2.5 11.2l-4.8 19.6Zm21.9 74.5-.4.7c-3 13-6 26.1-8.8 39.2-.1.4 0 1 .1 1.4l4.1 5.8.5-.3 8.6-39c.1-.8-.2-2-.7-2.7-1-1.7-2.2-3.4-3.4-5.1Zm-1.8-58.2-.8 3-8 34.3c-.2.8-.4 1.9 0 2.5 1.2 2.2 2.7 4.3 4 6.3l.6-.1 8.5-37c.2-.8.3-1.8 0-2.4l-4.3-6.6Zm7.1 66-.7 1.9-7.7 36a8.6 8.6 0 0 0 4.2 9l8.3-38.8c0-.6.2-1.3 0-1.7l-4-6.4Zm-129.6 36.3c-10 5.8-19.5 11.6-29.4 16.8-5 2.6-7.2 6.6-8.9 12l2-.9c10.7-6.1 21.3-12.5 32.1-18.4 4-2.2 4.4-5.4 4.2-9.5ZM46.8 472.5l.6.6 1.3-.5 23.6-13.8c3.6-2.1 7.5-3.8 10.6-6.5 4.4-3.8 8.2-8.3 12.3-12.5l1.5-2.2c-10.5 6.1-20.8 11.3-30.2 17.7-7.1 5-13.2 11.4-19.7 17.2Zm333.6-297.4c-.5.8-.7 1-.7 1.2-2.7 11-5.2 22.2-8 33.1-1.2 4.7 1.7 7.2 3.7 10.5l.6-.5 7.8-33.2c.3-1.2 1-2.6.6-3.5-1-2.5-2.5-4.8-4-7.6Zm-20.8 43.3c-2.4 1.2-4.5 2-6.3 3a5 5 0 0 0-2.3 2.7l-6.6 27c-.8 3.4-.8 3.4 2.7 3.3h1.9c1.5.2 2.1-.5 2.5-2 2.1-9.2 4.4-18.3 6.6-27.4l1.5-6.6ZM181.7 386.1c.2 0 .3.2.4.3 10.7-6.2 21.1-12.6 32-18.5 4.8-2.5 6.2-6.8 8.2-11.5l-2.4 1-23.4 13.6c-2.6 1.6-5.7 2.8-7.7 5-2.8 3-4.7 6.7-7 10ZM387.1 241l-2.2 9.2-6.6 29.3c0 .4 0 1 .2 1.3l4.2 6.6 1.2-5.4 7.3-32.7c.1-.7 0-1.7-.3-2.3-1-1.8-2.2-3.5-3.8-6Zm-6-11.8.7-1.7c2.4-10.2 4.5-20.5 7.3-30.6 1.4-5.2-.8-8.7-3.6-12.4l-.8 2.1-8 33.9c0 .6-.2 1.3.1 1.8l4.3 7Zm13 77.5-.4 1.1-7.6 35.4c-.3 1.4-1.1 3.1-.6 4.2 1 2.2 2.6 4 4.1 6 .3-.4.5-.6.5-.8l7.2-34.2c.4-2 .8-4.3.4-6.2-.5-1.9-2.2-3.4-3.6-5.5ZM54.4 462.3c-15.3 8.6-34 18-47.4 34.4l.8-.4 21-12.2c4.2-2.5 9-4.3 12.5-7.5 5.5-5 10.2-11 13.1-14.3Zm333.8-166.8.8-3 7-32.1c.3-1.5.8-3.3.3-4.6-.9-2.1-2.5-4-3.8-6l-.6.7-7.6 34.7c-.3 1.3-.7 3-.2 4 1 2.1 2.5 4 4 6.3Zm-17.5-116.7c.2 0 .3.2.5.3 1.8-1.4 3.5-2.9 5.4-4a7.1 7.1 0 0 0 3.3-4.9c1.6-7.1 3.5-14.2 5.2-21.4l2.2-10c-.3 0-.5-.3-.8-.4-2.1 2.3-4.4 4.5-6.4 6.9-1 1-1.7 2.4-2 3.8-1.6 5.8-3 11.6-4.4 17.5l-3 12.2Zm28.6 136-.6.6L391 352c-.2 1-.4 2.4 0 3.2 1 2 2.5 3.7 4 5.8l1.6-6.8c2-9.9 3.8-19.8 6.2-29.6 1-4.4-1.1-7-3.5-10Zm-255.8 93.5.4.3c.2 0 .4 0 .6-.2l32.4-19c.8-.4 1.8-1 2.3-1.8 2.3-3.2 4.4-6.5 6.6-9.8-7.9 4.1-15.5 8.5-23 13-4.1 2.5-8.8 4.1-11.7 8.3-.7 1-1.7 2-2.6 3l-5 6.2ZM391 193.6l-.5.6c-2.6 11-5 22.2-7.8 33.1-1.1 4.6 2 7 3.8 10.4l.5-1c2.4-10.5 4.5-21 7.3-31.5 1.3-4.8-.6-8-3.3-11.6Zm-6-12.7c.3-.7.6-1 .7-1.5l7.6-32.2c.2-.9.4-2 0-2.7-1.1-2.4-2.5-4.6-4-7.1l-.7 2.2-7.6 31.8c-.2.7-.5 1.7-.2 2.2 1.2 2.4 2.7 4.7 4.2 7.3Zm8.4 122.5.7-1.5c2.4-11 4.6-22.1 7.2-33.2 1-4.4-1-7.2-3.5-10.4l-.6 1-8 36.5c0 .5 0 1.1.2 1.5 1.2 2 2.5 3.8 4 6Zm2.7-101.5-.7 1.7-7.2 31.8c-.3 1.4-1 3-.5 4 1 2.4 2.6 4.5 4 6.9l.7-.8 7.6-34.4c.2-.8.4-1.8 0-2.4-1-2.2-2.4-4.3-4-6.8ZM105.9 430.6l2.7-1.3c4.8-2.8 9.8-5.5 14.6-8.6 7.2-4.7 15.9-7.4 21-15 1.5-2.3 3.5-4.4 5.2-6.5l-.4-.4-3.2 1.8c-8 4.6-16 9-23.8 13.8-6.7 4-10.7 10.8-16.1 16.2ZM368 183.7l-.5-.3-7.6 6.1c-.5.4-.7 1.2-.9 1.9l-5.1 20.7c-.7 2.6-1.2 5.2-1.8 8.2 2.6-1 4.8-2 6.9-3 .6-.3 1.2-1.2 1.3-2 1.7-6.4 3.2-12.9 4.8-19.3l3-12.3Zm-40.8 101.8c.1.2.4.9.9 1.2 1.1.7 2.4 1.2 3.5 1.8 1.4.7 2 .5 2.5-1.2 2.1-9.2 4.5-18.4 6.7-27.6 1-3.9 1-3.8-3.2-3.7-2.1 0-3.4.7-3.8 3-.5 3.4-1.6 6.6-2.4 9.8l-4.2 16.7Zm67.2-139-.8 2.5c-2.3 9.6-4.3 19.3-7 28.7-1.4 5.1 1 8.3 3.7 12.3l8-35c.1-.4 0-1-.1-1.3l-3.8-7.1Zm4.3 164.8c2.4-11.8 4.5-23.1 7.2-34.3 1.1-4.5-.8-7.4-3.4-10.8l-.5 1.8c-2.3 10.7-4.3 21.5-7 32-1.3 4.9.9 7.7 3.7 11.3Zm-101.5-.3 35.2-20.5c-1.8-1-3.3-1.8-4.8-2.3-1-.3-2.2-.4-3 0l-26.3 15.2-3.7 2.4 2.6 5.2Zm-266 127.4-.4-.2c-2.3 3.3-4.7 6.5-6.9 9.9-2.2 3.4-4.7 6.7-6.3 10.4-4.5 11-8.7 22-13 33l-.3 1.4c4-5.2 7.5-10.6 10.8-16 1.8-3 3.4-6.2 4.8-9.4 2-4.6 3.8-9.3 5.6-14l5.8-15.1Zm347.9-295 .7.5c2.3-2.4 4.8-4.8 7-7.3.8-.8 1.3-2 1.6-3a896 896 0 0 0 4.7-18.6c1-4 1.8-8 2.6-12-1.6 1.4-2.8 2.9-4 4.4-3.2 3.6-6 7.3-6.8 12.4-.7 4.6-2 9.1-3.2 13.7l-2.6 10ZM261.3 332l34.7-20.2-2.8-5.2-30.2 17.6c-.5.3-.9 1-1 1.5l-.7 6.3Zm135.6-77.1c.3-.6.5-.8.5-1.1 2.3-10.1 4.3-20.2 6.8-30.2 1.2-4.9.4-8.8-3.2-12.4l-.6 2-7.5 33.4c-.1.7 0 1.5.2 2l3.8 6.3Zm-283 165-.2-.4-2.2 1.2c-5.6 3.3-11.3 6.4-16.9 9.8-4.8 3-10 5.1-14 9.5-3.7 4.3-7.7 8.4-11.6 12.5.2-.4.8-.6 1.3-.9l20.8-12c3.7-2.2 7.7-4.3 11-7.2 4.2-3.8 7.9-8.3 11.8-12.5Zm84-100.3c-1.9-1-3.4-1.8-4.8-2.8-1.4-1-2.3-.8-3.5.3-5 5-10.2 9.7-15.2 14.5-4.1 4-4 4-.6 8.5l.7 1 23.4-21.5ZM395.4 199l.7-2.8 7-30.6c.3-1 .6-2.1.2-3-1-2.2-2.4-4.3-4-7l-.4 1.8-7.7 33c-.1.5-.1 1.2.1 1.6l4.1 7Zm12.4 75.4-.7 1.1-7.2 35.2c-.1.8-.6 1.9-.3 2.4 1.1 2 2.5 4 4 6l.6-1.3 7.2-35.1c.1-.8.5-1.7.2-2.3-1-2-2.4-4-3.8-6Zm-182 78.2 1.3-.6 29.1-17c3.7-2.1 4.6-4.6 3.6-9l-29 17c-.5.3-1 .8-1.2 1.3-1.3 2.5-2.4 5-3.9 8.3Zm168-209 .5-1.5c2.3-9.7 4.4-19.5 7-29.2 1.3-4.7-1.4-7.6-3.6-11.7l-8 33.7c-.1.4 0 1 .2 1.3l3.8 7.3Zm-17.4 6.4-.7-.4c-1.8 2-3.7 3.9-5.4 6-1.3 1.5-2.8 3.2-3.4 5-1.2 3.3-1.7 6.7-2.6 10l-4.2 17.1 8.2-6.2c.4-.3.6-1 .7-1.4 1.4-5.5 2.8-11 4-16.4l3.4-13.7Zm-41.5 104.9h5.6c1.3 0 1.7-.4 2-1.7l5.6-22.3 1.8-8-7.1 3.2c-.5.2-1 1-1 1.5l-6.9 27.3ZM78.2 440.1c-15.6 8.7-31.6 17.3-44.1 31l-1.8 1.8c.8.1 1.4 0 1.9-.4 3.1-1.8 6.3-3.6 9.3-5.5 8.4-5.2 18-8.7 24.6-16.5l.7-.6 9.4-9.8Zm328-220.8-.7 1.6c-2.3 10.2-4.2 20.4-6.8 30.5-1.3 4.8.6 7.9 3.5 11.4l7.7-35.7a3 3 0 0 0-.3-1.8c-1-2-2.1-3.8-3.4-6Zm-214.8 153c.9-.3 1.4-.4 1.9-.7l26.8-15.8c1.4-.8 3-1.7 3.9-3 1.5-2.4 2.5-5.1 3.8-8-.6.3-1 .3-1.2.5-7 4-13.9 8.4-21.1 12a32.7 32.7 0 0 0-14.1 15Zm209.1-164.7.5-1.6 7-31.6c.2-1.1.4-2.4 0-3.4-1-2-2.2-4-3.5-6l-.7 1.4-7.5 33.2v1l4.2 7ZM21.4 449.1l.3.3c2.6-3.8 5.3-7.5 7.8-11.4 2-3 4.2-6 5.6-9.4 3-6.7 5.4-13.5 8-20.3l3.6-9.6c-1.4 1-2.4 2.2-3.3 3.5-2.8 4-6.4 7.6-8.3 12-5 11.4-9.2 23.2-13.7 34.9Zm389.8-221.3-.6.1c-2.3 11-4.2 22-7 32.8-1.2 4.6 1.6 6.8 3.5 10 2.5-11 4.6-22 7.2-32.8 1-4.4-1.5-7-3-10.1Zm-12.5-75.6.7-1.5 6.3-26.8c.5-2.2 1-4.7.5-6.8-.5-2.2-2.1-4.2-3.5-6.7l-.4 1.6-6.6 28.4c-.4 1.6-1.2 3.5-.7 5 .7 2.3 2.4 4.4 3.7 6.8ZM195 364.4l-.3-.5-2 1.2c-6.7 3.8-13.2 8-20 11.4-7 3.6-10.8 10.1-15.6 15.8 8.2-4.5 16.3-9.1 24.3-13.8 2.4-1.4 5-2.6 6.9-4.6 2.6-2.8 4.5-6.3 6.7-9.5ZM404.1 69.1l-.3-.3c-2 2.7-4 5.3-5.9 8.1-1.6 2.5-3.6 4.6-4.3 7.7-1.6 7.3-3.6 14.5-5.3 21.7-.4 1.2-.5 2.5-.8 3.7 2.6-2.4 5-5 7-7.7 1.2-1.8 2.5-3.8 3-6 2.4-9 4.5-18.1 6.6-27.2Zm5.3 104.5-.5 1c-2.2 9.6-4 19.1-6.6 28.6a12 12 0 0 0 3.3 12.4l1.6-7.1c2-9 4-18 5.8-26.8.2-.6.2-1.3 0-1.8-1-2-2.2-4-3.6-6.3Zm6.4 62-1.1 4.1-6.1 29.4a9 9 0 0 0 3.6 9.3c0-.3.2-.5.3-.7l6.8-32.8a6 6 0 0 0 0-3.4c-1-1.9-2.2-3.6-3.5-5.9Zm-12-74c.4-.9.7-1.4.8-1.9l6.1-27.7c.4-1.7 1.2-3.5.8-5-.8-2.4-2.3-4.5-3.7-7l-.7 1.6c-2.4 10.2-4.8 20.3-7 30.4-.3.9-.2 2 .2 2.8 1 2.2 2.2 4.3 3.5 6.8Zm-61.4 63.1c2.3-1 4.1-1.9 6-2.5a3.6 3.6 0 0 0 2.6-3c1.2-5.3 2.6-10.6 4-15.9l2.9-12.4c-2.6 2-4.7 3.4-6.7 5.1-1 .8-2 2-2.2 3-2.3 8.4-4.3 16.7-6.6 25.7Zm41.9-107.5-.4-.1-8 9.5c-.7 1-1.3 2.2-1.6 3.3l-4.7 18.6-1.4 6.5.6.3c2.5-2.6 5-5.1 7.4-7.8.9-1 1.4-2.4 1.8-3.7l3.1-13 3.2-13.6ZM38 406.7l.4.2c1.6-2.1 3.4-4.2 4.9-6.4 2.3-3.2 4.8-6.4 6.5-10 2.5-5 4.2-10.4 6.2-15.7l5.8-15a15 15 0 0 0-3.3 3.2c-2.6 3.6-6.2 6.4-7.7 10.8-2.3 6.4-5 12.6-7.5 18.9l-5.3 14ZM406.2 66.8l-.8 2.2c-2 8.6-3.9 17.3-6.4 25.8-1.5 5 .8 8.2 3.3 12.2l.5-1.7a9171 9171 0 0 0 7-29.4c.2-.5.2-1.2 0-1.6-1-2.4-2.2-4.7-3.6-7.5ZM36.7 458.2l-.3-.2-.9.6c-3 2.7-6.3 5.2-9.2 8-3.3 3.1-7.1 5.5-9.3 9.7-1 1.9-2.4 3.7-3.5 5.5l-9.2 14.4a3 3 0 0 0 1.6-.8L18.4 484c2.7-2.6 5.5-5.3 7.7-8.2 2.4-3 4.1-6.6 6-9.9l4.6-7.8Zm376.1-328.8h-.6c-2.2 9.6-4 19.2-6.6 28.6-1.3 4.9.6 8.2 3.1 12l.7-1.7 6.1-27.2c.4-1.8 1-3.8.5-5.5-.6-2.2-2-4.2-3.2-6.2ZM163.1 382.8l-.3-.3-1 .4-15.4 9c-3.6 2.1-7.4 4-10.5 6.6-4 3.3-7.3 7.3-10.8 11-.6.6-1 1.4-1.4 2.1 7.4-3.8 14.4-8 21.5-12 2.7-1.6 5.8-2.8 8-5 3.6-3.6 6.6-7.8 9.9-11.8Zm170-126.6c-2.3.2-4.1.3-5.9.6-.5 0-1.3.8-1.4 1.4-1.8 6.6-3.6 13.2-5.2 20-1.1 4.3-1 4.3 3 6.4 1.7.9 2.5.6 3-1.3 1.5-6.7 3.2-13.4 4.9-20l1.7-7.1ZM48 413.6l-6.4 9c-2.3 3.5-5 6.7-6.7 10.5-3.3 7.4-6 15.2-8.9 22.8l-3.4 8.7c12.7-15 19.1-32.6 25.4-51Zm83.2-12.3c-12.6 4.7-37 22.8-40.9 30.3l17.9-10.5c5-3 10.4-5.5 14.3-10.2 2.5-2.9 5.2-5.5 7.8-8.3.3-.2.4-.6.9-1.3Zm279.8-325-.9 2.3c-2 8.6-3.4 17.4-6 25.8-1.6 5.1 1.3 8.1 3 12.3.5-1 .8-1.4.9-2l6.7-29.5c.2-.6.2-1.3 0-1.8l-3.7-7.2ZM190 315l-4.9-3c-1.3-.9-2.2-.5-3.3.5-5 5.2-10.3 10.3-15.4 15.5-.4.4-.6 1.7-.3 2.1 1 1.5 2.2 2.9 3.4 4.4l20.5-19.5Zm133.3-153-5.4-.7c-1.6-.4-2.6 0-3.5 1.4L302 182.3c2 .8 3.9 1.5 5.8 2.4 1.3.6 2 .1 2.6-1l7.2-12 5.8-9.8Zm96 78h.7l.5-2.3c1.8-8.9 3.3-18 5.7-26.7 1.3-4.8 0-8.3-3-12l-7.2 34.2c0 .4 0 1 .2 1.3l3.2 5.5Zm-54-78.9-.8-.6-6.7 7.3c-.9 1.1-1.8 2.4-2.1 3.8-1.3 4.3-2.2 8.6-3.3 13l-2.6 10.1.5.4 7.7-6c.3-.4.5-.9.6-1.3l6.6-26.7ZM294 304.6l30.7-18c-1.6-.8-2.7-1.2-3.6-1.8-1.8-1.3-3.3-1-5 .2-2 1.5-4.3 2.5-6.4 3.7l-18.3 10.7 2.6 5.2Zm-218.2 19c-.2 0-.4-.2-.5-.4-2 2-4.2 3.8-6 5.9-1 1-1.8 2.3-2.3 3.5l-7.7 19.5-5.6 14.1a44.5 44.5 0 0 0 10.8-13.4c2-4.7 3.8-9.5 5.6-14.2l5.7-15Zm93.5 12.9-19.7 19c-.5.5-1.1 1.1-1 1.5.4 2 1 3.9 1.6 6.2l23.3-21.3-4.2-5.4ZM290 300.3l-1.3.5-23 13.5c-3 1.7-4 4.6-3 8.4l30-17.4-2.7-5ZM395.2 78l.4.2 6.5-9.1c1.3-1.9 2.7-3.8 3.4-5.9 1.3-4.2 2.2-8.6 3.2-13l3.1-13.3c-1.8 2-3.4 4-4.7 6.2-2.1 3.6-4.5 7.2-6 11-1.6 3.9-2.2 8-3.1 12.1L395.2 78Zm-164 262.5.5.3 26.1-15c3.3-2 4.3-4.8 3.4-8.8l-.9.3-21.5 12.7c-1.3.8-3 1.5-3.8 2.7-1.5 2.5-2.5 5.2-3.7 7.8ZM99 420c-15.5 7.4-30.1 17.3-41.8 30.7 15.3-8.5 31.3-16.3 41.8-30.7Zm311.4-347 .5-1.2 6.4-27.7c.9-4-1.6-6.7-3.2-10l-.7 1-6.8 28.5c-.1.7-.2 1.6.1 2.3 1 2.3 2.3 4.5 3.7 7Zm-350 306.6c-1.4 2-3 3.8-4.3 5.8-2.2 3-4.9 5.9-6.4 9.3-3.2 7.2-5.8 14.7-8.6 22.1l-3.2 8.3c8.4-8.7 20.4-32.8 22.6-45.5ZM392 86.3l-.4-.2c-1.4 1.8-2.8 3.5-4 5.4-2.1 3-4.7 6-5.9 9.5-2.3 7.2-3.9 14.6-5.7 22-.1.4.1.9.2 1.6l4.6-5.3A25 25 0 0 0 387 107c1.1-7 3.2-13.8 5-20.7Zm-65.5 169c1.9 0 3.3-.2 4.7 0 2 .2 2.6-.7 3-2.6l5.4-21.1 1-4.6c-2.3 1-4 2-6 2.6-1.5.5-2.2 1.6-2.5 3l-3.2 12.8-2.4 9.8ZM29 473.5l.3.3 7.1-6.5c2.3-2 4.7-4 6.9-6.1 2.9-3 5.8-6 8.3-9.3 1.7-2.3 2.8-5 4.2-7.6l2.7-5.3c-4.2 3.3-8 6.8-12 10a29.4 29.4 0 0 0-8.8 9.8c-.3.8-.9 1.5-1.3 2.2L29 473.6ZM423 196l.6-2.6c2-9.1 3.7-18.3 5.9-27.3 1-4.5-1.1-7.4-3.3-11.1l-6.8 32.3c-.1.8 0 1.7.3 2.4.8 2 1.9 3.8 3.2 6.3Zm-8.1-114 .5-.4 6.8-29.2c.2-.8.1-1.7-.2-2.3-1-2.3-2.1-4.4-3.3-6.8L418 45 412 71.3c-.3 1.3-.7 2.9-.2 4 .7 2.3 2 4.5 3.2 6.8Zm-269 206.7-6-3.6-15.4 24c2 .6 3.6 1.1 5.3 1.4.6 0 1.7-.3 2-.8 4.7-6.8 9.3-13.7 14.1-21Zm54.4 70 1.8-.7 24.3-14c4-2.2 4.5-6.4 6-10-5.7 3-11.2 6.2-16.8 9.4-2.7 1.6-5.9 2.8-8 5-2.7 2.8-4.6 6.5-7.3 10.4Zm219-267.9h.8c1.9-8.4 3.2-17 5.7-25.2 1.6-5-.3-8.5-2.6-12.5l-.4.5c-2 9-3.9 17.9-6.3 26.7-1.1 4.4 1.3 7.2 2.9 10.5ZM90 287.4c-1 .6-1.7.9-2.1 1.3-2.3 2-5.2 3.4-6.4 6.7-3 8.2-6.4 16.4-9.5 24.5l-2.9 7.4c4.6-4 9-7.8 11-14 2.7-8.6 6.4-16.9 10-26Zm-15.7 58.2-.5-.4c-1.1 1.3-2.3 2.5-3.3 3.9-2.9 3.5-6.3 6.5-7.5 11.2-1 3.6-2.8 7-4.1 10.5l-6.5 16.8c3-3 5.5-6.3 8-9.6 1.3-1.8 2.7-3.6 3.5-5.5 1.5-3.3 2.7-6.7 4-10 2-5.7 4.2-11.3 6.4-17Zm345.2-340-.5-.2c-1.4 2.3-3 4.6-4.3 7-2.2 4-4.9 7.9-6.4 12.2-2 5.9-3 12-4.5 18.2l-1 4a35 35 0 0 0 4.7-6c2-3.2 4.7-6.2 5.7-9.7 2.5-8.4 4.2-17 6.3-25.5ZM357 166l.8.6c1.5-1.6 2.8-3.4 4.4-4.8a15 15 0 0 0 5.2-9.2c.7-3.7 1.8-7.3 2.7-11l2.3-9.8-.5-.2c-2 2.5-4.2 5-6.1 7.6-1.3 1.8-2.7 3.5-3.4 5.5-1 2.5-1.4 5.3-2 8L357 166ZM51.6 433.6l-.4-.2c-2.2 1.7-4.5 3.4-6.6 5.2-2.8 2.5-6 4.8-8 7.7-4.5 6-8.3 12.5-12.4 18.7l-1.6 3.2 9.9-8.3c2.8-2.5 5.8-4.9 8-7.8 2.9-3.8 5-8.2 7.5-12.3l3.6-6.2ZM171 375.3l.5.5 1.2-.6c6.1-3.5 12.1-7.3 18.4-10.6 4.8-2.4 8.4-5.9 11-10.5l2-3.5c-3.8 1.8-7.4 3.8-10.9 5.9-6 3.7-13 6.3-17.3 12.7-1.4 2.2-3.2 4-4.9 6.1Zm253.5-275c1.9-8.6 3.2-16.8 5.6-24.6 1.5-5.2.5-9.3-2.4-13.5-.3.6-.6 1-.7 1.6-1.9 8.5-3.5 17-5.8 25.3-1.2 4.6 1 7.4 3.3 11.3ZM383 94.7l.6.3 3.5-4.9c3.3-4.5 7-8.7 7.6-14.6.2-2 .8-3.8 1.3-5.7l3.1-13.2a16 16 0 0 0-3.2 3.8c-4 6.1-8.2 12.1-9.4 19.7-.7 5-2.3 9.7-3.5 14.6Zm-35.4 104.2-7.8 5.7c-.6.5-1 1.3-1.1 2l-5.2 20.5c-.2.5 0 1 0 1.9 2.1-1 4-1.8 5.7-2.8 1-.6 1.9-1.5 2.2-2.5l6.2-24.8Zm-207.4 195 1-.2 16.4-9.5c5.2-3 10.3-5.9 13.7-11 1.4-2.3 3.3-4.1 4.9-6.1-5.2 2.4-10.1 5.2-15 8-2.8 1.8-6 3-8.4 5.3-4.4 4-8.3 8.8-12.6 13.5Zm-56.6-104 .7.4c2.6-2.6 6.3-4 7.7-8 2.3-7 5.2-13.9 7.9-20.7l3.2-8.3-2.7 1.3c-2.7.9-4.2 2.6-5.1 5.3-2 5.7-4.2 11.2-6.4 16.8l-5.3 13.2Zm230.7-128.9c-2.3-.2-4.1-.7-5.9-.6-.9 0-2 .6-2.6 1.3-4 5.4-7.7 10.8-11.4 16.2-.2.4 0 1.6.5 1.8 1.4.7 3 1.3 4.6 1.6.7.2 1.8-.2 2.2-.7l9-13.6 3.6-6ZM168.7 335.6c-1.6-1.7-2.7-3.4-4.3-4.6-.4-.2-2.3 1.9-3.5 3l-13.4 13.4c-.5.5-1.1 1.4-1 2 .3 1.9 1 3.7 1.5 5.9l20.7-19.7Zm-82-22.9-.4-.2c-1.3 1.2-2.4 2.5-3.8 3.5a17.2 17.2 0 0 0-6 8.8c-1.1 3.3-2.5 6.6-3.8 9.9L66.1 352c2.2-2.2 4.2-4.5 6.2-6.9 1.3-1.6 3-3.3 3.8-5.2 3.2-7.5 6-15.2 9-22.8l1.6-4.4Zm-23.3 79c-11.8 12.3-16.8 28.5-22.6 44.7 10.9-13.6 18-28.8 22.6-44.6Zm83.7-33.6-2.6 2c-5.2 5.1-10.3 10.3-15.7 15.2-3 2.8-3 6-2.6 9.8l5.3-4.8c4-3.7 8-7.5 12.3-11 5.4-4.6 5.7-5 3.5-10.9l-.2-.3Zm5.8-65.1-6-3.7-14.8 21.9c1.7.3 3 .5 4.3 1 1.9.6 3 0 4-1.6L153 293Zm185-155.2c-2 .3-3.4.8-5 .8-2.4 0-3.8 1.3-4.9 3.3-1.2 2.2-2.7 4.2-4.1 6.3l-7.4 11.7c2 .2 3.8.3 5.4.7 1.6.4 2.5-.3 3.3-1.5l4.5-7.5 8.2-13.8Zm41.7-34.4-.5-.2c-.7 1-1.3 2-2 2.8-4.6 5.9-9.1 11.7-9.8 19.4-.1 1.3-.7 2.6-1 3.9l-2.3 9.2c1.3-.6 2-1.5 2.8-2.4 3.3-4.3 7.4-8 8.4-14 1-6.3 2.9-12.5 4.4-18.7ZM182.7 310.5c-2.4-1.4-4.2-2.6-6.1-3.5-.4-.2-1.4.1-1.7.5l-13.1 14.3c-.5.5-.7 1.7-.4 2.2.9 1.5 2.1 2.9 3.2 4.3l-.4-1 18.5-16.8Zm-34.8 73a97.2 97.2 0 0 0-36.8 27.4l2.4-1.2 15.2-8.8a69 69 0 0 0 8.4-5.7c2.2-1.8 4-4.1 6-6.3l4.8-5.4Zm-39.7-49h4.3c2 .3 3-.6 4-2.2l6.3-9.1L130 312c-1.6-.4-3-.6-4.1-1.1-1.8-.8-2.8 0-3.7 1.4l-6 9.8-8.1 12.4Zm246-162.1-.8-.4-6.4 6.7c-.8 1-1.8 2-2 3-2 7-3.6 14.1-5.5 21.5 4.6-3.4 9.9-5.8 10.1-12.4 0-1 .5-1.8.7-2.7l3.9-15.7Zm-233.4 226c-7 4.2-14.4 7.8-21 12.6-6.5 4.9-12 11-18 16.6a103.1 103.1 0 0 0 39-29.1ZM431.7 67.9c2-9.1 3.6-17.7 6-26 1.3-4.6-1.5-7.3-2.6-11-.4.3-.6.4-.6.6l-6.5 28c-.1.6 0 1.2.2 1.7l3.5 6.7Zm-107.1 189c-2 0-3.7-.2-5.2 0-.8.2-2 .9-2.1 1.5-1.8 6.3-3.4 12.6-5 19 0 .5.3 1.5.7 1.8 1.6 1 3.3 1.7 5.3 2.7 2-8.4 4.1-16.5 6.3-25ZM80.3 420.3l-.3-.2c-1.7 1.5-3.6 2.9-5.3 4.5-5.5 5.4-12.6 9.2-16 16.7-1.5 3.5-3.6 6.8-5.4 10.2.6 0 1-.3 1.2-.6L68.7 438c2.1-2 4.7-3.7 6.1-6 2.3-3.7 3.7-7.8 5.5-11.7Zm326-392.8-.6-.2-3.9 6.4c-3.6 6-7.7 12-8.6 19.3-.2 1.7-.9 3.3-1.2 5l-1.7 7.8.6.2c4.1-7 10-13 11.4-21.7.8-5.7 2.6-11.2 4-16.8ZM53.8 401.9l.5.3c4-5.7 8.6-11.1 11.7-17.3 3.6-7.2 6-15.1 8.9-22.7l.1-1.3c-3.8 4.4-8 8.7-10.5 13.8-4.1 8.8-7.2 18.1-10.7 27.2Zm232.6-107.8c-6.6 3.9-13.3 8-20.1 11.7a4.8 4.8 0 0 0-2.7 4.2v3.9l1.6-.7 20.1-11.8c4.8-2.7 4.8-2.6 1.5-7l-.4-.3ZM99 281l-.4-.4-4.7 3.7c-1 1-2.3 2-2.8 3.4-1.8 4.3-3.3 8.8-5 13.1l-6.2 15.7c3-2.4 5.7-5 8.4-7.7.3-.3.5-1 .7-1.4l10-26.4Zm16.8-60c-2.4.5-4.8-.6-5.9 2l-11 28.2c-.4 1-.7 2-1 3.4 4-1.3 7-3.1 7.8-7.4.3-1.7 1.2-3.3 1.9-5 2.6-7 5.3-13.8 8.2-21.2Zm175 77.4L317 283c-1.7-1-2.8-1.8-4.1-2.2-1-.3-2.4-.5-3.2 0-7.2 4-14.3 8.1-21.6 12.4l2.4 5.1Zm-44.4-138.2c1.9.8 3.4 1.2 4.7 2 1.4.6 2.3.3 3.3-.7 2.3-2.4 4.8-4.5 7.2-7l9.7-10.4c-.3-.2-1-.6-1.6-1.2-1.6-2-3-1.5-4.6.1-2.7 2.7-5.6 5.1-8.4 7.7l-10.3 9.5Zm189.3-83.9h.5l5.2-23.5c.4-2 1.2-4.1.9-6-.4-2.3-1.8-4.3-3-6.8l-.8 1.6-5.1 22.6c-.4 1.8-1 3.8-.7 5.5.5 2.3 2 4.4 3 6.6ZM236.6 329l.4.4 1.4-.7c6.8-4 13.6-7.8 20.3-11.9 3.4-2 4.3-4.4 3.3-8.5l-16.9 9.9c-1.7 1-3.7 1.8-4.8 3.2-1.6 2.3-2.5 5-3.8 7.6Zm62.2-246.5 16.8-10.4c7.4-4.6 15-9 20.6-16l2.5-2.5a4 4 0 0 0-2.6.7c-7.6 4.7-15 9.5-22.8 14.1-6 3.6-11 8-14.5 14.1Zm19.1 173 5 .1c1.4 0 2.1-.2 2.5-1.8 1.2-5.4 2.7-10.6 4-16 .6-2 1-4 1.5-6.4-1.4.6-2.1 1.1-3 1.3-3.6.8-5.6 3-6 6.7-.1 1.5-.7 3-1 4.5l-3 11.7Zm-248.4 164-.4-.5-4.8 3.8c-3.1 2.6-6.8 4.8-9.2 8-4.4 6-8 12.6-11.8 19 4.5-3.3 8.6-7 12.7-10.5 1.7-1.5 3.9-2.8 5-4.6 3-5 5.7-10.2 8.5-15.3Zm301-307.2 1.4-1.2c2.7-3.7 5.9-7.3 8-11.3 1.7-3.2 2.3-7 3.2-10.7l3.3-13.2c-2.6 3-4.6 6.3-6.8 9.4a31.5 31.5 0 0 0-5.3 11.8c-1 4.9-2.4 9.7-3.7 15.2Zm43.8-107-.6.4c-9.1 5.7-18 11.7-27.3 17-6.7 4-10.9 10.5-16.9 15 9.5-3 40.5-25.6 44.8-32.3Zm-53.6 141.3-.6-.3c-1.8 2-3.6 4-5.3 6.2-1.3 1.6-3.1 3.2-3.7 5-2 6.6-3.4 13.3-5.2 20.3.7-.4 1.3-.6 1.7-1 4.2-4.4 8.8-8.6 9.5-15.5.6-5 2.4-9.8 3.6-14.7Zm81.4-12c1.7-8.5 3-17 5.2-25.3 1.2-4.7-.1-8.1-2.5-11.8l-.6 1.2-4.6 22c-1.1 5-1.8 9.7 2.5 14Zm-376 275-.4-.3c-2.2 1.5-4.4 2.9-6.5 4.5-1.9 1.5-3.8 3-5.2 5-2.6 3.5-4.8 7.3-7.1 11l-6.4 10c2.3-1.2 4.3-2.8 6.3-4.3 4.8-3.5 8.9-7.5 11.6-12.8 2.3-4.5 5.2-8.7 7.8-13Zm374-324.3.7-2.4c1.6-7.4 2.8-15 5-22.2 1.3-4.6-.2-8-2.6-11.8l-.6 1.5-5 22.9c-.4 1.7-1.1 3.6-.7 5.2.5 2.2 2 4.3 3.2 6.8ZM66.6 368.5l.5.3 7.5-9.9c1.2-1.7 2.6-3.3 3.4-5.2 1.7-4 3-8 4.6-12.1l4.1-11.1c-1.8 1.4-3.2 3-4.6 4.7-3 3.4-6 6.6-7 11.2l-1 2.7-7.5 19.4Zm162.4-243h.9c9.6-6 19.5-11.8 28.9-18.2 2.9-1.9 4.7-5.4 7-8.2l-.5-.5-.8.5c-9.8 6.2-19.6 12.6-29.7 18.6-3.1 1.9-4.5 4.5-5.8 7.9Zm34-20.7c8.6-5.3 16.6-10.5 24.7-15.2 5.9-3.4 10.3-8 14.4-13.7l-1.4.6c-8.5 5.3-17 10.7-25.6 15.8-5 3-9 6.8-12 12.5Zm-170.3 178 .4.4c.8-.5 1.7-1 2.4-1.7 2-1.9 4.6-3 5.7-6 2.2-6.5 4.8-12.8 7.2-19.2l2.1-6.3c-4.5 1.5-5.7 2.3-6.5 4.1L92.7 283ZM277.3 149c-1.2-1-2.3-1.6-3.1-2.6-1.2-1.3-2-.9-3.1.2l-15.6 14.8-1.4 1.8c1.7.7 3.1 1.2 4.5 1.9 1.3.6 2.1.4 3.1-.6l15.6-15.5Zm-66.9 196c6.6-3.8 13-8 19.8-11.3 4.6-2.4 5.8-6.5 7.8-11.2-1.5.7-2.5 1-3.4 1.6-4 2.3-7.9 5-12 7-6.3 2.8-9 8.4-12.2 14ZM160 297.4c-5.4-4.5-5.4-4.5-9.2.8l-.5.5-10.1 14.2c1.5.4 2.8.7 4 1.2 1.9.8 3.1.2 4.2-1.3l3.7-5 8-10.4Zm-49-77.2c2.4-.3 4.7.8 5.8-1.9l6.8-17.5 4.1-11-4.1-1.8-12.6 32.2Zm6 113.7 2 .2c3.4.7 5.6-.7 7.3-3.6 2.1-3.4 4.6-6.6 7-9.9l4.8-6.9-4.4-1c-1.4-.5-2.4-.2-3.3 1.2-1.3 2.2-3 4.3-4.4 6.4l-9 13.6Zm-25.5 26.8c4-1.4 7.7-1.7 9.8-5.4 1.8-3.2 4-6.1 6.1-9.2l6.8-10.4c-1.4 0-2.3.1-3.2 0-2.5-.3-4.1.6-5.4 2.9-1.4 2.7-3.3 5.1-5 7.7l-9 14.4ZM79 336.4l.5.2 7-8c.9-1.1 2-2.3 2.5-3.6 1.7-4.1 3.1-8.4 4.7-12.5l4-10.8-.5-.4c-1.4 1.5-2.7 3.1-4.2 4.5-2.2 1.9-4 4-5 6.8-.9 2.7-2 5.3-3 8l-6 15.8ZM305.3 160c-2.3-.3-3.9-.7-5.5-.6-1 0-2.3.6-3 1.3-2.3 2.8-4.5 5.8-6.7 8.7l-4.6 6.4 5.3 2c1.3.7 2 .4 2.8-.7 2.1-3.2 4.4-6.3 6.6-9.5 1.7-2.4 3.3-4.8 5-7.6Zm18.4 72.5.6.5 6.6-3.1c.4-.2.7-.8.8-1.3l5.3-21c-2.3 1-4.3 2.4-6.2 3.9a6.5 6.5 0 0 0-2.8 4c-.9 4.4-2.1 8.6-3.2 12.8l-1 4.2Zm-164.1 91.6-14.7 16.3c-.3.3-.6 1-.5 1.4l1.4 5 17.7-17.6-4-5ZM367 121l-.5-.3c-1.3 1.7-2.6 3.3-3.7 5-2.2 3.6-5.6 6.5-6.6 10.8l-2.1 8.4-2 8a9.7 9.7 0 0 0 3.2-2.8c3-4 7.1-7.3 7.7-12.8.1-1.2.5-2.3.8-3.4l3.2-13ZM184 360.3c6.5-3.8 12.9-7.6 19.4-11.1 5-2.8 6.8-8 10-12.3-11.2 6-23 11.1-29.4 23.4ZM392.7 49.5a72 72 0 0 0-15.2 36.8 71.9 71.9 0 0 0 15.2-36.8Zm-266 326 .8-.5 16.7-15.9c3-2.8 3.2-5.4.6-9-4.7 4.8-9 10-14 14.3-3.7 3.1-4.1 6.7-4.1 11ZM328 139.4c-4.2.7-7.8.1-10 4.2-1.9 3.6-4.6 6.7-6.9 10l-3.5 5.4c2.4.3 4.3.7 6.2.7.7 0 1.6-.7 2-1.3l6.2-9.2c2-3 3.8-6.1 6-9.8ZM158 375.5c2.8-1.6 5.4-3 7.8-4.6 6.2-4 13.7-6.3 18.1-13 1.7-2.5 3.8-4.7 6-7.4-12.6 6.2-24 13-32 25ZM105.2 251c4.2-1.3 7.3-3 8-7.4l.6-1.6 8-21c-4.5-.6-4.9-.5-6.1 2.7L110 238l-5 13Zm163.2-111c1.2 1.1 2.2 2 3.3 2.8.5.3 1.6.3 2 0l17-16.3c.5-.4.7-1.5.5-2-.5-1.2-1.3-2.2-2-3.3l-20.8 18.8Zm-166 260.8-3.6 3c-3.7 3.2-7.3 6.6-11.2 9.5-5.3 4-7.1 9.8-9.5 15.5 2.6-1.9 5-4 7.2-6L98 411c.9-.7 1.7-1.7 2-2.7 1-2.3 1.5-4.7 2.3-7.6ZM417.7 5.1l-.6-.4c-4.8 4.5-9.7 9-14.6 13.3-5 4.5-7 11-10.2 16.6 5.3-4.1 11-8 15.2-13 4.1-4.9 6.8-11 10.2-16.5ZM168.4 302l-.8 1.3c-3.5 4-7 8-10.4 12.2-.5.6-1 2-.7 2.5.8 1.5 2 2.7 3.3 4.3l15-16.3-6.4-4ZM291 88.6s0-.1 0 0c-9.3 5.6-18.4 11.5-27.6 17-3.7 2.3-5.3 6-7.6 9.3 5.8-3.3 11.4-6.9 17.2-10.2 7.1-4.2 13.6-9 18-16.1ZM101.7 407c1.1-.7 1.9-1 2.4-1.5l5.9-5.4 9-8c1.5-1.6 3.7-2.8 4.6-4.6 1-2.2 1-4.9 1.4-7.3l-.7-.3-1.5 1.1c-5.4 5.2-10.6 10.6-16.2 15.6-3 2.8-3.5 6.4-4.9 10.4ZM391.9 26c-8.3 2.3-36.1 22.8-40 29.4 14.2-8.7 29-16.6 40-29.5Zm-72.7 49.8c14.1-9 28.9-16.2 39.5-29.6-6.2 4-12.1 7.8-18.2 11.3a65 65 0 0 0-21.3 18.3Zm32.9 38.5c-2.6 1-4.7 1.6-6.6 2.5-1 .4-2 1-2.6 1.9-2.7 4-5.3 8-7.9 12.2l-4 6.5c4.6-.1 8.6-.4 10.4-5.3.5-1.2 1.3-2.3 2-3.4l8.7-14.4Zm-186.7 251a88 88 0 0 0-33.4 25.1c7-3.8 14.1-7.2 20.4-11.9 5-3.6 8.7-8.8 13-13.3ZM286.7 95.7l2-1c4-2.5 8-5.1 12.1-7.5 8.2-4.7 16-9.9 22-17.4l1.4-1.8-1.7.7c-6.8 4.2-13.7 8.4-20.5 12.8-2.8 1.7-5.6 3.3-8 5.5-2.5 2.4-4.6 5.4-7.3 8.7ZM108 273.8c-3.5 2.1-7.2 3.9-8.6 8.2-1.5 4.6-3.4 9.1-5.1 13.7l-3.8 10.2a28 28 0 0 0 10.2-12.5l7.3-19.6ZM87.8 404.5c-11.1 6.6-19.1 15.3-23.3 27.4l1.6-1.3c3.5-3.1 6.8-6.7 10.7-9.3 6.1-4 7.7-10.7 11-16.8Zm-29 4.4c9-12.4 16.9-25.4 20.3-40.1a101.6 101.6 0 0 0-20.4 40Zm134.8-255c.8-.5 1.3-.6 1.7-1 7.2-4.4 14.3-9 21.6-13.3 4-2.3 7-5 8.2-10-9.5 6-18.7 12-28.1 17.5-2.7 1.6-3.5 3.6-3.4 6.7Zm64.2-44.4-1 .4c-8.6 5.3-17.1 10.8-25.8 16-3.5 2-5.5 4.8-6.6 8.8l2.1-1.1c6.9-4.3 13.6-8.8 20.6-12.8 4.7-2.7 8-6.4 10.7-11.3Zm3.7 56.6c1.8.8 3.3 1.1 4.5 2 1.8 1 2.8.4 4-1l9-9.8c3.5-3.8 3.6-3.8-.4-7.1l-.2-.1-16.9 16ZM148 315c2.4.5 4.3 1 6.3 1.2.5 0 1.3-.4 1.8-1l11.4-13.7-4.6-2.9c-1.3-.8-2.1-.4-3 .7l-3.8 5-8 10.7Zm181.4-104.3c5.7-3 9.7-6.4 10.2-12.6 0-.5.3-1 .4-1.4l3-12.8c-4 4-9.3 6.9-10.3 13.3-.7 4.4-2.1 8.8-3.3 13.5Zm-196.6-18.4-2.2-1.1c-1.5-1-2.1-.4-2.7 1.1-2.2 6-4.6 11.8-6.9 17.7l-3.5 9.4c4.3.6 5 .2 6.3-3.4l4.5-11.7 4.5-12ZM80.5 399.5l-.5-.5-8 5.8c-1 .8-2.3 1.5-3 2.5-2.5 3.8-4.8 7.7-7.2 11.6l-4.1 7.2a38 38 0 0 0 5.6-4c2.9-2.3 6.4-4.3 8.5-7.3 3.4-4.8 5.8-10.2 8.7-15.3Zm277.6-270 .4.3 2.9-4c2.9-4.3 6.8-8 8-13.6 1-5.4 2.6-10.8 4-16.2a32.2 32.2 0 0 0-4 5.2c-2.4 3.5-5.3 6.9-6.8 10.7-2 5.7-3 11.8-4.5 17.7ZM118.4 246.7c-3 1-6.1 1.6-7.4 5.4-2.3 7-5.2 13.8-7.8 20.7l-1 3c2-1 3.5-2 5-3.3.9-.6 1.9-1.4 2.2-2.3 3.1-7.8 6-15.6 9-23.5Zm6.8 87.1h3.9c1.2-.2 3-.2 3.6-1 4.4-5.4 8.6-11 13.2-16.8-1.9-.5-3.4-1-4.9-1.2-.9 0-2.3.2-2.7.8-4.4 5.8-8.5 11.8-13 18.2Zm-55.4 45 .5.3c4-5.8 8.5-11.2 11.7-17.3 3.2-6.2 5-13 7.5-20l-1.2.8c-3.6 5.6-8.8 10-11 16.5-2.4 6.6-5 13.1-7.5 19.7ZM381.4 54.3l5.9-4.5c3.7-3 7.8-5.8 10-10.4 1-2.2 2.5-4.2 3.7-6.3l4.3-7.5c-10.6 7.9-19.7 16.4-23.9 28.7ZM129.2 189.5c2.2.5 3.1 2.7 5.2 1.4L160 175c2.5-1.6 2.5-2.4.2-4.9l-30.9 19.3ZM349 160.8l-.5-.3-4.3 5a23 23 0 0 0-6.4 11.8c-.6 4-2 7.7-2.9 11.6l.6.3c3-4.4 8.6-6.5 9.7-12.8.8-5.3 2.5-10.4 3.8-15.6ZM278.1 148l15.6-15.8c.5-.4.5-1.5.3-2.1-.3-1.2-1-2.2-1.7-3.7l-18.7 17.9 4.5 3.7ZM396.9 24.4l-.7-.5-.8.5c-4.1 3.8-8 8-12.4 11.4-5.5 4-7.6 10-10.5 15.7-.1.1 0 .3.1.7 4.8-4.1 10-7.7 14.1-12.4 4-4.6 6.8-10.2 10.2-15.4ZM98.5 315.8c-2 2.5-4 5.1-6.2 7.4a21.7 21.7 0 0 0-4.8 8.4l-3.2 8.4-3.6 10c10.1-9.4 14.3-21.6 17.8-34.2Zm2.6 41.3c4-.3 7.2-1.7 8.5-3.4l10-13.8 3-4.6h-3.3c-2.5-.4-4.1.7-5.4 2.7-2.9 4.6-6 9-9 13.4l-3.8 5.7Zm12-110.3.5.5c2-1.7 5.3-1.5 6.4-4.6l5.4-14.6 2.8-7.7c-4.6-.7-4.6-.7-6.2 3.2-1.2 2.7-2.2 5.5-3.3 8.3l-5.6 15Zm197.7 31.3 5.2-20.9c-2 0-3.7-.1-5.3.1-.7.1-1.8 1-2 1.7a304 304 0 0 0-3.6 14c-.2.9 0 2.2.4 2.6 1.6 1 3.3 1.6 5.3 2.5ZM141.6 378.6a116 116 0 0 0-34.8 26.3c13.5-6 25-14.9 34.8-26.3Zm-83.5 34 .3.3 7-5c1.3-.9 2.7-1.7 3.5-3 3.6-5.6 7-11.3 10.5-17l1.5-2.9c-1.7.8-3 1.3-4.1 2-1.6 1-3.4 2-4.4 3.4-3.6 5.1-6.9 10.5-10.3 15.8l-4 6.4Zm206.2-107 20.9-12.2c.3-.2.6-1 .5-1.5-.3-.9-.8-1.7-1.2-2.6-.5-1.2-1.1-1.4-2.4-.6l-15.7 9c-.6.4-1.3.9-1.4 1.5-.4 1.9-.5 3.8-.7 6.3Zm100.5-199.4c3.3-5 7.3-9.9 9.6-15.4 2.5-5.7 3.3-12 5-18.8a68.9 68.9 0 0 0-14.6 34.2Zm-55.2 173c-1.8-.8-3.1-1.3-4.3-2.1-1.2-.8-2.2-.6-3.4 0-4.2 2.6-8.4 5-12.6 7.4-4.4 2.6-4.4 2.7-2 7.1.1.2.3.2.5.3l21.8-12.6ZM75 386.3c4.2-1.2 7.4-3.5 9.4-6.3l4.2-6 9.2-13.8c-1.8.5-2.9 1-4 1.1a6.3 6.3 0 0 0-5 3.5c-1.6 2.8-3.4 5.5-5.2 8.3l-8.6 13.3Zm166.7-68 .4.3 19.7-11.4c.5-.3 1-.9 1-1.4.4-2 .6-3.8.9-6.3-6.2 3.6-12 7-17.8 10.2l-.5.8-3.7 7.8Zm42.7-142.9 11.8-15.5c-.2-.3-.3-.6-.5-.7-3.5-1.3-6.2-.7-8.6 2l-9.6 11.3 7 3ZM91.2 322l.3.4 3-3.5c2.7-3.6 6.5-6.3 7.6-11 .3-1.1.9-2.3 1.3-3.5l5-13.3-.8-.6-5 5.5c-1 1.3-2.5 2.4-3 3.8-3 7.4-5.7 14.8-8.4 22.2Zm218.3-66h5c1.4 0 2-.4 2.3-1.8.7-3.3 1.7-6.5 2.5-9.8l2.2-8.8-6.9 3c-.4.3-1 .8-1.1 1.3l-4 16Zm1.4-154.5-3.9 3.3-13.4 12.2c-3.5 3-3.5 3.3-.7 7.4.8-.7 1.6-1.2 2.3-2 4.5-4.2 8.7-8.9 13.5-12.8 2.9-2.3 3.3-4.6 2.2-8.1Zm-90.6 37.2c-.6.3-1.2.5-1.7.9-7.8 4.8-15.6 9.9-23.5 14.6-2.7 1.5-2.7 3.6-2.9 6.1.6 0 1 0 1.2-.2l16.6-10.3c4.3-2.8 9.3-4.8 10.3-11ZM340.7 168l3.2-3.8c2-2.5 4.5-5 6-7.8 1.4-2.8 1.7-6.1 2.5-9.2l2.2-9.3a47.4 47.4 0 0 0-14 30.1Zm-7.5-94.8a137 137 0 0 0 37.5-28c-13.8 8.3-27.5 15.6-37.5 28Zm-90 238.9-.5-.5c-3.5 2-7 4.2-10.6 6-3.8 2-7.2 4.2-9.2 8-1 1.9-2.2 3.5-3.3 5.2l.4.4 2.2-1c4.7-2.8 9.3-5.8 14.1-8.1 4.5-2.2 4.6-6.8 7-10ZM220 143.1l1.1-.3c7.6-4.7 15.3-9.1 22.6-14.2 2.6-1.8 4.2-5 6.2-7.6-.7-.4-1-.3-1.2-.2-7 4.3-13.9 9-21 13a16.1 16.1 0 0 0-7.7 9.3ZM123.7 219c4.4.5 5 .1 6.4-3a532 532 0 0 0 4-10.4l3.7-10.6-2.2-1.2c-1.4-1-2-.7-2.6 1-1.1 3.3-2.6 6.5-3.8 9.7l-5.5 14.5Zm175.1-60.7c2.5.2 4.3.6 6 .6.8 0 1.8-.6 2.3-1.2 1.8-2.3 3.4-4.8 5-7.1l6.8-9.9c-2 .4-3.3 1-4.6 1-2.7-.1-4.2 1.4-5.6 3.3l-5 6.7-4.9 6.6Zm-19.4-55.5-.4-.6-2.1 1.2c-7.1 4.4-14.2 9-21.4 13.3-3.6 2-5 5.7-7.2 8.9 7.8-4.4 15.6-8.8 22.9-13.8 3.2-2.3 5.5-6 8.2-9Zm4 51.4-14 15.2 6.8 2.8 11.9-14.1-4.7-4Zm43.3 61.3-.5-.4-7.7 6-.3.7a7063 7063 0 0 0-4 15.5c5-1.3 9.2-3 9.3-9l.2-1 3-11.8Zm13-151-1.5.8L318.9 77a68.4 68.4 0 0 0-14.3 14c12.6-7.8 25.7-14.3 35-26.6Zm30.7 9c5.7-3.4 11.3-6.6 14.2-12.9 1.5-3.2 3.6-6.2 5.5-9.3l1.7-3.3a60 60 0 0 0-7.1 5.3c-2.7 2.2-5.7 4-7.3 7.4-2.2 4.3-4.7 8.5-7 12.7Zm-61.5 10.2-2 1c-5.7 3.6-11.2 7.3-17 10.5a51 51 0 0 0-14.4 13.8l2-1c5-3.1 10-6.5 15.2-9.4 6.6-3.6 11.6-8.9 16.2-14.9ZM191 156.7l-27.5 17.1c1.6 3.7 1.6 3.7 4.7 1.8l18.5-11.4c2.6-1.6 5.4-3.1 4.3-7.5Zm-86 233.3c-4.1 3.4-8.2 7-12.5 10.1-4.7 3.6-5 9.3-7.8 13.9 4.8-4 9.3-8.2 14.2-11.8 4-3.1 5.6-7.2 6.2-12.2Zm173.3-241.5c1.5 1.1 2.4 1.6 3 2.3 1.5 2.1 2.7 1.1 4-.3 3.2-3.7 6.5-7.3 9.9-10.8 2.5-2.6 2.5-4.3 0-6.7-5.6 5-11 10.1-16.9 15.5ZM142.8 342.6l-1.4 1.3-11.9 13c-1.8 2-2.7 6.1-1.6 9 4.6-4.6 9.2-9 13.6-13.7 3.7-4 3.8-5.8 1.3-9.6Zm-41.3-48.1c4.9-3.6 9.3-7.4 10.7-13.5.1-.8.5-1.6.8-2.4 1.5-4 3-8 4.5-12.5-4.7 2.9-8.5 5.7-9.4 11 0 .5-.4 1-.6 1.4l-6 16ZM342 118c-2.5 1-4.4 1.6-6 2.4a9.4 9.4 0 0 0-3.2 2.5c-3 4-6 8.1-8.8 12.2l-2.2 3.6c3.5-.6 7.6.7 9.4-3.7 1-2.2 2.5-4 3.7-6l7-11ZM125.5 369.7c-5.5 5.7-10.5 11.1-15.8 16.2-2.8 2.7-3 6.2-4 9.7.8-.5 1.5-1.1 2.2-1.8 4.5-4.3 8.6-9 13.5-12.9 3.8-3 4.3-6.4 4-11.2ZM386.3 42.5c-8.8 6.9-18.5 13-21.5 25.3l7.5-6c2.2-1.8 4.8-3.5 6.4-5.8 2.9-4.3 5.1-9 7.6-13.5ZM197 344.2l.3.3c5.2-3 10.2-6.4 15.6-9 5.2-2.6 6.5-7.9 9.6-12a153 153 0 0 0-11 6c-1.7 1-3.7 1.7-5 3-3.3 3.8-6.3 7.8-9.5 11.7Zm-34.5-169.7-27.8 17.3 4 2.1 25.5-15.8-1.7-3.6Zm-36 68c-4.1 1.2-7.2 2.9-8 7.2-.5 2-1.5 3.8-2.2 5.8l-5 13.3.6.4c2.3-2 5.7-3.7 6.9-6.4 3-6.4 5.1-13.4 7.7-20.4Zm17.4 97.3 15-16.5-4-5-11.2 13.3c-.6.7-1.2 1.6-1.1 2.4.2 1.8.7 3.5 1.3 5.8Zm202-192.2 3.6-5.1c3.6-4.8 7.5-9.3 8.1-15.6.1-1.3.7-2.6 1-3.8l.9-3.4.6-3.2a56.5 56.5 0 0 0-14.2 31ZM75 411.8l.5.5c2.4-1.9 4.5-4 7-5.5 6.8-4.1 9.6-10.7 12.3-18.2-4.1 3-8.5 5-11.3 8.4-3.5 4.4-5.7 9.8-8.5 14.8ZM352.8 68.6l.6.4c4.5-4 8.8-8.2 13.6-11.9 4.6-3.6 5.3-9.2 8.1-13.6-2 1.4-3.7 3-5.4 4.5-3.4 3.1-6.6 6.5-10.2 9.2-4.1 3-4.8 7.4-6.7 11.4Zm-218.5 264 .5.7c3.3-.6 7 .4 9-3.7.7-1.2 1.9-2.1 2.8-3.2l7.3-8.8-4.7-1.1c-1.5-.5-2.5-.2-3.5 1.3-1.3 2.2-3.2 4.1-4.7 6.2l-6.7 8.7ZM345 115.9c2.5-1 4.5-1.6 6.3-2.5a7 7 0 0 0 2.7-2.3l9-14.6 2.5-4.3c-2.2.7-4 1.7-5.8 2.8-.8.5-1.8.8-2.3 1.5L345 115.8ZM319 218.2l.5.3c2.5-1.8 5-3.5 7.4-5.4.4-.3.6-.9.7-1.4l4.4-17-.6-.3-5.8 6.2c-1 1-2.4 2-2.7 3.2-1.5 4.7-2.6 9.6-3.9 14.4Zm-7.7-109.7L294 125c-.3.3-.6 1-.4 1.3.6 1.4 1.4 2.6 2.3 4.2 4.8-4.9 9.1-9.6 13.8-14 2.5-2.3 2.9-4.7 1.6-8ZM120.9 243l.5.5 3.5-1.9c1-.7 2.2-1.5 2.7-2.6 1.2-2.6 2.1-5.4 3.1-8l4-11.4h-1.9c-2.3-.4-3.6.4-4.2 2.8-.7 2.5-1.8 4.8-2.7 7.3l-5 13.3ZM76.2 381.8c7.4-11.2 15.8-21.8 18.4-35.4a86.1 86.1 0 0 0-18.4 35.4Zm98.6-24.4c5.7-3.2 11.3-5.6 16-9.2 4.5-3.7 8.1-8.5 12.2-12.8a62 62 0 0 0-28.2 22Zm-83.5 22.3a90 90 0 0 0-.6-.7c-2.7 2-5.8 3.6-8 6-2.1 2.1-3.3 5-4.8 7.6l-6.3 10.3.5.4 6.5-4.8c1.4-1 3.1-1.6 4-3 3-5.1 5.8-10.5 8.7-15.8Zm19.2-25.3 5.3-1.5c1-.4 2.3-1 3-1.8l7-9 5.3-7.2h-6c-.5.1-1.2.7-1.6 1.2l-13 18.3ZM359 93.4c4-2 8.4-3.2 10.3-7.8 1-2.7 3-5 4.4-7.5l5-8.3c-4.7 3.3-10.2 5.3-12.8 10.9-2 4.3-4.6 8.5-7 12.7Zm5.8 2c-6.4 10-13.2 19.7-14.2 32.1 7-9.7 13.7-19.5 14.2-32.1Zm-279.3 261c8-10 14.8-20.4 17.3-32.7a69.2 69.2 0 0 0-17.3 32.7Zm21 1.4c-3.8.3-7 1-9.1 4.5-2.8 4.9-6.2 9.4-9.4 14l-2.8 4.5c4.7-2 8.2-4.1 10.6-8 3.4-5.1 7.1-10 10.7-15Zm162-243.3c-6.5 4-12.6 8.2-19.1 11.7-4.6 2.5-6.9 6.7-9.6 10.7 3.1-1.6 6-3.5 9.1-5.3a49 49 0 0 0 19.7-17Zm54-33.3c-3.5 2-6.7 4-9.9 6-6.4 4-13.4 7.4-18.3 13.7-1.4 1.7-3.4 3-5 4.5l.6.6c12.2-6.3 23.3-14 32.5-24.8ZM111 301.7c-9.8 7.4-12.4 19-16.4 30a62.2 62.2 0 0 0 16.4-30ZM315.2 90.5A118.1 118.1 0 0 0 348.7 65c-12.3 7.1-24.7 14.1-33.5 25.4ZM153.2 370l2.4-1.4c7.7-4.3 15.7-8.2 21.3-15.5 1.8-2.4 4-4.5 6.3-7a90 90 0 0 0-30 24Zm63.3-223.3L193.9 161c-2.5 1.6-3 3.1-2.4 6.2 5.6-3.5 11-7.2 16.8-10.3 4-2.2 6.4-5.3 8.2-10ZM190.2 163c-1.3 1-2.6 1.8-4 2.6-6.4 4-12.8 8-19.2 11.8-1.8 1.1-1 2.2-.5 3.4.7 1.5 1.6.7 2.5.2 5.4-3.4 10.7-7 16.2-10 3.2-1.8 5.6-3.7 5-8Zm166.6-79c3.9-3.8 9-5.3 11.7-9.9l7.4-13c-9 5.3-16.3 11.7-19 23Zm-141.7 68.2 1.3-.6c5.6-3.4 11-7 16.8-10.1 4.2-2.4 6.3-6.4 8.8-10.2-1 .4-1.7.8-2.5 1.3-5.9 3.6-11.5 7.4-17.5 10.6-3.8 2-5 5.4-6.9 9ZM130 218.8c1.4-.2 2.2-.5 2.9-.4 2 .3 2.7-.6 3.3-2.4l5.7-15.2c1.4-3.7 1.3-4-3.2-5l-8.7 23ZM348 81.2c2.1-1.6 4.2-3.1 6.2-4.8 3.8-3.3 8.4-5.8 10.2-11.1.8-2.4 2.2-4.5 3.3-6.8-3.5 2.3-6.2 5.1-9.4 7.4A22.9 22.9 0 0 0 348 81.2Zm-53.3 17.2c-10.3 7.2-23 11.4-30 23.3 11-6.5 22.4-12.5 30-23.3ZM119 280.3c-2.7 2.6-6.6 4.8-8.3 8.2-3.2 6.1-5 13-7.3 19.2 9.1-6.9 12.4-17.3 15.6-27.4Zm194-175 1.5-1.3 14.3-13.4c2.6-2.4 3.8-5.2 3.3-8.4-.8.7-1.6 1.2-2.2 1.9l-13.2 11.8c-2.7 2.5-5.8 4.8-3.7 9.4Zm24.2 68.9c-1.8 2-3 3.9-4.5 5.3-6.1 5.5-7.3 13-9 21 3.3-3.2 6.2-6 9-9 .3-.2.4-.5.5-.8l4-16.5Zm-205.7 208c8-2.5 27.6-18 30.8-24-12.5 5-21 15.2-30.8 24Zm33-203.2-24.7 15.3c3.6 2.4 3.7 2.5 6.9.5l3.3-2.1 16.1-10-1.6-3.7Zm144.4-36-.3-.7c-2.5.6-5.7.4-7.3 1.9-4 3.8-7.3 8.5-11 12.9 4.6 1.9 7 1.2 9.7-2.3l2.7-3.6 6.2-8.3Zm32.5 13c-6.7 7.9-12.4 16.1-13 26.4a37 37 0 0 0 13-26.3Zm-52.4 1 11-13.3c.3-.3.4-1.1.2-1.6-.5-1.3-1.3-2.4-2.1-3.9l-13.8 15 4.7 3.8Zm64.9-94.1-.3-.3-18.4 16.6c-1.8 1.7-1.7 4.2-1.8 7l13.2-11.4c1.5-1.3 3.2-2.7 4.2-4.4 1.3-2.3 2-5 3.1-7.5ZM120.5 261.3l.5.4c1.6-1.2 3.3-2.3 4.7-3.6 1-.9 2-2 2.6-3.2 1.2-2.5 2-5.2 3-7.9l3-8.6c-1.9 1-3.3 1.5-4.6 2.4-1 .5-1.9 1.3-2.3 2.2-1.5 3.6-2.7 7.3-4.1 11l-2.8 7.3Zm6.5-2.6c-4.7 3.1-8.7 5.8-9.7 11.3-.3 1.8-1.3 3.5-2 5.3-1 3-2 5.9-3.2 8.8l.6.5c1.6-1.8 3.1-3.6 4.9-5.2a15 15 0 0 0 4.3-6.8c1.5-4.5 3.2-8.8 5-13.9Zm185.4-118.4h2.8c3-.2 5.5-1.3 7-4.2.8-1.6 2-3 3-4.5 2.2-3 4.2-6 6.2-9-2.8.6-6 1-7.7 2.9-4 4.5-7.5 9.7-11.3 14.8ZM109 379c-7.7 2.7-16 12.5-17 19.9 3.7-3 7.1-6.2 11-8.7 4.1-2.7 5-6.8 6-11.2ZM284.4 286l17.7-10.3c-3.3-2.3-6.4-3.7-9.8-.8l-.8.5-9.7 5.7 2.6 4.9Zm-156 70.4 11.7-12.6c3-3 3.1-4.8.7-8.9-3.2 3.8-6 7.7-9.4 11.3-2.8 2.8-4 5.9-3 10.2Zm179.2-98.7h-5.8c-.5.1-1.2.8-1.3 1.3l-2.9 11.4c-.1.5.7 1.6 1.3 2 1.4.6 3 1 4.4 1.4l.4-.8 4-15.3ZM109 384l.6.3 2.4-2.2c3.8-4 7.4-8.2 11.6-11.8 3-2.7 2.1-6 2.8-9.1l-.8.1c-4.7 5.2-9.6 10.2-14 15.6-1.6 1.8-1.8 4.7-2.6 7Zm171.6-102.4c-4 2.3-7.2 4.8-11 6.3-4.4 1.8-3.7 5.3-4.3 9.1l17.8-10.3-2.5-5ZM298.8 136l12.2-13.1c1.8-2 2-4.3.6-7.2-4.2 4.3-8.3 8.6-12.5 12.7-3.2 3.1-3.3 3.4-.3 7.6Zm-34.3 155-9.4 5.5c-1.6.9-3.5 1.5-4.5 2.9-1.6 2.4-2.6 5.2-3.9 7.9 5.7-2.8 11-5.8 16.3-9 .4-.2.8-.6.9-1l.6-6.3Zm-123-72.1c-1.4.2-2.3.5-3.1.4-2-.2-2.7.7-3.2 2.3-.4 1.6-1 3.1-1.6 4.7l-5 13.6c4-1 6.1-2.6 7.4-6l5.5-15ZM365.6 79.4c-5.7 3.4-11.8 6.4-13.9 13.5-.7 2.3-2.2 4.4-3.3 6.6l.6.5c2.7-1.8 6.2-3 8-5.5 3.3-4.7 5.8-10 8.6-15.1Zm-280.5 314c0 .2.2.3.3.4 2-1.5 4-3.1 6.3-4.3 6.4-3.4 7.2-10.1 10-15.8-3 1.4-6.4 2.4-8 4.8-3.4 4.6-5.8 10-8.6 15ZM354.5 98.8l-.5-.5c-2.7 1.7-6 2.5-7.9 5.4l-5.1 7.3-5.6 8.1a14.6 14.6 0 0 0 9-4.6c1.7-2 3-4.5 4.4-6.7l5.7-9ZM301 256.2l2 .1c4.8.1 4.8.1 6-4.6l3-11.9c-2.4 1-4.4 1.8-6.2 2.8-.8.3-1.5 1.2-1.7 2l-3.1 11.6Zm-72.4 62c3.6-2.1 7.1-4.6 11-6.2 5-2.3 6.7-6.8 8.6-11.5-8.6 3.9-16.4 8.3-19.6 17.6Zm117.7-181.3c-5.6 8.8-13 16.6-13.3 28 8.6-9.7 10.8-14.2 13.3-28Zm-156.7 37.3c5.7-3.5 11-7 16.5-10 3.3-1.9 3.8-5.2 5.3-8-6 3.4-11.6 7.2-17.6 10.4-3 1.7-4 4-4.2 7.6Zm126.7 49-.4-.2-5.3 3.8c-.9.7-2.2 1.4-2.5 2.4-1.3 4-2.3 8-3.4 12.4 2.4-1 4.4-1.7 6.3-2.6.7-.3 1.5-.9 1.7-1.5 1.3-4.7 2.4-9.5 3.6-14.3ZM188.9 170l-1.3.7-17.7 10.9c-2.6 1.6-2.7 2.5-.2 5 4.7-3 9.3-6 14.2-8.7 3.2-1.8 5.6-3.7 5-7.9Zm154-76.6c9-4 14.3-11 17.1-20.3l-9.6 7.8c-1.4 1.1-3.2 2.1-4 3.6-1.5 2.7-2.3 5.7-3.6 8.9ZM139.4 334.8l-.3-.6c-1 0-2 .2-2.8.1-2.8-.2-4.5 1-6 3.3-1.6 2.5-3.5 4.6-5.3 7l-5 6.7c7-1.8 7-1.8 11.1-6.6l2.1-2.5 6.2-7.4ZM136.6 218h3.1c1.5.2 2.4-.4 2.9-1.8 1.8-5.4 3.8-10.7 5.8-16.2-1.5-.6-3-1.2-4.4-2l-7.4 20Zm-20.5 136.5-.7-.2h-.7c-3.5 1-6.5 2.5-8.6 5.8-3.1 5-6.8 9.8-10.2 14.6l.4.5c2.7-1.7 5.8-3 7.9-5.3 4.2-4.8 7.9-10.1 12-15.4Zm118-212.3-1 .4c-5.7 3.5-11.3 7.1-17 10.5-3.2 1.8-3.7 5-5.3 7.7 3.3-1.6 6.2-3.6 9.3-5.3 5.9-3.1 11.2-6.8 14-13.3Zm79.3-30 1.9-1.4c4-4.1 7.7-8.4 12-12.2 2.4-2.3 2.9-5 3.2-8.4l-10.7 10.2-3.4 3c-3.4 2.6-4.2 4.8-3 8.7Zm-16.8-3.9a102.2 102.2 0 0 0 29.5-22.6 88.5 88.5 0 0 0-29.5 22.6Zm-65 201.8c-9 3.3-15.7 9.7-21 18.2 9-4.3 17.4-8.6 21-18.2Zm48.7-196.6c-9.8 6.4-21 10.7-26.8 21.3a71 71 0 0 0 26.8-21.3Zm-135 83.2c2.7 2.5 3.6 2.6 6.1 1l14.2-8.8c3-1.8 3-2.2.5-5l-20.8 12.8ZM304 99.1c-12.1 5.9-25.5 16.3-28.4 22a92 92 0 0 0 28.4-22Zm-47.6 29c-6.1 3.9-12.5 7.5-18.4 11.7-2.5 1.8-4 5-6 7.7l.5.4c8.7-5.6 18.7-9.7 24-19.8Zm81 20c6.4-9.2 13-18 13.8-30.3-5.2 10.1-13.3 18.3-13.9 30.3Zm-6-53.6c.5-.3 1.1-.5 1.6-1 3.1-2.5 6-5.4 9.5-7.6 4.2-2.7 4.7-7.2 6.4-11.2-.6.1-1 .3-1.5.7-3 2.5-6 5-9 7.7-3.3 3-7.7 5.5-7 11.4ZM309 226.7c2.9-2.2 6.5-3.8 7.9-6.5 2-4.2 2.6-9 4-14.2-7.2 5.4-11.6 11.7-11.9 20.7Zm-199 96.8c-2.3 3.3-4.7 6.5-6.8 9.9a97.6 97.6 0 0 0-6 10.5c-1.7 3.5-2.7 7.3-4 11 6.5-10.1 14.8-19.1 16.7-31.4Zm-1.6-9.8c6.9-8 13-16.1 14.8-26.4-5.5 3.5-12.7 16.1-14.8 26.4Zm8.2-8.8c-3.3 4.4-7 8.5-9.6 13.2-2.6 4.6-4 9.9-6 14.9l.7.2c6.3-8.6 13.1-17 14.9-28.3Zm98.7 14.7c-10 3.3-16 11.4-22.6 18.7 9.7-3.6 17.1-10 22.6-18.7Zm109.3-129.8c-7.5 7.5-12.1 16-12 22 7.4-5.3 12.4-14.5 12-22Zm-118.5-5.4c1.6 2 3 3.7 4.2 5.5.8 1.3 1.4 1.5 2.6.7l7.3-4.3-5.3-7-8.8 5.1Zm-76.4 84.5-4.7 4.8c-2 2-4 3.7-4.7 6.4-.9 2.8-2 5.5-3 8.2l-.9 2.7-.6 2.4c7.3-6.4 11.9-14.5 13.9-24.5Zm115.5-107.6-8.9 5.3c1.6 2.2 3 4.2 4.5 6 .3.4 1.6.5 2.2.2l7.1-4.2-4.9-7.3Zm-19 11.3 5.4 7 8.5-5-5.1-7.3-8.8 5.3Zm3.8 7.8-4.4-6c-.3-.4-1.2-.7-1.6-.5l-7.9 4.6 4.2 5.6c.7 1 1.3 1.4 2.5.7l7.2-4.4Zm-87.8 54.5c-5.7 2-6 2.2-7.9 7l-2.3 6-2.2 6.7a14 14 0 0 0 3.8-2.6c1.4-1.2 3.1-2.2 3.8-3.8 1.8-4.2 3.1-8.6 4.8-13.3Zm-19.4 38.5c8.3-5 10.8-13 13.1-21.6-4 2.8-7.8 5-9 9.9-1 3.9-2.6 7.6-4 11.7Zm87.5-81.3-4.7-5.8c-.4-.4-1.2-.8-1.5-.7l-8 4.8 4.8 6c.3.3 1 .5 1.4.3l8-4.6Zm111.2-65.8c-3.7 1.3-7.6 1.8-10 5.5-2.4 3.5-5.5 6.6-8.3 9.8l.4.6 4.6-1c.8 0 2 0 2.4-.5 3.7-4.7 7.3-9.6 10.9-14.4Zm-20 15.7c3.4-4 6.4-7.8 9.6-11.3 2.2-2.3 2-4.8 1.6-7.6-.5.1-.8 0-.9.2l-11.8 13c-.3.4-.5 1.3-.3 1.7.4 1.3 1 2.4 1.9 4Zm14.6 55.9c3.3-4 6.9-7 9-11 2.2-4 2.8-8.7 4.1-13a40.3 40.3 0 0 0-13 24Zm-115.9.2-5.3-7-8.7 5c1.8 2.3 3.3 4.3 5 6.2.2.3 1.3.3 1.8 0l7.2-4.2ZM174 349.3c11-4 18.4-12 25.7-20.8-11 4.2-17.6 13.2-25.7 20.8Zm53.6-155.7 8.6-5-5.2-7-7.4 4.3c-1.2.7-1 1.3-.2 2.2l4.2 5.5Zm-79.4 24.7c-1.4.2-2.2.6-3 .5-2.2-.4-2.9.9-3.4 2.6l-2.7 7.5-2.7 7.7 3.7-2c1-.7 2.6-1.3 3-2.3 1.8-4.5 3.3-9 5.1-14ZM182 209l8.4-5-5.4-6.9-8.6 5 5.6 7Zm59.1-33.3-6.4 4c-1 .6-2.4.8-1.5 2.5 1.7 3.1 4.4 5.5 5.7 4.9l.7-.3 6.5-4-5-7Zm111.7-87.2C344.9 91.8 339 99 338 106.1l5.2-3c1-.8 2.5-1.3 3-2.4 2.3-3.9 4.2-8 6.4-12.3ZM174.9 202.8l-8.3 5.1c1.4 1.8 2.6 3.6 4 5.1.6.6 1.8 1.3 2.3 1 2.6-1.3 5-2.9 7.6-4.4l-5.6-6.8ZM99 383.5l.4.5c2.3-1.6 4.4-3.6 7-4.8 5-2.4 5-7.2 6.7-12-2.5 1.4-4.6 2.4-6.5 3.6-1 .6-2.3 1.3-2.8 2.3-1.8 3.4-3.3 7-4.9 10.4ZM206.3 206l-4.4-5.8c-.4-.4-1.5-.5-2-.3l-7.3 4.3c1.4 2 2.8 3.9 4.3 5.6.4.4 1.6.6 2.2.3l7.2-4Zm-4-7.5 4.7 5.8c.3.3 1.3.4 1.7.2l7.5-4.3-5.3-6.9-8.5 5.2Zm29.8 3.8c-1.6-2.2-2.8-4-4.1-5.5-.4-.5-1.5-1-2-.7-2.4 1.3-4.9 2.9-7.6 4.5l4.7 5.9c.2.2 1 .4 1.2.2l7.8-4.4Zm-11.3-14.8-8.5 5 4.5 6c.3.3 1.5.5 2 .2 2.4-1.3 4.6-2.8 7.2-4.4l-5.2-6.8Zm26.5-5.7 8.6-5c-1.4-2-2.6-3.9-4-5.6-.5-.4-1.6-.7-2.1-.5l-7.5 4.2 5 7Zm-40.3-17.1c-5.5 3.3-10.3 6.5-15.4 9.3-2.9 1.5-2.9 3.9-3.2 7 4-2.5 7.4-5 11.2-6.7 4-2 5.8-5.2 7.4-9.6ZM182.8 210c1.8 2.3 3.3 4.2 4.9 6 .2.3 1 .3 1.5.1l7.4-4.4-5.3-6.7-8.5 5Zm-11.4-18.6c4.4-2.7 8.6-5.6 13.2-8 3-1.5 3-3.9 3.3-6.7l-1.6.7-13.6 8.4c-3.2 2-3.2 2-1.3 5.6Zm-22.1 9.2-6 16.7c4.7.9 5 .7 6.4-3.3l2.4-6.9c1.8-4.7 2.4-4.2-2.8-6.5Zm165-81.4c4.2-4.7 8.6-9 12.6-13.8 1.2-1.5 1.3-4 1.9-6-4.8 4-8.8 8.3-13.2 12.3-2.4 2.2-2.7 4.5-1.4 7.5Zm-71 76.6 8.6-5.2-5-6.7-8.5 5 5 6.9Zm89.2-37.8c-4.5 8.2-12 14.8-12.7 25.6 6-8 12.5-15.2 12.7-25.6Zm-104 36.8c1.5 2 2.8 3.9 4.3 5.5.3.5 1.5.6 2.1.3 1.7-.8 3.3-1.8 5-2.8.7-.5 2.2-.6 1.4-2.3-1.6-3.1-4.2-5.6-5.5-5l-1.5.6-5.8 3.7Zm-4.7-35.6c8-3.2 19.7-12.8 21.8-18.2-3.4 2.2-6.6 4.4-10 6.1-5.4 2.6-8.8 7-11.8 12Zm2.5-6.3c-4.8 3-9.1 5.9-13.8 8.3-3.5 2-4.8 5-6 8.5 7.4-4.5 16-7.5 19.8-16.8Zm99.9-30.4c3.3-1 6.9-1.3 8.9-4.9 1.7-3 3.8-5.7 5.8-8.5l3.4-5c-9.6 3.2-12.7 11.9-18.1 18.4Zm-117.6 83.8c1.7 2.2 3.1 4 4.7 5.8.3.3 1.2.5 1.6.2 2.5-1.3 4.8-2.8 7.4-4.3-1.5-2-3-3.6-4.1-5.4-.7-1-1.4-1.1-2.3-.5l-7.3 4.2Zm-95.4 166.8c3.7-4 7-8.3 11-12 2.9-2.6 2.8-5.6 2.6-9.5-3.1 3.8-5.7 7.2-8.7 10.3-2.9 3.1-4.7 6.6-4.9 11.2Zm73.4-155.6c-1.5-2.1-2.8-4-4.1-5.6-.4-.4-1.6-.8-2-.5-2.5 1.3-4.8 2.8-7.4 4.4 1.6 2 3 3.8 4.6 5.5.3.4 1.3.5 1.8.3l7.1-4Zm66.8-27.7 8.3-4.9c-1.5-2.2-2.6-4-4-5.8-.3-.4-1.4-.6-2-.4-2 1-4 2.2-6 3.5-.5.3-.9 1.6-.6 2 1.2 1.8 2.7 3.6 4.3 5.6Zm91-104.1c-3.6 2.8-6.4 5.6-9.7 7.6a10.7 10.7 0 0 0-5.3 9.8c8.4-4 13-9.4 15-17.4Zm-161 252.2a96.5 96.5 0 0 0-26.7 21.4c10.9-4 18.3-12.8 26.7-21.4Zm29-124-3.1-4.4c-1.2-1.9-2.4-2.8-4.4-1-.9.8-2 1.2-3 1.8-3.3 1.9-3.3 1.8-.8 4.5.8.9 1.3 2 2.2 2.8.4.4 1.3.7 1.7.5 2.5-1.3 4.9-2.8 7.5-4.3Zm45.2-15.2c-1.3-2-2.5-3.8-3.9-5.5-.3-.4-1.3-.9-1.7-.7-2.5 1.3-4.9 2.8-7.3 4.2l3.4 5.5.5.5c.5.1 1.2.4 1.6.2l7.4-4.2Zm-107 .6.1 1c1.5.3 3.5 1.3 4.6.7 4.5-2.4 8.7-5.3 13.1-7.8 2.1-1.2 1.3-2.6.5-4-1-1.5-1.8 0-2.6.5L164 191l-13.4 8.3Zm116.9-6.5-4.8-6.6-8.5 4.9c1.4 2 2.6 3.8 3.9 5.4.3.5 1.5.9 1.9.6 2.4-1.2 4.7-2.7 7.5-4.3Zm-24.7 5-8.4 4.8 5 6.7 8.4-5-5-6.6Zm-1-49.6a61.4 61.4 0 0 0 23.7-19.3c-9 5.4-18.2 10-23.6 19.3Zm-27 65.9 2.2 3c.8 1 1.6 2.7 2.6 3 1 .2 2.4-1 3.6-1.6l5-2.8-5-6.6-8.3 5Zm-25.7 3.7 4 5c.5.5 1.8 1.2 2.2 1 2.5-1.3 4.8-2.9 7.4-4.4l-5.2-6.5-8.4 4.9Zm35.4-9.4c1.6 2 2.8 3.8 4.3 5.3.4.5 1.7.6 2.3.3 2.3-1.1 4.4-2.5 7-4-1.6-2-3-4-4.7-5.8-.2-.3-1-.3-1.4-.1l-7.5 4.3Zm19.3 9.2-5-6.4-8.3 5c1.4 1.8 2.6 3.5 4 5 .4.5 1.6 1 2 .7 2.5-1.3 4.8-2.8 7.3-4.3Zm-38.8 2.2c1.5 1.9 2.8 3.7 4.3 5.2.4.5 1.7.6 2.3.3 2.3-1.1 4.5-2.5 6.9-4l-5-6.4-8.5 4.9Zm-79.4 131.7-.4-.6c-2.4 1-5.5 1.2-7 3-4.2 4.6-7.8 9.8-11.9 15.3 9.6-3.1 13.2-11.8 19.3-17.7Zm128-139.5-5-6.4-7 4.2c-.5.3-.7 1.5-.5 1.8 1.2 1.8 2.7 3.5 4.1 5.3l8.4-4.9Zm-3.4-7.2 4 5.6c.3.3 1.2.4 1.6.2l7.5-4.2c-1.3-1.8-2.5-3.3-3.5-5-1-1.5-2-1.4-3.3-.5l-6.3 3.9ZM224.4 229l-5-6.5-8.3 5c1.4 1.8 2.8 3.3 3.9 4.9.8 1 1.5 1.2 2.5.6l7-4Zm-3.7-7.2c1.7 2 3 3.9 4.5 5.6.3.3 1.2.3 1.6.1l7.3-4.1c-1.4-2-2.7-3.7-4.1-5.3-.4-.4-1.6-.6-2.2-.3l-7 4Zm38.6-84.4a73.4 73.4 0 0 0 25.3-20c-4.6 2.5-9.3 4.8-13.3 8-4.2 3.5-7.7 7.7-12 12ZM208.7 227l-3.8-5c-.7-1-1.6-1.2-2.8-.5-2.1 1.4-4.3 2.6-6.8 4l5.4 6.3 8-4.8Zm-29.2-3.4 4.3 5.1c.4.4 1.4.8 1.8.6l7.3-4.2-4.3-5.4c-.4-.4-1.4-.6-1.8-.4l-7.3 4.3Zm86 59.2c-7 2-12.6 7.6-13.4 13.8 3.5-2 6.8-4 10.3-5.8 2.1-1 2.8-2.7 3-4.8v-3.2Zm-9.6-70.3 4.6 6.5 8.3-5-4.7-6.4-8.2 5Zm-5.1 12 8.5-4.8-4.9-6.4-8.3 4.8 4.7 6.4Zm72.6-55.3c5.5-8.5 12.8-16 13.2-27-4.5 9-11.9 16.4-13.2 27Zm-20.6 75.2c-6.4.8-9.3 4.6-9.7 12.4h5.2c.6-.1 1.5-.8 1.6-1.3l2.9-11Zm-36.1 43.8c4.1-2.3 8.3-4.6 12.3-7 .3-.2.5-1.2.3-1.6-.5-1.3-1.2-2.5-1.9-3.8-1.7 1-3.2 2-4.8 2.7-4.4 1.6-6.8 4.4-6.1 9.3l.2.4Zm11.9-79.8-4.6-6.3-8.5 4.7c1.5 2 2.6 3.7 4 5.3.3.4 1.3.8 1.6.6 2.5-1.3 4.8-2.7 7.5-4.3ZM256.4 232l8.3-4.7-3.9-5.4c-.3-.4-1.2-.7-1.5-.5-2.5 1.3-5 2.7-7.6 4.3l4.7 6.3Zm-70.6-.8c1.5 1.8 2.7 3.5 4.2 5 .4.4 1.5.7 2 .5l7.1-4.1-5.2-6.3-8.1 5Zm61 6.4 8.4-5-4.8-6.2-8.2 4.8 4.6 6.4Zm-10.4-13.8 4.2 5.4c.2.3 1 .6 1.4.4 2.5-1.4 5-2.8 7.5-4.4l-4.9-6.4-8.2 5Zm28.2-18.2 8.4-5-3.6-5c-.3-.5-1.3-1.2-1.6-1-2.6 1.4-5 3-7.7 4.5l4.5 6.5Zm-58 33.7 8.2-4.8c-1.4-1.6-2.7-3.1-3.8-4.8-1-1.3-1.9-1.2-3-.5l-6.4 3.8 5 6.3Zm88.5 32.7c-1.4-.7-2.1-1.2-3-1.5-1-.4-2.5-1.3-3.3-1-3.5 1.7-6.8 3.7-10.3 5.7l2.9 4.6 13.7-7.8Zm-67.2-23.5 8.1-4.8c-1.4-1.9-2.6-3.5-4-5-.3-.4-1.4-.8-1.9-.5-2.4 1.2-4.7 2.6-7.2 4l5 6.3Zm4.6-11.7 4.9 6.2 8.2-4.8-4-5.1c-.4-.4-1.5-.7-2-.4-2.3 1.2-4.5 2.6-7.1 4.1Zm66.8 21.4c-2 0-3.7-.2-5.3 0-.7.1-1.5.8-1.7 1.4-.9 2.7-1.5 5.4-2.3 8.3l6 3 3.3-12.7Zm-72.5-28.8c1.3 1.8 2.5 3.5 3.9 5.1.3.4 1.3.7 1.7.5 2.5-1.2 4.9-2.6 7.5-4.1l-3.8-5c-.8-1.2-1.7-1.2-2.8-.5l-6.5 4Zm47.6-7.8-3.9-5.2c-.3-.4-1.4-.7-1.9-.5l-7.2 4.2 4.7 6.3 8.3-4.8Zm30.3-116.4a84.6 84.6 0 0 0-26.3 20.7c9.9-4.4 18-12.4 26.3-20.7Zm-37.8 122.4c1.3 1.8 2.4 3.5 3.7 5 .4.5 1.8.8 2.3.5 2.3-1.2 4.5-2.6 6.9-4-1.3-1.8-2.6-3.4-3.7-5.1-.7-1.2-1.4-1-2.3-.5l-6.9 4.1Zm-5 11.7c2.6-1.4 5-2.6 7.3-4 .4-.3.6-1.4.3-1.7-1.2-1.8-2.6-3.5-4-5.2l-8.2 4.7 4.6 6.2Zm-56.7.7-5-6.2-8.2 5 4.5 5.2c.3.4 1.4.3 1.9 0l6.8-4Zm66-25.5c1.3 1.8 2.4 3.6 3.7 5.2.3.4 1.5.7 2 .4 2-1 4-2 5.8-3.3.4-.2.9-1.2.7-1.5-1-1.6-2-3.1-3.3-4.5-.4-.4-1.5-.6-2-.3l-7 4Zm-40.9 22c-1.5-2-2.8-3.8-4.3-5.5-.3-.4-1.2-.5-1.6-.3L217 235l4.2 4.9c.5.4 1.7.5 2.3.2 2.2-1 4.3-2.2 6.8-3.6Zm-14.7-.8-8 4.8 5 6.2 8.1-4.8-5-6.2ZM204 253.4l4.6 5.2c.2.2 1 .3 1.2.2l7.3-4.2-4-5c-.5-.4-1.7-.6-2.2-.3-2.3 1.2-4.4 2.5-6.9 4Zm92.1-7.8 5.8-2.6c.6-.3 1.3-.8 1.5-1.3l2.8-11.1c-6 3.4-10.7 7.4-10 15Zm-42.8 44.1c-7.7 2.4-12.2 8-15.5 14.9 4-2 7.8-4.2 11.6-6.5.6-.4.8-1.3 1.2-2l2.7-6.4Zm7.4-49.6-4.7-6.3-8.3 4.8c1.5 1.9 2.7 3.7 4.1 5.3.4.4 1.5.4 2 0 2.3-1.1 4.5-2.5 6.9-3.8Zm-47.2 7.7 4.9 6 8.2-4.6c-1.6-1.9-2.8-3.6-4.3-5-.3-.5-1.4-.7-2-.4l-6.8 4Zm75.8-24.2-3.4-5c-.4-.4-1.5-1-2-.7-2.4 1.2-4.8 2.7-7.4 4.2l4.7 6.2c2.8-1.6 5.4-3 8.1-4.7Zm-55.7 32.1 8-4.7c-4-6.5-4-6.5-9.6-3.4-3.4 1.9-3.4 1.9-.9 4.8l2.5 3.3ZM203 252l6.8-3.8c.3-.1.8-.7.8-.7-1.1-1.8-2.3-3.5-3.6-5.1-.3-.5-1.4-.8-1.8-.6-2.3 1.2-4.6 2.7-7 4.2l4.8 6Zm-81.2 44.3c5-7.6 12.2-13.4 13.3-23a38.5 38.5 0 0 0-13.3 23Zm116.4-52.2c1.4 1.7 2.5 3.4 4 4.9.4.4 1.6.8 2 .5 2.4-1.2 4.5-2.6 7-4l-4.2-5.3c-.2-.3-1.2-.5-1.6-.3l-7.2 4.2Zm-6 12.2c-1.3-1.7-2.5-3.4-3.9-4.8-.4-.5-1.6-.8-2-.5-2.4 1.2-4.6 2.6-7 4l3.4 4.2c1 1.3 2 1.7 3.6.7 1.9-1.3 3.9-2.3 6-3.6Zm-91.9 2.5a29.6 29.6 0 0 0-12.3 20.1c6.1-5.8 11.2-12 12.3-20.1Zm9.8-27.8c-1.8.8-3.3 1.5-4.7 2.3-.8.4-1.7 1-2 1.7-1.4 3.5-2.6 7.1-3.9 10.6l-.3 1.6c7.7-2.7 8.9-9.5 10.9-16.2Zm72.7 30.7c-1.4-1.8-2.5-3.5-4-5-.3-.3-1.6-.5-2.1-.2-2.2 1.1-4.3 2.5-6.8 4l4.5 5.1c.3.3 1 .3 1.4.1l7-4Zm-106.5 50.4c5.3-8.3 12.6-15.4 14.5-25.8-10 12.3-12.2 16.2-14.5 25.8ZM339.6 97.4c-3.4 2.4-6.1 4.6-9 6.5-3.2 2-2.8 5.2-3.4 8.3 8-3.4 10-5.7 12.4-14.8ZM125.3 301.5c-6 8.7-13.3 16.6-15 27.6 5-9.2 13-16.8 15-27.6Zm173.4-67 5-3.7c1.2-1 2.8-2 3.3-3.4 1.2-3.2 1.7-6.6 2.6-10.1-7.8 6.4-10.8 11.1-10.9 17.1ZM144.4 232l.5.5c2-1.2 4.8-2 6-4 1.7-3 2.5-6.7 4-11-2.5.6-5.3.6-5.8 1.6-2 4.1-3.2 8.6-4.7 13Zm96.2 64.8c-8.3 2.5-12.2 9.7-17.7 16a28.4 28.4 0 0 0 17.7-16Zm-106.9-34a26 26 0 0 0 11.4-18.1 23.5 23.5 0 0 0-11.4 18Zm181-136.4 9.3-11.3c1.8-2.1 2.5-4.2 2.4-6.1-3 2.7-6.6 5.6-9.8 9-1.2 1.3-3.4 2.4-2.7 4.9l.7 3.5ZM208.1 321.2c9.7-3.2 15.2-10.2 20.8-17.9-9.2 3.6-13.8 11.6-20.8 18Zm-58.5-104.1c6.2.3 5.5-.3 6.8-4.1.5-1.7 1-3.5 1.8-5.1 1-2.2.3-3.4-1.8-4l-2-.4-4.8 13.6Zm37.6-29.4c3.2-1.8 6-3.6 8.8-5.1 3.6-1.9 5-5.1 6.6-9l-1.7.9c-3.4 2-6.7 4.5-10.3 6.2-3.2 1.5-3 4-3.4 7Zm-15.6 4.6 1.7 3.9c3.2-2 6-4 9-5.4 3.4-1.5 4.2-4 4.3-7.5l-15 9Zm46.5-28.2c-3 1.8-5.6 3.7-8.5 5a15 15 0 0 0-8.3 10c6.8-3.6 13.6-7 16.8-15Zm-68.4 116.4c1-2.7 2-5 2.7-7.4v-1l-5.7-6.2c-1 2.7-1.7 4.8-2.3 7-.2.6-.2 1.5.2 1.9 1.5 1.9 3.2 3.7 5.1 5.7Zm151.6-57.4c6-4.8 11.3-10 11-18.8-4 6-11 10.4-11 18.8Zm-71-61.6a54.1 54.1 0 0 0 20.1-17c-8.9 4.3-13.2 7.9-20.1 17ZM155.7 202c2.4 1.6 4.3 2.6 6.7.7 2.2-1.6 4.7-2.8 7.1-4.2 3.1-1.9 3.1-2 1-5.5l-14.8 9Zm-2.6 45-2.2 6.2c-.2.6-.1 1.7.3 2.1 1.5 2 3.3 3.7 4.9 5.4 3.7-5.5 3-10.2-3-13.8Zm180.7-136.9c-8.7 2.9-12.2 10.4-17.4 16.1 3-1.2 6.4-1.1 8.5-4.3 2.6-4 5.7-7.6 8.9-11.8ZM156.4 237c-.6 1.8-1 3.3-1.6 4.5-1.3 2.6-.6 4.6 1.3 6.5l3.5 3.7 2.2-7.6c0-.4-.2-1-.5-1.4-1.5-1.9-3-3.6-4.9-5.7Zm-6.3 19.2-2.4 6.8c-.2.5-.3 1.4 0 1.8 1.6 2 3.4 3.9 5.5 6.1l2.2-7c.1-.6 0-1.4-.3-1.8l-5-6Zm9.8 22.3 1.5-4.5c.4-1.8 1.8-3.7-.3-5.5-1.5-1.3-2.7-2.8-4.3-4.5l-2.3 7c-.1.5-.1 1.3.2 1.7l5.2 5.8Zm155.7-86.7c-3.2 4.4-6.3 8.4-9 12.6-1.4 2.4-2 5.2-3 7.8l.7.3c4.6-6.2 11.6-11.1 11.3-20.7ZM156.7 288c3.2-7.5 2.6-10.2-3-13.8-.8 2-1.7 4-2.3 6.1-.2.8 0 2 .5 2.6l4.8 5Zm6.4-19.3 2.3-7.2c.1-.4 0-1.1-.3-1.5l-5.1-5.7c-.8 2.3-1.6 4.4-2.1 6.5-.2.8 0 2 .5 2.7 1.3 1.8 2.9 3.3 4.7 5.2Zm.5 26.7 2-6.8c.1-.6.2-1.6-.2-2-1.4-1.8-3.1-3.4-4.8-5.2-3.2 8.4-4.1 7.2 3 14Zm71-141.2c-7.5 4.4-15.2 7.5-18.4 16 7.7-3.2 13.4-8.7 18.4-16Zm10.3-1.4a83 83 0 0 0 21.9-18 58.6 58.6 0 0 0-22 18ZM162.5 242c.9-2.6 1.7-4.7 2.3-6.8.2-.6 0-1.5-.4-2l-4.8-5.5c-3.2 7-3.2 7 1.5 12.6l1.4 1.7Zm4 43.7c.9-2.3 1.6-4.2 2.1-6.2.2-.7.4-1.9 0-2.4-1.5-2-3.1-3.7-5-5.8-1 2.9-1.7 5.2-2.3 7.6-.1.4 0 1 .2 1.3l5 5.5Zm-3.5-41.2c-.8 3.1-2.5 5.8-2 8.1s3.1 4.2 5 6.6l2.3-6.8c.2-.4.3-1.2 0-1.5l-5.3-6.4Zm54 65.8c-5 2-20.2 15.2-21.7 18.6 9.7-3.3 14.9-12 21.7-18.6Zm-51.4-77.6 2.2-6.7c.2-.5.1-1.4-.2-1.8-1.5-2-3.1-3.8-5-6l-2.3 7c-.1.4 0 1 .3 1.3 1.5 2 3 3.9 5 6.2Zm1 29-2.3 7.5c-.1.4 0 1 .3 1.2 1.5 1.9 3.1 3.6 5 5.7l2.1-6.8c.2-.5.3-1.2 0-1.5-1.5-2-3.1-3.8-5-6Zm38.2 55.4c-9.6 4.7-16 13.2-24 19.9 10.5-3.7 16-13.2 24-19.9Zm101.3-115.6.7.3 7.6-10.4c2.8-3.7 4.7-8.8 4.4-12.3-3.2 4.9-6.4 9.4-9.2 14.2-1.5 2.5-2.3 5.5-3.5 8.2Zm-140 34-2.3 7c-.1.4-.1 1 .1 1.3l5.2 5.7 2.3-6.6c.2-.5.2-1.3-.1-1.7l-5.2-5.6Zm92.9-91.3c9.7-4.1 16.1-12.3 23.8-19-10 3.8-16.3 12.2-23.8 19Zm-93.3 65-2.4 6.8v1.1l5.4 6.3 2.2-7.4c0-.4-.1-1-.4-1.3l-4.8-5.4ZM173 293l2.4-6.7c.1-.5.2-1.3-.1-1.6l-5.2-5.8-2.1 7.6c-.1.4.1 1 .4 1.3l4.6 5.2Zm-3.2-40.4c-.8 2.3-1.6 4.2-2.2 6.2-.2.6-.4 1.6 0 2 1.5 2 3.1 3.7 5 5.9l1.5-4.5c1-2.2 1.2-4-1-5.8-1.2-.9-2-2.3-3.3-3.8Zm5.6 4.5c3.3-6.4 2.7-9.2-2.7-13.6l-2.4 6.8c0 .3 0 .9.2 1.1l4.9 5.7Zm7.3 10.4c-3.2 6.7-2.7 9.3 2.8 13.5l2-6.6c.1-.5 0-1.3-.4-1.7-1.3-1.7-2.8-3.3-4.4-5.2Zm-6.7 16c3-7.3 2.4-9.7-3-13.8l-1.9 6.8c0 .5 0 1.3.2 1.7l4.7 5.3Zm-9 5.1c-.5 2.2-1 3.8-1.5 5.4-1 3.6 1.1 6.6 5 7 .6-1.6 1.3-3.3 1.8-5 .1-.6.1-1.5-.2-2l-5-5.4Zm11.3-40.9c3.6-5.6 3.2-7.8-2.6-13.4-.9 2.3-1.7 4.5-2.3 6.7-.2.4.2 1.2.5 1.6l4.4 5.1Zm-2 12.3-2.2 6.4c-.2.6-.4 1.5 0 2 1.4 1.8 3.1 3.6 5 5.7.8-2.7 1.5-5 2-7.2.2-.5 0-1.1-.3-1.5l-4.6-5.4Zm-7-33.2c-3.4 5.4-2.4 10.1 2.8 13 3.5-5.2 2.3-9.6-2.7-13Zm16.7 80.7 1.7-6c.2-.7.6-1.9.2-2.4-1.4-1.9-3-3.6-4.9-5.6-.7 2.6-1.4 4.5-1.9 6.6-.2.7-.2 1.6.2 2.1 1.3 1.8 2.9 3.3 4.7 5.3Zm-9.3-21.2c-.9 3-2.6 5.7-2.1 7.9.4 2.2 3 3.9 5 6.2l2.4-8.2-5.3-5.9Zm9.3-1.8c-3.1 6.4-2.6 9 2.7 13 3.2-6.4 2.8-8.4-2.7-13Zm122.6-93.7.8.3c6.6-7.2 13.1-19.6 12.5-24.3-3.1 5.2-6.3 10.2-9.2 15.3-1.6 2.8-2.8 5.8-4.1 8.7Zm-126.3 99.8c3.3-5.7 3-7.6-2.6-13.6l-2.3 7c-.1.4.2 1.2.6 1.6 1.3 1.7 2.7 3.2 4.3 5Zm-10-73.3c-3.2 6.7-2.5 9.6 3 13.4l1.8-6c.1-.6 0-1.5-.3-2-1.3-1.8-2.8-3.5-4.4-5.4Zm16.9 83.5-2 7.2c0 .4.1 1 .4 1.3l4.2 4.7c3.6-5.4 3-8.8-2.6-13.2Zm-45.7-24.9-2.4 7v1.2l6.4 4 1.5-4.5c.1-.6.1-1.5-.2-1.9-1.6-1.9-3.3-3.7-5.3-5.8Zm38.3-11.4c3-7.2 2.4-10.1-2.6-13.1-.4.8-1 1.5-1.1 2.3-.4 1.7-1.3 3.8-.7 5.3.9 2 2.8 3.6 4.4 5.5Zm-.4-25.8 2.1-6.4c.2-.5.3-1.2 0-1.5-1.5-2-3-3.7-5-6l-2 7c-.2.4 0 1 .2 1.3l4.7 5.6Zm10.2 27-2.1 6.5c-.1.4-.2.9 0 1.1l4.7 5.6c3.3-6.7 3.1-7.8-2.6-13.1Zm-9.4-24c-3 5.2-2.8 9.7 2.7 13l2.3-6.3c0-.4-.2-1-.5-1.3l-4.5-5.3Zm3.2 17.1c-3.1 5.5-2.6 8 2.8 12.6 2.9-6 3-6.6-.5-10.7-.6-.8-1.6-1.3-2.3-1.9Zm13 39.8c-3.2 6-2.7 8.3 2.6 12.7 3.2-5.6 2.8-8-2.5-12.7Zm-9.3-23.6c-3.5 5.8-3 8.3 2.5 13.1l2.3-7c0-.2 0-.7-.2-1L189 275Zm5.9 6.9-2 7c-.1.4-.2 1 0 1.2l4.8 5.5 2-6.8c0-.6 0-1.5-.4-2l-4.4-5Zm8.6 20.3c3.1-6.4 2.4-9.9-2.7-13-.6 2-1.2 3.8-1.6 5.8-.2.9-.1 2 .4 2.8 1 1.5 2.5 2.8 3.9 4.4Zm-11.4-11-2.3 7.7 2.2 2.8 2.9 3 2.2-7c0-.3 0-.8-.2-1l-4.8-5.5Zm5.5-18c-2.7 7.5-2.4 9 2.9 12.5 2.8-6 2.1-9-2.9-12.6Zm-10-27.5 1.8-5.2c.2-.7.6-1.8.2-2.2-1.4-2-3-3.7-4.6-5.7-3 8-3 8 2.5 13Zm7 11.2c-3.5 4.8-3 7.9 2.6 12.7l2-6.7c.1-.5-.2-1.3-.6-1.7-1.2-1.5-2.6-2.9-4-4.3Zm-46.6-16c5.4-3.1 9.3-7 9.6-13.4-1.4.7-3 1.3-4.4 2.1-1 .7-2 1.6-2.4 2.7-1 2.7-1.8 5.5-2.8 8.5Zm52.6 22.8c-3.1 6-2 10.6 2.7 12.7.2-.7.3-1.5.6-2 2.3-3.9.9-6.8-2.1-9.4l-1.3-1.3Zm-48.4-35c5.9-1.8 8.4-5 8.6-10.9-2 .2-4.4-1-5.4 1.5-1.3 3-2.1 6.1-3.2 9.4Zm35.9 20.5c-.8 2.6-2.3 5.2-1.9 7.5.4 2 3 3.7 4.6 5.7 2.9-6.8 2.4-9.2-2.7-13.2Zm15.7 30.6c-3 6.6-2.5 9 2.7 13l2-6.5c.1-.5-.1-1.3-.5-1.7l-4.2-4.8ZM156.3 217c2.3-.4 4.6.4 5.8-1.8 1-1.8 1.5-3.8 2-5.8.2-.5-.2-1.5-.6-1.8-1-.7-2.1-1-3.4-1.7l-3.8 11Zm37.5 36.2c2.8-6 1.8-10.1-2.7-12.6l-2 5.7c0 .5 0 1.3.2 1.7l4.5 5.2Zm-18-52.3c3.8-3 10.1-3.4 9.4-10.6l-8.8 5.4c-2.9 1.7-3 2-.6 5.2Zm21.7-18c-2.6 1.6-4.9 3.3-7.5 4.4-3.3 1.5-3.7 4.1-4 7.4 5.2-2.7 10.4-5 11.5-11.8Zm-36.4 22c3.9 2.5 4.1 2.5 7.4.4l4.5-2.6c1.7-.9 1-2 .5-3.1-.6-1.6-1.5-1.4-2.6-.7l-9.8 6Zm47.9 79.1c3-6.3 2.5-9-2.5-12.9-1.9 4.1-3.5 8.1 1.4 11.4.4.3.6.9 1 1.5Zm.2-21.8c-2.8 6.4-2 9.4 2.6 12.3 2.8-6.3 2.4-8.3-2.6-12.3Zm-12-14.5c-2.3 7.9-2.1 8.8 2.5 12.3 3.3-4.6 2.4-8.8-2.6-12.3ZM140 265.2c4.4-5.7 10.3-9.7 11-17.2-5.3 4.4-10.2 9.1-11 17.2Zm14.3-27.3c-6.4 2.6-8.8 8-10.2 14.8 4.7-4.5 10-8 10.2-14.8Zm-18.5 39.6c4.1-6.4 10.7-11.3 12-19.6-5 6-11.2 11.1-12 19.6Zm74.5-102c-7.6 3-12.8 8-13 12.4 6-2.3 9.8-6.7 13-12.4ZM130.8 291c10.7-15.3 13-17.5 13-22-11.9 15.4-10 12-13 22Zm-4.3 12.7c5.6-7 13.1-20 14-24.2a80.9 80.9 0 0 0-14 24.2Zm79.1-36.2c3-5.6 2.3-9.5-2.4-12.5l-2 6c0 .4 0 1 .2 1.4l4.2 5.1Zm2-85.9c5.8-2.3 8.7-5 15.7-14-8.4 4.1-11.9 7.2-15.6 14Zm28.7-21.7a41 41 0 0 0-18 15.5c8-3 12-10.1 18-15.5ZM199 318.6c2.2-6.2 2.9-5-3.3-10.8l-1 2.7c-1.5 4.4-1.5 4.4 2.4 7l2 1Zm49.3-165.7c-8.3 2.9-13 9.9-18.6 15.8 7.6-3.6 12.5-10.4 18.6-15.8Zm-7.2 9c7.8-4.4 13.5-11.4 20.3-17-8.5 3.6-14.1 10.7-20.3 17Zm-63.5 143.9c2.7-3.8.9-5.5-4-9.5l-1.7 6.1 5.7 3.4ZM294.8 181c2 4.6 4.7 8 10 8.5-3.7-6.4-3.8-6.6-10-8.5Zm1.5 5.1c-2-4.3-4.6-7.8-10-8.3 2.3 4 4.7 7.9 10 8.3Zm-18-11.6c3 5.5 6.6 8.5 10 8.2-2.2-3.8-4.6-7.6-10-8.2Zm-8-3.3c3.2 5.9 4.6 7.1 9.8 8.4-2-5-4.7-7.3-9.9-8.4Zm32 23.6c-2.2-4.1-4.7-7.7-10-8.4 2.2 4.3 5 7.6 10 8.4Zm-151.7 88.2-1.7 5.7c2 1.3 4 2.5 6.4 3.8 1.7-5-3-6-4.7-9.5ZM294 191.4c-2.9-5.8-4.7-7.3-9.5-8 2 3.9 4.3 7.4 9.5 8ZM276 180c4.3 6.4 5.8 7.7 9.8 8-2-4-4.6-7.6-9.8-8Zm-4.2-3.5a10.5 10.5 0 0 0-9.2-8c2 3.9 4.4 7.4 9.2 8Zm10.6 12c1.7 4.7 5.2 7.5 9 7.5-2-3.4-4-7.1-9-7.4Zm7.6 3.2c2.2 3.9 4.3 7.6 9.6 7.8-2.4-3.6-4.3-7.4-9.6-7.8Zm-12-7c-2.3-3.7-4.3-7.4-9.4-7.8 2 3.8 4.1 7.4 9.3 7.8Zm-14-11.6c-2.5-5.4-5.1-7.5-9.2-7.7 2.2 3.5 4 7.3 9.2 7.7Zm-16.7-10.8c4 6.5 4.5 6.9 9 7.5-3.5-6-4.7-6.9-9-7.5Zm22.7 19c-2.2-3.7-4.5-7.2-9.4-7.7 2.4 3.5 4.1 7.6 9.4 7.7Zm27 22.9a12 12 0 0 0-9.2-7.7c1.9 4 4.2 7.3 9.1 7.7Zm-22.7-19c2 3.8 4.4 7.2 9.3 7.8-2.2-3.8-4.3-7.4-9.3-7.8Zm5.6 8c2.1 4 4.5 7.1 9.1 7.8a11.8 11.8 0 0 0-9-7.8Zm20.5 23.9c-2.1-4-4.5-7.2-9.1-7.7 1.7 3.9 4.5 6.6 9 7.7Zm3-10c.7-3.3-2.7-6.5-7.6-7.1 2.4 5 3.9 6.4 7.6 7Zm-28-17.5c-1.9-4.7-5.2-7.5-8.5-7.4 2.3 4.7 4.4 6.5 8.5 7.4Zm-13.1-11.4c-2.4-3.5-4.2-7.3-9.2-7.6 2.2 3.6 4.3 7.2 9.2 7.6Zm30.9 26.3c2.2 3.6 4.2 7.3 9.2 7.7-1.9-4-4.5-6.9-9.2-7.7Zm-7.8-3.2c2.4 3.7 4.6 7.1 9.3 7.7-2-4-4.5-7-9.3-7.7Zm-4-3.5c-2.1-3.9-4.3-7-8.8-7.6 1.6 3.9 4 6.7 8.8 7.6Zm2.1 8.3c3.2 5 5.8 7.2 9 7.3-2-3.5-4.3-6.8-9-7.3Zm14.4-11.3c3.1 5.6 3.6 6.1 6.5 7.2 2-3.3.5-4.9-6.5-7.2Zm-8.9 19c2 3.6 4.2 6.7 8.7 7.2-1.7-3.9-4.3-6.4-8.7-7.2Zm-15-19.4c-2.6-3.4-4.5-7-9-7.3 1.9 3.5 4 6.8 9 7.3Zm4.1 3.9c1.8 4 4.6 6.5 8.8 7.5-1.8-3.8-4-7-8.8-7.5Zm-19-19.4c2 3.7 4.4 6.9 9 7.6-2-3.7-4.3-6.9-9-7.6Zm28.2 39.4c1.5 4 4.7 6.7 8.3 6.8-2-3.3-4-6.4-8.3-6.8Zm2.8-.5c-1.9-3.7-4-6.6-8.4-7.1 1.8 3.5 4 6.3 8.4 7.1Zm-10.8-15.4c-2.1-3.6-4-6.8-8.5-7.3 1.6 3.7 4 6.3 8.5 7.3Zm5.3 7.7c-1.8-4.3-5-7-8.3-6.9 2 3.3 4.1 6.3 8.3 7Zm20.6-13.4 1-.3c-.2-1.5 2-3-.2-4.5-1.6-1-3.6-1.5-5.4-2.3 0 .2-.2.3-.3.5l4.9 6.6Zm-125 107c-1.6 2.8-1.5 3.1 1.4 4.6.5.3 1 .7 1.6.9l1.8.5c-.2-.7-.2-1.6-.6-2-1.3-1.5-2.8-2.7-4.2-4ZM307 190.9l.6-.3 1-4.1-5.5-2.1-.2.4 4 6Zm-12.7 30.6 4 5.5c2-3.7 1.4-4.5-4-5.5Zm-136.7 69.7c-1.2 2.2.3 3.9 4.4 5l-4.4-5Zm138.6-74.4 3.5 4.9c1.4-3.2 1.4-3.2-3.5-4.9Z" fill="url(#a)"/><path d="m454.4 78.2-3.7 17.4-.6-.2 3.6-17.2h.7Z" fill="url(#b)"/><defs><linearGradient id="a" x1="274" y1="19.5" x2="131.8" y2="569.8" gradientUnits="userSpaceOnUse"><stop offset=".2" stop-color="#9D51FF"/><stop offset="1" stop-color="#04182C"/></linearGradient><linearGradient id="b" x1="274" y1="19.5" x2="131.8" y2="569.8" gradientUnits="userSpaceOnUse"><stop offset=".2" stop-color="#9D51FF"/><stop offset="1" stop-color="#04182C"/></linearGradient></defs></svg>